<svg id="Layer_1" data-name="Layer 1" xmlns="http://www.w3.org/2000/svg" viewBox="0 0 316 84"><defs><style>.cls-1{fill:#4224fb;}.cls-2{fill:none;stroke:#4224fb;stroke-miterlimit:10;stroke-width:2px;}</style></defs><title>logo</title><path class="cls-1" d="M43,57.86H31.68v-3a14.51,14.51,0,0,1-10.37,3.82c-7.85,0-12.39-5.12-12.39-11.17,0-6.69,5.4-10.73,14.12-10.73H30.6v-.57c0-2.81-1.73-4.61-5.48-4.61-3.24,0-5.54,1.3-9,4.39l-5.76-7.85C15.19,23.3,20.08,21,26.64,21,36.72,21,43,26.61,43,37ZM30.6,44.4H24.77c-2.09,0-3.32,1-3.32,2.73s1.37,2.81,3.67,2.81c3.17,0,5.48-2,5.48-5.26Z"/><path class="cls-1" d="M60.3,38.86h7.27V49.23H60.3V74.86H47.92V49.23h-5V38.86h5V34.61C47.92,25,53.53,20,63,20a17.92,17.92,0,0,1,6,.87V31.23c-1.44-.08-2.37-.15-2.8-.15-4.25,0-5.91,1.37-5.91,4.75Z"/><path class="cls-1" d="M101.16,32.8h-3c-5.69,0-8.57,2.6-8.57,8.64V57.86H77.25v-36H88.56v3.81a11.34,11.34,0,0,1,9.07-4.39,11,11,0,0,1,3.53.58Z"/><path class="cls-2" d="M118.9,30.47C132.05,30.21,143.26,41,143,53.6c.26,12.62-10.95,23.39-24.1,23.12-13.15.27-24.27-10.5-24-23.12C94.63,41,105.75,30.21,118.9,30.47Zm.09,14c-5,0-8.56,3.79-8.56,9.18,0,5.56,3.53,9.18,8.56,9.18s8.47-3.89,8.47-9.18S123.84,44.42,119,44.42Z"/><path class="cls-1" d="M184.61,57.86H172.22V37.48A5,5,0,0,0,167,32.15a5,5,0,0,0-5.18,5.33V57.86H149.39v-36H160.7v2.95A14.21,14.21,0,0,1,170.85,21c8.36,0,13.76,5.76,13.76,14.69Z"/><path class="cls-1" d="M224.56,57.86h-11.3v-3a14.49,14.49,0,0,1-10.37,3.82c-7.85,0-12.38-5.12-12.38-11.17,0-6.69,5.4-10.73,14.11-10.73h7.56v-.57c0-2.81-1.73-4.61-5.47-4.61-3.24,0-5.55,1.3-9,4.39L192,28.19c4.82-4.89,9.72-7.2,16.27-7.2,10.08,0,16.34,5.62,16.34,16ZM212.18,44.4h-5.83c-2.09,0-3.31,1-3.31,2.73s1.36,2.81,3.67,2.81c3.17,0,5.47-2,5.47-5.26Z"/><path class="cls-1" d="M232.05,21.86h12.38V42.09a5.23,5.23,0,1,0,10.45,0V21.86h12.38V41.08c0,10.59-7.42,17.65-17.57,17.65s-17.64-7.06-17.64-17.65Z"/><path class="cls-1" d="M301.43,50.49V60.86a30.64,30.64,0,0,1-7.27.87c-10.15,0-15.84-4.9-15.84-14.62V35.23h-5.47V24.86h5.47V16.22H290.7v8.64h9.65V35.23H290.7V45.88c0,3.46,1.66,4.76,6.2,4.76Z"/></svg>