<svg id="Layer_1" data-name="Layer 1" xmlns="http://www.w3.org/2000/svg" viewBox="0 0 930 223"><defs><style>.cls-1{fill:#4224fb;}.cls-2,.cls-3,.cls-4,.cls-5{fill:none;stroke:#4224fb;stroke-miterlimit:10;}.cls-2{stroke-width:2px;}.cls-4{stroke-width:3px;}.cls-5{stroke-width:0.5px;}</style></defs><title>logo-purple</title><path class="cls-1" d="M186,142.67H164.41V137c-5.09,4.82-11.7,7.3-19.82,7.3-15,0-23.67-9.77-23.67-21.33,0-12.8,10.33-20.51,27-20.51h14.45v-1.1c0-5.37-3.3-8.81-10.46-8.81-6.19,0-10.6,2.48-17.2,8.4l-11-15c9.22-9.35,18.58-13.76,31.1-13.76,19.27,0,31.24,10.74,31.24,30.55Zm-23.67-25.74H151.2c-4,0-6.33,1.93-6.33,5.23s2.62,5.37,7,5.37c6.05,0,10.46-3.86,10.46-10Z"/><path class="cls-1" d="M227.12,75.35H241V95.16h-13.9v49H203.45v-49h-9.64V75.35h9.64V67.23c0-18.31,10.73-27.94,28.9-27.94a34.54,34.54,0,0,1,11.42,1.65V60.76c-2.75-.14-4.54-.28-5.36-.28-8.12,0-11.29,2.62-11.29,9.09Z"/><path class="cls-1" d="M297.21,94.77h-5.64c-10.87,0-16.38,5-16.38,16.52v31.38H251.52V73.85h21.61v7.3a21.63,21.63,0,0,1,17.34-8.4,20.93,20.93,0,0,1,6.74,1.1Z"/><path class="cls-2" d="M335.12,93.32c25.14-.5,46.56,20.08,46.06,44.2.5,24.12-20.92,44.71-46.06,44.2-25.13.51-46.39-20.08-45.88-44.2C288.73,113.4,310,92.82,335.12,93.32Z"/><path class="cls-3" d="M335.29,120c-9.61,0-16.36,7.25-16.36,17.54,0,10.63,6.75,17.55,16.36,17.55,9.45,0,16.2-7.43,16.2-17.55S344.57,120,335.29,120Z"/><path class="cls-1" d="M335.29,120c-9.61,0-16.36,7.25-16.36,17.54,0,10.63,6.75,17.55,16.36,17.55,9.45,0,16.2-7.43,16.2-17.55S344.57,120,335.29,120Z"/><path class="cls-1" d="M452.71,143.67H429V104.72c0-6.06-4.12-10.19-10-10.19s-9.91,4.13-9.91,10.19v38.95H385.41V74.85H407V80.5c5.09-4.82,11.55-7.3,19.4-7.3,16,0,26.29,11,26.29,28.08Z"/><path class="cls-1" d="M529.08,143.67H507.47V138c-5.09,4.82-11.69,7.3-19.82,7.3-15,0-23.67-9.77-23.67-21.33,0-12.8,10.32-20.51,27-20.51h14.45v-1.1c0-5.37-3.31-8.81-10.46-8.81-6.19,0-10.6,2.48-17.2,8.4l-11-15C476,77.61,485.32,73.2,497.84,73.2c19.27,0,31.24,10.74,31.24,30.55Zm-23.67-25.74H494.26c-4,0-6.33,1.93-6.33,5.23s2.62,5.37,7,5.37c6.06,0,10.46-3.86,10.46-10Z"/><path class="cls-1" d="M543.38,74.85h23.68v38.68a10,10,0,1,0,20,0V74.85h23.67V111.6c0,20.23-14.17,33.72-33.58,33.72s-33.72-13.49-33.72-33.72Z"/><path class="cls-1" d="M676,123.58V143.4a59.11,59.11,0,0,1-13.9,1.65c-19.41,0-30.28-9.36-30.28-27.94V94.41H621.36V74.59h10.46V58.07h23.67V74.59h18.45V94.41H655.49v20.36c0,6.61,3.17,9.09,11.84,9.09Z"/><circle class="cls-1" cx="50.4" cy="145.31" r="7.3"/><circle class="cls-3" cx="50.4" cy="145.31" r="21.18"/><line class="cls-4" x1="57" y1="144.94" x2="887.75" y2="144.94"/><polyline class="cls-2" points="713.96 145.31 763.21 107.61 887.83 145.31"/><polyline class="cls-2" points="713.96 145.31 763.21 183 887.83 145.31"/><line class="cls-5" x1="763.21" y1="183" x2="763.21" y2="145.31"/><line class="cls-5" x1="782.36" y1="145.31" x2="782.36" y2="177.47"/><line class="cls-5" x1="806.74" y1="120.78" x2="806.74" y2="143.95"/><line class="cls-5" x1="822.78" y1="126.46" x2="822.78" y2="143.95"/><circle class="cls-1" cx="762.6" cy="137.64" r="2.43"/><circle class="cls-1" cx="762.6" cy="128.89" r="2.43"/><circle class="cls-1" cx="762.6" cy="120.78" r="2.43"/></svg>