<?xml version="1.0" encoding="utf-8"?>
<!-- Generator: Adobe Illustrator 23.0.1, SVG Export Plug-In . SVG Version: 6.00 Build 0)  -->
<svg version="1.1" id="Layer_1" xmlns="http://www.w3.org/2000/svg" xmlns:xlink="http://www.w3.org/1999/xlink" x="0px" y="0px"
	 viewBox="0 0 52.2 52.2" style="enable-background:new 0 0 52.2 52.2;" xml:space="preserve">
<style type="text/css">
	.st0{fill:none;stroke:#4224FB;stroke-width:0.75;stroke-linecap:round;stroke-linejoin:round;stroke-miterlimit:10;}
	.st1{fill:none;stroke:#4224FB;stroke-miterlimit:10;}
	.st2{fill:#4224FB;}
	.st3{fill:none;stroke:#4224FB;stroke-width:0.5;stroke-miterlimit:10;}
	.st4{fill:none;stroke:#4224FB;stroke-width:0.75;stroke-miterlimit:10;}
	
		.st5{fill:none;stroke:#4224FB;stroke-width:0.5;stroke-linecap:round;stroke-linejoin:round;stroke-miterlimit:10;stroke-dasharray:2,4;}
	.st6{fill:none;stroke:#1D1D1B;stroke-linecap:round;stroke-linejoin:round;stroke-miterlimit:10;}
	.st7{fill:none;stroke:#1D1D1B;stroke-width:2;stroke-linecap:round;stroke-linejoin:round;stroke-miterlimit:10;}
	.st8{fill:#1D1D1B;}
	.st9{fill:none;stroke:#1D1D1B;stroke-miterlimit:10;}
	.st10{fill:#0E0E0E;}
	.st11{fill:#FEFEFE;}
	.st12{stroke:#4224FB;stroke-width:0.5;stroke-miterlimit:10;}
	.st13{fill:#141414;}
	.st14{fill:none;stroke:#1D1D1B;stroke-width:2;stroke-linecap:round;stroke-miterlimit:10;}
</style>
<g>
	<path class="st0" d="M26.7,1.7c1.5,0,2.9,0,4,1.3c0.1,0.2,0.5,0.2,0.7,0.2c6.2,1.5,11,4.9,14.5,10.2c0.5,0.7,0.9,1.1,1.8,1.3
		c1.5,0.3,2.4,2.2,1.8,3.5c-0.5,1-0.6,2-0.3,3.1c0.5,2.3,0.7,4.6,0.4,7c-0.1,0.4,0,0.8,0.3,1.2c0.6,0.9,0,3.1-1,4
		c-0.3,0.2-0.5,0.5-0.6,0.8c-0.4,0.9-0.8,1.7-1.1,2.6c-0.4,1-1.1,1.8-1.2,3c-0.2,2.1-3,5.1-5.1,5.5c-0.8,0.2-1.6,0.3-2.3,0.9
		c-0.2,0.2-0.5,0.4-0.6,0.6c-0.5,0.8-1.3,1.3-2.3,1.1c-0.3-0.1-0.5,0-0.8,0.1c-1.9,0.7-3.8,1.2-5.8,1.5c-0.2,0-0.5,0-0.5,0.1
		c-0.6,1-1.6,0.8-2.5,0.8c-1.5-0.1-3.1,0-4.4-1.1c-0.5-0.4-1.3-0.4-2-0.5c-2.7-0.7-5.2-2-7.5-3.7c-0.3-0.2-0.5-0.4-0.9-0.5
		c-1.9-0.5-3.6-1.5-4.1-3.3c-0.9-3.1-3.1-5.6-3.7-8.8c-0.3-1.6-0.7-3.1-0.8-4.7c0-0.7-0.2-1.3-0.7-1.7c-0.5-0.5-0.7-1-0.5-1.8
		c0.3-1.3,0.4-2.7,0.6-4.1c0.1-0.6,0.3-1.1,0.9-1.2c0.6-0.1,0.9-0.6,1.1-1.1c0.5-1.4,1.2-2.7,1.9-4c0.3-0.4,0.6-0.8,0.6-1.4
		c0-0.4,0.2-0.7,0.5-0.8c1-0.4,1.5-1.3,2.3-2.1C13.1,6,17.3,3.8,22.3,3c0.5-0.1,1-0.2,1.4-0.7C24.1,1.8,24.9,1.7,26.7,1.7z
		 M43.9,41.9c-0.7,0.7-1.4,1.4-2.1,2c-0.1,0-0.2,0.1-0.3,0.1c0.1,0.2,0.3,0.1,0.4,0.1c0.8-0.5,1.6-1.2,2.1-2.1
		c0.1-0.1,0.2-0.2,0.1-0.3C44,41.6,43.9,41.8,43.9,41.9z M8.1,41.8c0.1,0.1,0.2,0.4,0.4,0.3c0.2-0.2,0-0.3-0.2-0.4
		c0-0.2-0.4-0.4-0.3-0.8c1.1,0.7,2,1.4,2.9,2.6c-1.1-0.2-1.5-1.1-2.3-1.2c0.6,0.9,1.4,1.5,2.4,1.9c0.2,0.1,0.4,0.1,0.5,0
		c0.2-0.2,0-0.4-0.1-0.6c-0.6-1.1-1.5-2-2.6-2.6c-0.4-0.3-1-0.8-1.4-0.4C7.2,40.9,7.8,41.4,8.1,41.8z M4,29.3c0.1,0.5,0,0.9,0.3,1.3
		c0.3,2.1,1.1,4,2,5.9c0.5,1,1,1.7,2.2,1.8c0.3,0,0.7,0.2,1,0.4c1.8,0.9,3.1,2.3,3.7,4.2c-1.3-1.9-2.8-3.5-5.3-4.1
		c0.2,0.5,0.5,0.8,0.9,1c1.4,0.7,2.5,1.8,3.2,3.2c0.2,0.4,0.5,0.8,0.9,1c5.3,3.8,11.1,5.2,17.5,4.1c16-2.9,23.7-21.2,14.8-34.7
		c-0.6-1-1.2-1.5-2.6-1.5c-2.2,0.1-3.2-1.3-2.6-3.4c0.1-0.5,0-0.6-0.3-0.8C33.3,2.8,23.2,2,16,6c0.4,0.1,0.7,0,1.1-0.1
		c1.4-0.2,2.9-0.5,4.3,0.3c0.5,0.3,0.6,0.5,0.4,1.1c-1.3,3-3.5,4.8-6.6,5.5c-0.8,0.2-1.6,0.2-2.4,0.1c-0.2,0-0.4,0.1-0.4-0.2
		c0-0.2,0.2-0.3,0.4-0.3c0.2,0,0.3,0,0.5,0.1c3.1,0.2,6.9-2.2,8-5.2c0.1-0.2,0.3-0.4,0-0.5c-0.3-0.1-0.4,0.1-0.5,0.3
		c-0.2,0.3-0.4,0.7-0.7,1c-2,2.4-4.2,4-7.5,3.6c-0.5-0.1-0.5,0.2-0.6,0.5c-0.2,0.4-0.1,0.9-0.8,1c0.5-1.3,0.3-2.6,0.6-3.9
		c0-0.1,0-0.1,0.1-0.2c-0.1,0-0.2,0-0.2,0c-1.8,1.5-3.3,3.4-4.5,5.4C4.2,19.1,3.4,24,4,29.3z M20.2,6.4c-2.6-0.3-5,0.2-6.9,1.9
		c-0.5,0.5-1,1-0.6,1.8c0.4,0.8,1.1,0.9,1.8,0.8C17.2,10.4,19,8.9,20.2,6.4z M43.7,11.5c-0.5-0.5-0.7-1.2-1.4-1.2
		c-1,0.1-1.5-0.1-1.3-1.3c0.1-0.3-0.2-0.4-0.3-0.5c-0.3-0.1-0.3,0.2-0.4,0.4c-0.3,0.9,0.1,1.8,0.9,2.3C42,11.7,42.7,11.6,43.7,11.5z
		 M3.5,19.6c-0.7,0.2-0.8,0.2-0.9,0.5c-0.2,1.5-0.7,3.1-0.1,4.6C2.8,23,3.1,21.3,3.5,19.6z M47.2,15.5c0.4,1,0.8,1.9,1.2,2.9
		c0,0.1,0.1,0.2,0.1,0.2c0.9-0.8,0.5-1.6,0.1-2.4C48.4,15.6,47.8,15.6,47.2,15.5z M29.7,2.9c-1.3-0.9-4.5-1-5.5-0.2
		C26,2.6,27.8,2.7,29.7,2.9z"/>
	<path class="st0" d="M4,29.3c0.4,0.1,0.3-0.2,0.4-0.4c0.3-0.6,0.8-0.7,1.4-0.5c0.6,0.2,0.8,0.5,0.7,1.5c-0.3-0.7-0.5-1.2-1.2-1
		c-0.7,0.1-0.8,0.7-0.8,1.3c0,0.2,0.1,0.4-0.1,0.5C4,30.3,4.1,29.8,4,29.3z"/>
	<path class="st0" d="M38.8,38.6c-2.1,0.1-4-1-5.4-2.8c-1.8-2.2-1.2-5.6,1.3-7c3.3-2,7.8-0.4,8.7,3.1c0.5,2,0.1,3.8-1.1,5.5
		C41.5,38.4,40.3,38.6,38.8,38.6z M38.6,37.7c1.6,0,2.9-0.4,3.7-1.9c1.7-3.4,0.3-6.3-3.2-7.1c-0.8-0.2-1.7-0.2-2.5-0.1
		c-2.6,0.4-4.9,3.4-2.9,6.4C34.9,36.9,36.5,37.7,38.6,37.7z"/>
	<path class="st0" d="M13,27.1c1.4,0,2.1,0.6,2.2,1.7c0,1.2-0.7,1.9-2,1.9c-1.4,0-2.3-0.7-2.3-1.9C10.8,27.7,11.6,27.1,13,27.1z"/>
	<path class="st0" d="M33.6,45.3c-1.1,1.4-4,1.4-5.4,0.8c-0.6-0.3-0.8-0.8-0.6-1.5c0.2-0.6,0.5-1,1-1.3c1.2-0.7,2.5-0.7,3.8-0.2
		c0.2,0.1,0.4,0.2,0.4,0.5c-0.6,0.1-1.1-0.2-1.7-0.2c-0.7,0.1-1.3,0.2-1.9,0.7c-0.3,0.2-0.6,0.6-0.5,1c0.1,0.4,0.5,0.5,0.9,0.6
		c1.2,0.3,2.3,0.1,3.4-0.4C33.1,45.4,33.3,45,33.6,45.3L33.6,45.3z"/>
	<path class="st0" d="M18.8,15.6c2.1,0,3,0.8,2.9,2.2c-0.1,1.2-1,2-2.1,1.9c-1.4-0.1-2.1-1.3-1.8-3c0.2,0.5,0.3,1,0.6,1.5
		c0.4,0.8,1.2,1.1,1.9,0.6c0.6-0.4,0.7-1.5,0.2-2.1c-0.2-0.2-0.5-0.4-0.7-0.6C19.5,15.8,19.2,15.8,18.8,15.6z"/>
	<path class="st0" d="M10.9,26.4c1-0.3,2-0.7,3.2,0c-2.1-0.1-4,0.1-3.8,2.8c0.1,1.5,1.1,1.9,4,2c-1,0.7-2.5,0.6-3.5-0.1
		c-0.9-0.7-1.2-1.9-0.9-3c0.1-0.3,0.2-0.6,0.3-1l0,0C10.5,27,10.8,26.8,10.9,26.4L10.9,26.4z"/>
	<path class="st0" d="M25.8,39.4c-0.9-0.7-0.9-1.5-0.6-2.3c0.3-1,1.4-1.6,2.6-1.6c1,0,2.3,0.4,2.7,2c-1-1.2-2.1-1.8-3.4-1.2
		C25.7,36.8,25.8,38.1,25.8,39.4z"/>
	<path class="st0" d="M21.3,45.6c-0.7-1-1.3-1.2-3.2-1.4c2.4-0.8,4.3,0.4,4.3,2.7c-0.7-0.2-1.2-0.7-1.9-1c-0.6-0.3-1.2-0.6-1.9-1
		C19.6,44.9,20.3,45.3,21.3,45.6z M21.3,45.6c0,0,0-0.1-0.1-0.1c0,0-0.1,0-0.1,0.1C21.2,45.6,21.2,45.6,21.3,45.6
		C21.3,45.6,21.3,45.6,21.3,45.6z"/>
	<path class="st0" d="M35.3,20.2c-2.4-2.8-2.8-2.9-6.8-1.5c0.7-1.3,2.7-1.8,4.6-1.2C34.5,18,35.5,19.1,35.3,20.2z"/>
	<path class="st0" d="M32.1,5.9c1.2,0,2.1,0.5,2.2,1.3c0,0.8-0.8,1.6-1.8,1.6c-1.3,0-2.1-0.6-2.1-1.6C30.3,6.4,30.9,5.9,32.1,5.9z
		 M32.3,6.3c-0.8,0-1.5,0.1-1.5,1c0,0.7,0.6,1.1,1.5,1.1c0.8,0,1.5-0.5,1.5-1.1C33.8,6.7,33.1,6.3,32.3,6.3z"/>
	<path class="st0" d="M33.6,24.6c-1.4,0.9-2.9,0.8-4.4,0.1c-1.2-0.6-1.6-1.6-1.5-3.5c0.3,1.5,0.9,2.6,2.2,3.2
		C31.1,24.9,32.4,24.8,33.6,24.6z"/>
	<path class="st0" d="M19.1,38.7c0,1-0.6,1.6-1.5,1.5c-0.9,0-1.5-0.8-1.5-1.6c0-0.8,0.8-1.4,1.7-1.3C18.7,37.4,19.2,37.8,19.1,38.7z
		 M18.7,38.8c-0.1-0.7-0.4-1.1-1.1-1.1c-0.6,0-1.1,0.3-1.1,1c0,0.6,0.6,1.2,1.2,1.2C18.4,39.9,18.7,39.4,18.7,38.8z"/>
	<path class="st0" d="M7.4,19c0.5,0.4,1,1,1.7,0.4c0.5-0.5,0.7-1.1,0.5-1.8c-0.4-0.9-1.1-0.3-1.8-0.2c0.5-0.7,0.9-1.1,1.7-0.8
		c0.7,0.3,0.7,0.9,0.7,1.6C10,19,9.7,19.7,8.8,19.9C8,20.1,7.6,19.6,7.4,19z"/>
	<path class="st0" d="M15,16.2c1,0.8,1.2,2.4,0.5,3.7c-0.7,1.1-1.9,1.5-3.4,0.9C15.5,20.3,15.6,20.1,15,16.2z"/>
	<path class="st0" d="M14.4,32.2c-1.7,1.5-4.6,0.7-5.1-1.5c1.4,1.6,3,2.2,5,1.4C14.4,32.1,14.4,32.2,14.4,32.2z"/>
	<path class="st0" d="M25.6,28.7c0.8,0,1.7,0.8,1.7,1.5c0,0.7-0.4,1.1-1.2,1.2c-0.9,0-1.6-0.6-1.6-1.5
		C24.5,29.2,24.9,28.7,25.6,28.7z M26.1,31.1c0.5,0,0.8-0.3,0.8-0.8c0-0.5-0.9-1.3-1.4-1.2c-0.5,0.1-0.7,0.4-0.7,0.9
		C24.9,30.7,25.4,31,26.1,31.1z"/>
	<path class="st0" d="M32.7,21.9c0.6-0.3,1-0.5,1-1c0-0.4-0.3-0.6-0.7-0.7c-0.8-0.1-1.1,0.5-1.4,1.1c-0.1-1.1,0.3-1.6,1.2-1.6
		c0.8,0,1.4,0.4,1.4,1.2C34.2,21.6,33.8,21.9,32.7,21.9z"/>
	<path class="st0" d="M10.2,27.1c-0.2,0-0.5,0.1-0.7,0.1c0.4-1.9,2.4-2.8,3.9-1.7c-0.8,0-1.5-0.1-2.2,0.2c-0.3,0.2-0.3,0.2-0.3,0.6
		c0,0,0,0,0,0C10.3,26.3,10.1,26.5,10.2,27.1L10.2,27.1z"/>
	<path class="st0" d="M31,47.3c-2.1,1-4,0.3-4.4-1.4C27.7,47.4,29.2,47.5,31,47.3z"/>
	<path class="st0" d="M39.1,16.7c-0.5,0-0.7-0.3-0.7-0.7c0-0.4,0.2-0.8,0.7-0.8c0.5,0,0.7,0.3,0.7,0.8
		C39.8,16.5,39.6,16.7,39.1,16.7z"/>
	<path class="st0" d="M42.4,24.8c-1.6,0-2.3-1.1-1.8-2.7C40.5,23.5,41,24.5,42.4,24.8z"/>
	<path class="st0" d="M47.4,19.5c-1.3-0.4-1.4-0.3-1.2,1.3c-0.6-0.5-0.8-1.1-0.2-1.7C46.4,18.6,46.9,18.8,47.4,19.5z"/>
	<path class="st0" d="M33.6,45.3c-0.1,0-0.2,0-0.1-0.1c0,0,0,0,0.1,0C33.6,45.2,33.6,45.3,33.6,45.3C33.6,45.3,33.6,45.3,33.6,45.3z
		"/>
	<path class="st0" d="M14.3,32.1c0.1-0.1,0.2-0.2,0.3,0c0,0-0.1,0.1-0.2,0.1C14.4,32.2,14.4,32.1,14.3,32.1z"/>
	<path class="st0" d="M19.3,6.7c-1.1,1.6-2.2,2.7-3.9,3.1C15,9.9,14.6,10,14.2,9.9c-0.6-0.1-0.8-0.5-0.5-1c0.1-0.3,0.3-0.5,0.6-0.7
		C15.7,7.2,17.3,6.8,19.3,6.7z"/>
	<path class="st0" d="M41.9,34.3c0-0.7,0.1-1.4-0.2-2c-0.3-0.7-0.6-1.2-1.4-1.4c-0.7-0.1-1.2,0.3-1.5,0.9c-0.6,0.9-1.4,1.6-2.3,2.2
		c-0.4,0.3-0.7,0.7-1,1.1c-1.1-1.3-1.1-3.4,0.1-4.6c1.4-1.5,3.9-1.6,5.5-0.4C42.4,31.1,42.8,33,41.9,34.3z"/>
	<path class="st0" d="M18.3,38.9c0,0.4-0.3,0.6-0.7,0.6c-0.3,0-0.6-0.2-0.6-0.6c0-0.4,0.3-0.6,0.6-0.6
		C18.1,38.2,18.3,38.4,18.3,38.9z"/>
</g>
<g>
	<path class="st1" d="M-37.4-7.8c-1.7-1.1-3.2-2.6-4.3-4.5c-3.9-6.6-1.8-15.1,4.9-19.1c6.4-3.8,14.7-1.9,18.7,4.3"/>
	<path class="st1" d="M-16.3-22.8c1.5,5.8-1,12.1-6.4,15.3c-3.3,2-7.1,2.4-10.6,1.5"/>
	<circle class="st2" cx="-29.8" cy="-19.4" r="1.7"/>
	<line class="st3" x1="-42.3" y1="-26" x2="-49.9" y2="-30.7"/>
	<line class="st3" x1="-29.8" y1="-33.5" x2="-30.3" y2="-42.7"/>
	<circle class="st4" cx="-30.4" cy="-43.8" r="1.4"/>
	<path class="st4" d="M-50-32.2c-0.4-0.7-1.3-0.9-2-0.5c-0.7,0.4-0.9,1.3-0.5,2c0.4,0.7,1.3,0.9,2,0.5C-49.8-30.6-49.6-31.5-50-32.2
		z"/>
	<path class="st0" d="M-21.7-30.9c3.1-2.1,5.4-3.1,6.1-2.4c1.4,1.4-3.8,8.9-11.7,16.8C-35.1-8.7-42.6-3.5-44.1-5
		c-0.8-0.8,0.3-3.2,2.7-6.5"/>
	<path class="st5" d="M-23.8-32.1c5.7-4.2,10.3-6.2,11.7-4.7c2.3,2.3-3.9,12.1-13.7,21.8C-35.6-5.2-45.4,0.8-47.7-1.4
		c-1.5-1.5,0.7-6.3,5.2-12.2"/>
	<path class="st0" d="M-26-32.9c8.4-6.7,15.6-10,17.7-7.8c2.2,2.2-1.3,9.5-8.1,17.9c-2.4,2.9-5.1,6-8.2,9
		c-12,11.9-24.1,19.1-27,16.1c-2.2-2.2,1.3-9.5,8.2-18"/>
</g>
<ellipse transform="matrix(0.8385 -0.545 0.545 0.8385 -20.0855 61.751)" class="st6" cx="94.1" cy="64.8" rx="5.3" ry="5.3"/>
<path class="st7" d="M94.1,68c-1.8,0-3.3-1.5-3.3-3.3c0-1.8,1.5-3.3,3.3-3.3c1.8,0,3.3,1.5,3.3,3.3C97.4,66.6,95.9,68,94.1,68z"/>
<path class="st6" d="M80.5,65.6c-0.4,0-0.8-0.4-0.8-0.8c0-0.4,0.4-0.8,0.8-0.8c0.4,0,0.8,0.4,0.8,0.8C81.3,65.2,80.9,65.6,80.5,65.6
	z"/>
<path class="st8" d="M82.3,31.3c-0.4,0-0.8-0.4-0.8-0.8s0.4-0.8,0.8-0.8c0.4,0,0.8,0.4,0.8,0.8S82.8,31.3,82.3,31.3z"/>
<path class="st8" d="M105.7,31.3c-0.4,0-0.8-0.4-0.8-0.8s0.4-0.8,0.8-0.8c0.4,0,0.8,0.4,0.8,0.8S106.1,31.3,105.7,31.3z"/>
<path class="st8" d="M89,23.4c-0.4,0-0.8-0.4-0.8-0.8c0-0.4,0.4-0.8,0.8-0.8c0.4,0,0.8,0.4,0.8,0.8C89.8,23,89.4,23.4,89,23.4z"/>
<path class="st8" d="M99.1,23.4c-0.4,0-0.8-0.4-0.8-0.8c0-0.4,0.4-0.8,0.8-0.8s0.8,0.4,0.8,0.8C99.9,23,99.5,23.4,99.1,23.4z"/>
<path class="st8" d="M94.1,54.8c-0.3,0-0.6-0.3-0.6-0.6s0.2-0.6,0.6-0.6c0.3,0,0.6,0.3,0.6,0.6S94.4,54.8,94.1,54.8z"/>
<line class="st9" x1="94.1" y1="59.7" x2="94.1" y2="69.9"/>
<line class="st9" x1="88.9" y1="64.8" x2="85.5" y2="64.8"/>
<line class="st9" x1="102.8" y1="64.8" x2="99.4" y2="64.8"/>
<polyline class="st9" points="83.4,61.8 85.6,64.7 83.4,67.6 "/>
<polygon class="st9" points="80.6,68.4 77.8,64.7 80.6,61.1 83.3,64.7 "/>
<path class="st6" d="M107.9,63.9c0.4,0,0.8,0.4,0.8,0.8c0,0.4-0.4,0.8-0.8,0.8c-0.4,0-0.8-0.4-0.8-0.8
	C107.1,64.3,107.4,63.9,107.9,63.9z"/>
<polyline class="st9" points="105,67.6 102.8,64.7 105,61.8 "/>
<polygon class="st9" points="107.8,61.1 110.5,64.7 107.8,68.4 105,64.7 "/>
<polyline class="st6" points="105.5,31.3 94.1,53.8 82.6,31.3 "/>
<polyline class="st6" points="99,23.2 94.1,53.8 89.1,23.2 "/>
<path class="st10" d="M328-90.4c0,5.7,0,11.4,0,17.2c0,1.7,0.1,3.4,0,5c-0.1,1,0.8,2.8-0.8,2.9c-1.8,0.1-0.9-1.8-0.9-2.7
	c-0.1-6.5,0-13,0-19.6c0-0.9,0-1.8-0.6-2.9c-2,3.9-4,7.9-6.1,11.8c-1.2,2.2-2.4,4.4-3.4,6.7c-0.8,1.9-1.7,1.9-3.3,1
	c-1.6-0.8-2.1-1.4-1.1-3.3c3.8-7,7.2-14.2,11-21.3c1.3-2.4,1.6-4.3,0-6.6c-1-1.5-1.8-3.3-2.9-5.3c-3.1,6.1-6.1,11.9-9,17.7
	c-3,5.9-6.1,11.8-9,17.7c-0.8,1.7-1.5,2.1-3.3,1.2c-1.5-0.8-2.3-1.2-1.3-3.2c7.4-14.2,14.6-28.4,21.8-42.6c0.2-0.4,0.4-0.7,0.8-1.2
	c1.9,3.7,3.7,7.1,5.5,10.6c0.2,0,0.5-0.1,0.7-0.1c0-4.1,0-8.2,0-12.4c0-0.8-0.6-2.3,0.8-2.3c1.7,0,0.9,1.6,0.9,2.4
	c0.1,4.2,0,8.4,0.6,12.8c1.8-3.5,3.7-7.1,5.5-10.6c1.2-0.1,1.1,0.9,1.4,1.5c7.1,13.8,14.1,27.7,21.2,41.5c0.8,1.5,1.4,2.5-0.8,3.6
	c-2.2,1.1-2.7,0.3-3.7-1.5c-5.8-11.5-11.7-23-17.9-35c-1.5,3-2.8,5.4-4,7.9c-0.6,1.2,0.3,2,0.7,2.9c3.8,7.4,7.5,14.8,11.3,22.2
	c0.9,1.6,1.2,2.6-0.9,3.6c-1.9,0.9-2.6,0.5-3.5-1.3c-3-6.2-6.2-12.2-9.4-18.3C328.4-90.5,328.2-90.5,328-90.4z"/>
<path class="st10" d="M-172.8,217c0.1-3.7,0.9-6.7,2.9-9.3c0.9-1.2,0.7-1.8-0.3-2.7c-1.9-1.7-3.6-3.5-5.4-5.3
	c-0.3-0.3-0.9-0.6-0.3-1.1c0.6-0.5,0.8,0.1,1.1,0.4c1.9,1.9,3.9,3.8,5.8,5.8c0.6,0.6,0.9,0.8,1.7,0.1c6.4-5.2,14.6-4.9,20.3,0.5
	c5.7,5.3,6.5,14.3,1.8,20.7c-0.8,1.1-1,1.7,0.2,2.7c1.8,1.6,3.4,3.3,5.1,5.1c0.3,0.3,1.1,0.6,0.6,1.2c-0.7,0.7-1-0.2-1.4-0.5
	c-1.8-1.8-3.6-3.5-5.4-5.4c-0.6-0.6-1-0.8-1.9-0.2c-5,3.9-10.5,4.6-16.1,1.9C-169.9,228-172.5,223-172.8,217z M-145.2,216.6
	c0-4.8-2.7-9.2-7-11.3c-4.4-2.1-8.6-1.6-12.6,1.3c-0.9,0.6-1.2,1.1-0.2,2.1c5.2,5.1,10.4,10.3,15.6,15.5c0.8,0.8,1.2,1,1.9-0.1
	C-146.1,221.8-145.2,219.3-145.2,216.6z M-169.7,216.9c-0.1,1.6,0.4,3.2,1,4.7c3,7.4,12.2,10,18.4,5.3c0.7-0.6,1.1-0.9,0.3-1.8
	c-5.3-5.2-10.5-10.4-15.7-15.6c-1-1-1.4-0.7-2,0.3C-169.1,212-169.7,214.4-169.7,216.9z"/>
<path class="st10" d="M289.7-68.7c-1.7-3.3-3.3-6.5-4.9-9.6c-0.2,0-0.5,0-0.7,0.1c0,3.5,0.1,6.9,0,10.4c0,0.9,0.7,2.5-1,2.4
	c-1.3-0.1-0.6-1.6-0.7-2.4c-0.1-3.4,0-6.9-0.6-10.6c-1.7,3.2-3.4,6.5-5.3,10.1c-4-7.8-7.9-15.4-11.7-22.9c-4-7.8-7.9-15.6-12-23.3
	c-1-1.9-0.2-2.3,1.3-3.2c1.7-1,2.4-0.7,3.3,1.1c6.2,12.4,12.6,24.7,19,37.2c1.6-1.7,1.8-4.2,3.3-5.6c3.5-3.4,2.7-7.5,2.7-11.6
	c0-7.8,0-15.6,0-23.4c0-0.9-0.8-2.5,0.8-2.6c1.6-0.1,0.9,1.6,0.9,2.5c0.1,9.5,0,18.9,0,28.4c0,1.7-0.1,3.1,1.6,4.7
	c1.9,1.8,2.7,4.8,4.2,7.8c3.5-6.8,6.7-13.1,10-19.4c3.1-6.1,6.3-12.1,9.3-18.3c0.8-1.6,1.4-2,3-1.1c1.4,0.8,2.6,1.2,1.4,3.4
	c-7.8,15-15.4,30.1-23.1,45.1C290.3-69,290.1-69,289.7-68.7z"/>
<path class="st11" d="M-145.2,216.6c0,2.7-0.8,5.2-2.4,7.5c-0.7,1.1-1.1,0.9-1.9,0.1c-5.2-5.2-10.3-10.4-15.6-15.5
	c-1-1-0.7-1.4,0.2-2.1c4-2.9,8.2-3.4,12.6-1.3C-147.9,207.4-145.2,211.8-145.2,216.6z"/>
<path class="st11" d="M-169.7,216.9c0-2.6,0.6-5,2-7.2c0.6-1,1-1.3,2-0.3c5.2,5.2,10.4,10.5,15.7,15.6c0.9,0.9,0.5,1.2-0.3,1.8
	c-6.2,4.7-15.5,2.1-18.4-5.3C-169.3,220.1-169.8,218.6-169.7,216.9z"/>
<path class="st2" d="M-92.7,119c0.1-4.6,1.1-8.5,3.7-11.8c1.2-1.6,0.8-2.3-0.4-3.5c-2.3-2.2-4.6-4.5-6.8-6.8
	c-0.4-0.4-1.1-0.7-0.4-1.4c0.7-0.7,1,0.1,1.4,0.5c2.5,2.4,4.9,4.8,7.3,7.3c0.8,0.8,1.2,0.9,2.2,0.1c8.1-6.5,18.4-6.3,25.7,0.6
	c7.2,6.7,8.2,18.1,2.3,26.2c-1,1.4-1.2,2.2,0.2,3.4c2.3,2,4.3,4.2,6.4,6.4c0.4,0.4,1.4,0.8,0.7,1.6c-0.8,0.9-1.3-0.2-1.8-0.7
	c-2.3-2.2-4.6-4.5-6.8-6.8c-0.8-0.8-1.3-1.1-2.4-0.2c-6.3,4.9-13.2,5.8-20.4,2.4C-89,132.9-92.4,126.6-92.7,119z M-57.8,118.5
	c0-6.1-3.4-11.7-8.8-14.2c-5.6-2.6-10.9-2-15.9,1.6c-1.1,0.8-1.6,1.4-0.3,2.6c6.6,6.5,13.2,13,19.7,19.6c1,1,1.5,1.2,2.4-0.1
	C-58.9,125.1-57.8,122-57.8,118.5z M-88.8,118.9c-0.1,2.1,0.5,4,1.2,5.9c3.7,9.3,15.4,12.6,23.3,6.7c0.9-0.7,1.4-1.2,0.3-2.3
	c-6.6-6.5-13.3-13.1-19.8-19.8c-1.2-1.2-1.7-0.9-2.5,0.4C-88,112.7-88.8,115.7-88.8,118.9z"/>
<path class="st11" d="M-25.7,52c0,2.7-0.8,5.2-2.4,7.5c-0.7,1.1-1.1,0.9-1.9,0.1c-5.2-5.2-10.3-10.4-15.6-15.5c-1-1-0.7-1.4,0.2-2.1
	c4-2.9,8.2-3.4,12.6-1.3C-28.3,42.8-25.7,47.2-25.7,52z"/>
<path class="st11" d="M-50.1,52.4c0-2.6,0.6-5,2-7.2c0.6-1,1-1.3,2-0.3c5.2,5.2,10.4,10.5,15.7,15.6c0.9,0.9,0.5,1.2-0.3,1.8
	C-37,67-46.2,64.4-49.2,57C-49.8,55.5-50.2,54-50.1,52.4z"/>
<path class="st10" d="M280-70.4c0,5.7,0,11.4,0,17.2c0,1.7,0.1,3.4,0,5c-0.1,1,0.8,2.8-0.8,2.9c-1.8,0.1-0.9-1.8-0.9-2.7
	c-0.1-6.5,0-13,0-19.6c0-0.9,0-1.8-0.6-2.9c-2,3.9-4,7.9-6.1,11.8c-1.2,2.2-2.4,4.4-3.4,6.7c-0.8,1.9-1.7,1.9-3.3,1
	c-1.6-0.8-2.1-1.4-1.1-3.3c3.8-7,7.2-14.2,11-21.3c1.3-2.4,1.6-4.3,0-6.6c-1-1.5-1.8-3.3-2.9-5.3c-3.1,6.1-6.1,11.9-9,17.7
	c-3,5.9-6.1,11.8-9,17.7c-0.8,1.7-1.5,2.1-3.3,1.2c-1.5-0.8-2.3-1.2-1.3-3.2c7.4-14.2,14.6-28.4,21.8-42.6c0.2-0.4,0.4-0.7,0.8-1.2
	c1.9,3.7,3.7,7.1,5.5,10.6c0.2,0,0.5-0.1,0.7-0.1c0-4.1,0-8.2,0-12.4c0-0.8-0.6-2.3,0.8-2.3c1.7,0,0.9,1.6,0.9,2.4
	c0.1,4.2,0,8.4,0.6,12.8c1.8-3.5,3.7-7.1,5.5-10.6c1.2-0.1,1.1,0.9,1.4,1.5c7.1,13.8,14.1,27.7,21.2,41.5c0.8,1.5,1.4,2.5-0.8,3.6
	c-2.2,1.1-2.7,0.3-3.7-1.5c-5.8-11.5-11.7-23-17.9-35c-1.5,3-2.8,5.4-4,7.9c-0.6,1.2,0.3,2,0.7,2.9c3.8,7.4,7.5,14.8,11.3,22.2
	c0.9,1.6,1.2,2.6-0.9,3.6c-1.9,0.9-2.6,0.5-3.5-1.3c-3-6.2-6.2-12.2-9.4-18.3C280.4-70.5,280.2-70.5,280-70.4z"/>
<path class="st10" d="M-220.8,237c0.1-3.7,0.9-6.7,2.9-9.3c0.9-1.2,0.7-1.8-0.3-2.7c-1.9-1.7-3.6-3.5-5.4-5.3
	c-0.3-0.3-0.9-0.6-0.3-1.1c0.6-0.5,0.8,0.1,1.1,0.4c1.9,1.9,3.9,3.8,5.8,5.8c0.6,0.6,0.9,0.8,1.7,0.1c6.4-5.2,14.6-4.9,20.3,0.5
	c5.7,5.3,6.5,14.3,1.8,20.7c-0.8,1.1-1,1.7,0.2,2.7c1.8,1.6,3.4,3.3,5.1,5.1c0.3,0.3,1.1,0.6,0.6,1.2c-0.7,0.7-1-0.2-1.4-0.5
	c-1.8-1.8-3.6-3.5-5.4-5.4c-0.6-0.6-1-0.8-1.9-0.2c-5,3.9-10.5,4.6-16.1,1.9C-217.9,248-220.5,243-220.8,237z M-193.2,236.6
	c0-4.8-2.7-9.2-7-11.3c-4.4-2.1-8.6-1.6-12.6,1.3c-0.9,0.6-1.2,1.1-0.2,2.1c5.2,5.1,10.4,10.3,15.6,15.5c0.8,0.8,1.2,1,1.9-0.1
	C-194.1,241.8-193.2,239.3-193.2,236.6z M-217.7,236.9c-0.1,1.6,0.4,3.2,1,4.7c3,7.4,12.2,10,18.4,5.3c0.7-0.6,1.1-0.9,0.3-1.8
	c-5.3-5.2-10.5-10.4-15.7-15.6c-1-1-1.4-0.7-2,0.3C-217.1,232-217.7,234.4-217.7,236.9z"/>
<path class="st10" d="M241.7-48.7c-1.7-3.3-3.3-6.5-4.9-9.6c-0.2,0-0.5,0-0.7,0.1c0,3.5,0.1,6.9,0,10.4c0,0.9,0.7,2.5-1,2.4
	c-1.3-0.1-0.6-1.6-0.7-2.4c-0.1-3.4,0-6.9-0.6-10.6c-1.7,3.2-3.4,6.5-5.3,10.1c-4-7.8-7.9-15.4-11.7-22.9c-4-7.8-7.9-15.6-12-23.3
	c-1-1.9-0.2-2.3,1.3-3.2c1.7-1,2.4-0.7,3.3,1.1c6.2,12.4,12.6,24.7,19,37.2c1.6-1.7,1.8-4.2,3.3-5.6c3.5-3.4,2.7-7.5,2.7-11.6
	c0-7.8,0-15.6,0-23.4c0-0.9-0.8-2.5,0.8-2.6c1.6-0.1,0.9,1.6,0.9,2.5c0.1,9.5,0,18.9,0,28.4c0,1.7-0.1,3.1,1.6,4.7
	c1.9,1.8,2.7,4.8,4.2,7.8c3.5-6.8,6.7-13.1,10-19.4c3.1-6.1,6.3-12.1,9.3-18.3c0.8-1.6,1.4-2,3-1.1c1.4,0.8,2.6,1.2,1.4,3.4
	c-7.8,15-15.4,30.1-23.1,45.1C242.3-49,242.1-49,241.7-48.7z"/>
<path class="st11" d="M-193.2,236.6c0,2.7-0.8,5.2-2.4,7.5c-0.7,1.1-1.1,0.9-1.9,0.1c-5.2-5.2-10.3-10.4-15.6-15.5
	c-1-1-0.7-1.4,0.2-2.1c4-2.9,8.2-3.4,12.6-1.3C-195.9,227.4-193.2,231.8-193.2,236.6z"/>
<path class="st11" d="M-217.7,236.9c0-2.6,0.6-5,2-7.2c0.6-1,1-1.3,2-0.3c5.2,5.2,10.4,10.5,15.7,15.6c0.9,0.9,0.5,1.2-0.3,1.8
	c-6.2,4.7-15.5,2.1-18.4-5.3C-217.3,240.1-217.8,238.6-217.7,236.9z"/>
<g>
	<polygon points="127.8,226.1 129.6,225 102.2,180 93.3,194.7 84,179.5 56.6,224.5 60.1,226.6 84,187.4 90.8,198.6 74.8,225 
		76.5,226.1 92,200.6 107.9,226.6 111.4,224.5 94.5,196.7 102.2,184 	"/>
</g>
<g>
	<polygon points="87.3,182.7 83.8,180.5 59.2,220.8 52.4,209.6 69.1,182.1 67.3,181.1 51.1,207.6 34.6,180.5 31.1,182.7 48.7,211.6 
		41.1,224.1 14.8,181.1 13.1,182.1 41.1,228.1 49.9,213.6 59.2,228.8 	"/>
</g>
<line class="st12" x1="93.2" y1="171.1" x2="93.2" y2="234.1"/>
<line class="st12" x1="51.3" y1="171.1" x2="51.3" y2="234.1"/>
<path class="st10" d="M-335.8,353.7c0,1.6,0,2.9,0,4.3c0,0.4,0.2,1-0.5,1.1c-0.7,0.1-0.6-0.6-0.6-1c0-3.4-0.5-6.9-0.7-10.3
	c-0.2-3.7,0.3-7.5-0.7-11.3c-0.2-0.7-0.1-1.7,0.2-2.4c1.4-3.2,1.1-6.5,1.1-9.8c0-0.5-0.3-1.4,0.5-1.5c0.9,0,0.5,0.9,0.5,1.4
	c0.1,1.5,0,3,0,4.4c0.6,0.2,0.8-0.2,1-0.4c3.9-3.4,9-3.8,13.1-1.1c4.1,2.7,5.8,7.8,4.2,12.7c-0.3,0.9-0.3,1.6,0.1,2.4
	c2.2,5.2,0.7,10.8-3.8,13.8c-4.5,3-9.7,2.2-13.9-2C-335.2,354.1-335.4,354-335.8,353.7z M-320,344.4c-4.9,3.5-8.8,4-13,1.4
	c-1.5-0.9-1.6-0.3-1.6,0.9c-0.1,3.1,1.6,6,4.4,7.4c2.7,1.3,5.9,0.9,8.2-1.2C-319.7,350.9-318.9,347.6-320,344.4z M-320.3,338.5
	c0.8-3.7-0.5-7-3.4-8.8c-2.8-1.7-6.4-1.3-8.9,0.9c-2.4,2.2-3.2,5.6-1.9,8.5C-330,335.4-325.3,335.1-320.3,338.5z M-327.1,339.2
	c-0.1,0-0.5,0-0.8,0.1c-1.9,0.3-3.6,1-4.6,2.7c-0.4,0.6,2.7,2.2,4.7,2.3c0.5,0,0.9,0,1.4-0.1c1.9-0.3,3.6-1,4.6-2.7
	C-321.6,340.8-325.2,339.3-327.1,339.2z"/>
<path class="st10" d="M-328,548.7c-3.8,0-6.8-0.9-9.4-3c-1.2-1-1.8-0.7-2.7,0.3c-1.8,1.9-3.6,3.7-5.5,5.5c-0.3,0.3-0.5,1-1.1,0.5
	c-0.7-0.6,0-0.9,0.3-1.2c1.9-1.9,3.7-3.8,5.7-5.6c0.9-0.9,0.9-1.3,0.1-2.4c-6.2-8.1-3.4-19.8,5.9-23.9c5.6-2.5,11.1-1.7,15.9,2.2
	c1,0.8,1.5,0.9,2.3-0.1c1.6-1.8,3.4-3.4,5.1-5.1c0.3-0.3,0.6-1.1,1.2-0.4c0.6,0.7-0.3,0.9-0.6,1.2c-1.6,1.7-3.2,3.4-5,4.9
	c-1.1,1-1,1.6-0.2,2.7c6.4,9.6,0.9,22.2-10.3,24.2C-326.9,548.6-327.7,548.6-328,548.7z M-328.8,520.4c-4.6,0.3-8.4,2.5-10.6,7.1
	c-2.2,4.6-1.6,9,1.3,13.2c0.6,0.8,0.9,0.9,1.7,0.1c5.3-5.3,10.5-10.5,15.9-15.8c0.8-0.8,0.6-1.2-0.1-1.8
	C-323,521.4-325.6,520.5-328.8,520.4z M-336.3,542.6c3.9,3.6,9.9,4,14.4,1c4.9-3.3,6.9-9.3,4.9-14.9c-1.4-4-1.7-4.1-4.6-1.2
	C-326.5,532.5-331.4,537.6-336.3,542.6z"/>
<path class="st10" d="M-195.1,533.1c0.1-3.7,0.9-6.7,2.9-9.3c0.9-1.2,0.7-1.8-0.3-2.7c-1.9-1.7-3.6-3.5-5.4-5.3
	c-0.3-0.3-0.9-0.6-0.3-1.1c0.6-0.5,0.8,0.1,1.1,0.4c1.9,1.9,3.9,3.8,5.8,5.8c0.6,0.6,0.9,0.8,1.7,0.1c6.4-5.2,14.6-4.9,20.3,0.5
	c5.7,5.3,6.5,14.3,1.8,20.7c-0.8,1.1-1,1.7,0.2,2.7c1.8,1.6,3.4,3.3,5.1,5.1c0.3,0.3,1.1,0.6,0.6,1.2c-0.7,0.7-1-0.2-1.4-0.5
	c-1.8-1.8-3.6-3.5-5.4-5.4c-0.6-0.6-1-0.8-1.9-0.2c-5,3.9-10.5,4.6-16.1,1.9C-192.2,544.1-194.9,539.1-195.1,533.1z M-167.5,532.7
	c0-4.8-2.7-9.2-7-11.3c-4.4-2.1-8.6-1.6-12.6,1.3c-0.9,0.6-1.2,1.1-0.2,2.1c5.2,5.1,10.4,10.3,15.6,15.5c0.8,0.8,1.2,1,1.9-0.1
	C-168.4,537.9-167.5,535.5-167.5,532.7z M-192,533c-0.1,1.6,0.4,3.2,1,4.7c3,7.4,12.2,10,18.4,5.3c0.7-0.6,1.1-0.9,0.3-1.8
	c-5.3-5.2-10.5-10.4-15.7-15.6c-1-1-1.4-0.7-2,0.3C-191.4,528.1-192,530.5-192,533z"/>
<g>
	<path class="st10" d="M122.9,98.9c0,2.8,0,5.6,0,8.5c0,0.8,0.1,1.7,0,2.5c0,0.5,0.4,1.4-0.4,1.4c-0.9,0-0.4-0.9-0.4-1.3
		c0-3.2,0-6.4,0-9.7c0-0.5,0-0.9-0.3-1.5c-1,1.9-2,3.9-3,5.8c-0.6,1.1-1.2,2.2-1.7,3.3c-0.4,0.9-0.8,0.9-1.6,0.5
		c-0.8-0.4-1-0.7-0.6-1.6c1.9-3.5,3.6-7,5.4-10.5c0.6-1.2,0.8-2.1,0-3.3c-0.5-0.7-0.9-1.6-1.4-2.6c-1.5,3-3,5.9-4.5,8.7
		c-1.5,2.9-3,5.8-4.4,8.7c-0.4,0.8-0.8,1.1-1.6,0.6c-0.7-0.4-1.1-0.6-0.6-1.6c3.6-7,7.2-14,10.8-21c0.1-0.2,0.2-0.3,0.4-0.6
		c0.9,1.8,1.8,3.5,2.7,5.2c0.1,0,0.2,0,0.3-0.1c0-2,0-4.1,0-6.1c0-0.4-0.3-1.1,0.4-1.1c0.8,0,0.4,0.8,0.5,1.2c0,2.1,0,4.1,0.3,6.3
		c0.9-1.7,1.8-3.5,2.7-5.2c0.6,0,0.6,0.5,0.7,0.7c3.5,6.8,7,13.7,10.5,20.5c0.4,0.7,0.7,1.2-0.4,1.8c-1.1,0.5-1.4,0.2-1.8-0.7
		c-2.9-5.7-5.8-11.3-8.8-17.3c-0.7,1.5-1.4,2.7-2,3.9c-0.3,0.6,0.1,1,0.3,1.4c1.9,3.7,3.7,7.3,5.6,10.9c0.4,0.8,0.6,1.3-0.5,1.8
		c-1,0.5-1.3,0.2-1.7-0.6c-1.5-3-3.1-6-4.6-9C123.1,98.8,123,98.8,122.9,98.9z"/>
	<path class="st10" d="M104,109.6c-0.8-1.6-1.6-3.2-2.4-4.7c-0.1,0-0.2,0-0.3,0c0,1.7,0,3.4,0,5.1c0,0.4,0.4,1.2-0.5,1.2
		c-0.6,0-0.3-0.8-0.3-1.2c0-1.7,0-3.4-0.3-5.2c-0.8,1.6-1.7,3.2-2.6,5c-2-3.9-3.9-7.6-5.8-11.3c-2-3.8-3.9-7.7-5.9-11.5
		c-0.5-0.9-0.1-1.2,0.6-1.6c0.9-0.5,1.2-0.3,1.6,0.5c3.1,6.1,6.2,12.2,9.4,18.4c0.8-0.8,0.9-2.1,1.6-2.8c1.7-1.7,1.3-3.7,1.3-5.7
		c0-3.8,0-7.7,0-11.5c0-0.4-0.4-1.2,0.4-1.3c0.8,0,0.4,0.8,0.4,1.2c0,4.7,0,9.3,0,14c0,0.8,0,1.6,0.8,2.3c0.9,0.9,1.3,2.4,2.1,3.8
		c1.7-3.4,3.3-6.5,4.9-9.6c1.5-3,3.1-6,4.6-9c0.4-0.8,0.7-1,1.5-0.5c0.7,0.4,1.3,0.6,0.7,1.7c-3.9,7.4-7.6,14.8-11.4,22.3
		C104.3,109.4,104.2,109.4,104,109.6z"/>
	<path class="st10" d="M-401.3,754.8c-0.8-1.6-1.6-3.2-2.4-4.7c-0.1,0-0.2,0-0.3,0c0,1.7,0,3.4,0,5.1c0,0.4,0.4,1.2-0.5,1.2
		c-0.6,0-0.3-0.8-0.3-1.2c0-1.7,0-3.4-0.3-5.2c-0.8,1.6-1.7,3.2-2.6,5c-2-3.9-3.9-7.6-5.8-11.3c-2-3.8-3.9-7.7-5.9-11.5
		c-0.5-0.9-0.1-1.2,0.6-1.6c0.9-0.5,1.2-0.3,1.6,0.5c3.1,6.1,6.2,12.2,9.4,18.4c0.8-0.8,0.9-2.1,1.6-2.8c1.7-1.7,1.3-3.7,1.3-5.7
		c0-3.8,0-7.7,0-11.5c0-0.4-0.4-1.2,0.4-1.3c0.8,0,0.4,0.8,0.4,1.2c0,4.7,0,9.3,0,14c0,0.8,0,1.6,0.8,2.3c0.9,0.9,1.3,2.4,2.1,3.8
		c1.7-3.4,3.3-6.5,4.9-9.6c1.5-3,3.1-6,4.6-9c0.4-0.8,0.7-1,1.5-0.5c0.7,0.4,1.3,0.6,0.7,1.7c-3.9,7.4-7.6,14.8-11.4,22.3
		C-401,754.6-401.1,754.6-401.3,754.8z"/>
</g>
<path class="st10" d="M-27.5,532c2.7,6.2,1.8,11.2-2.5,14.5c-3.2,2.4-6.8,2.9-10.6,1.6c-0.5-0.2-2-0.1-1.2-1.4
	c0.5-0.8,0.5-2.2,2.4-1.5c4.7,1.8,9.5-1,10.4-5.7c0.3-1.5,0.1-2.2-1.8-2c-4.1,0.6-7.5-0.9-10-4.2c-0.8-1-1.5-1.3-2.7-1.2
	c-2.7,0.1-5.3,0-8,0c-0.4,0-1.1,0.2-1.1-0.4c-0.1-0.9,0.7-0.6,1.2-0.6c2.5,0,5.1-0.1,7.6,0c1.3,0.1,1.6-0.2,1.2-1.5
	c-1-4.2,0.1-7.8,3.4-10.6c3.2-2.7,6.9-3.3,10.8-2c1.5,0.5,1.9,1,0.9,2.5c-0.6,0.9-1.1,0.8-1.9,0.5c-4.8-1.7-9.9,1.3-10.5,6.2
	c-0.1,1.1-0.1,1.8,1.5,1.5c3.3-0.5,6.3,0.3,8.9,2.6c0.7,0.6,1.4,0.8,2.3,0.8c3.3,0,6.5,0,9.8,0c0.4,0,1.1-0.2,1.1,0.5
	c0.1,0.9-0.7,0.6-1.2,0.6C-20.7,532.1-24,532-27.5,532z M-37.4,532.2c2,2,4.4,2.9,7.3,2.1C-31.8,530.7-34.9,532.5-37.4,532.2z
	 M-34.4,531c-1.5-0.5-2.6-0.6-3.7,0C-37,531-35.9,531-34.4,531z"/>
<path class="st10" d="M-106.7,536.6c3,3,5.7,5.7,8.5,8.4c1.1,1,0.6,1.5-0.1,2.3c-0.8,0.9-1.3,0.7-2-0.1c-4.7-5-9.5-9.9-14.2-14.8
	c-0.2,0.1-0.4,0.2-0.7,0.3c0,1.9,0,3.7,0,5.6c0,2.8,0,5.6,0,8.4c0,0.5,0.4,1.5-0.5,1.5c-1,0-0.6-1-0.6-1.6c0-4.6,0.5-9.2-0.2-13.8
	c-0.7-4.9-1.1-9.7,0.1-14.6c0.4-1.7,0.1-3.6,0.1-5.4c0-0.4,0-0.9,0.5-0.9c0.5,0,0.6,0.5,0.6,0.9c0,1.8,0,3.6,0,5.7
	c4.4-4.2,9.2-5.3,14.2-2c3.9,2.5,5.5,6.5,4.6,11.1C-97.5,532.9-101,535.8-106.7,536.6z M-106.8,517.7c-4.2,0-7.7,3.5-7.6,7.8
	c0,4.2,3.4,7.8,7.4,7.9c4.1,0.1,7.7-3.5,7.8-7.7C-99.2,521.4-102.7,517.8-106.8,517.7z"/>
<path class="st10" d="M-404.4,518.3c3.3,6.5,6.5,12.7,9.7,18.9c0.3,0.5,0.3,1.5,1.2,1.3c0.9-0.2,0.5-1.1,0.5-1.7
	c0-6.3,0-12.5,0-18.8c0-0.6-0.5-1.8,0.5-1.8c1.1,0,0.6,1.1,0.6,1.7c0,6.9,0.1,13.7,0,20.6c0,2.7,0.2,5.3,1.8,7.6
	c0.6,0.9,0.6,1.6-0.6,1.9c-1.7,0.5-1.1,1.9-1.2,3c0,0.5,0.3,1.2-0.5,1.2c-0.9,0-0.6-0.8-0.5-1.2c0.4-2.9-0.8-5.3-2-7.7
	c-3.1-5.9-6.1-11.9-9.3-18.2c-0.6,1.1-1.2,2-1.7,3c-3.3,6.4-6.5,12.8-9.7,19.2c-0.5,1.1-0.9,1.5-2.2,0.8c-1.3-0.6-1.1-1.2-0.6-2.3
	C-413.9,536.9-409.2,527.8-404.4,518.3z"/>
<path class="st13" d="M99.8,333c0-2,0.1-4,0-6c-0.1-1.2,0.3-1.6,1.5-1.6c1.3,0,1.7,0.4,1.6,1.7c-0.1,4,0,8-0.1,12
	c0,1.1,0.3,1.5,1.4,1.5c3.9-0.1,7.7-0.1,11.6,0c1.1,0,1.5-0.3,1.5-1.4c-0.1-4,0-8-0.1-12c0-1.3,0.2-1.7,1.6-1.7
	c1.5,0,1.6,0.7,1.5,1.8c0,3.9,0,7.9,0,11.8c0,1.2,0.2,1.6,1.5,1.6c1.8-0.1,3.6,0,5.4,0c0.5,0,1,0,0.9,0.7c-0.1,0.6-0.6,0.4-0.9,0.4
	c-1.9,0-3.7,0.1-5.6,0c-1.1-0.1-1.3,0.3-1.3,1.3c0.1,3.9,0,7.7,0.1,11.6c0,1.4-0.4,1.6-1.7,1.7c-1.4,0-1.5-0.5-1.5-1.6
	c0.1-3.9,0-7.7,0-11.6c0-1-0.2-1.4-1.3-1.4c-3.9,0.1-7.9,0.1-11.8,0c-1.2,0-1.4,0.4-1.4,1.5c0.1,3.9,0,7.7,0.1,11.6
	c0,1.3-0.5,1.5-1.6,1.5c-1.2,0-1.6-0.3-1.6-1.6c0.1-3.9,0-7.7,0.1-11.6c0-1.1-0.3-1.5-1.5-1.4c-1.7,0.1-3.5,0.1-5.2,0
	c-0.5,0-1.4,0.4-1.4-0.6c0-0.9,0.9-0.5,1.5-0.5c1.7-0.1,3.5-0.1,5.2,0c1,0,1.4-0.2,1.4-1.3C99.8,337.2,99.8,335.1,99.8,333z"/>
<path class="st13" d="M-414.6,638.2c0-2,0.1-4,0-6c-0.1-1.2,0.3-1.6,1.5-1.6c1.3,0,1.7,0.4,1.6,1.7c-0.1,4,0,8-0.1,12
	c0,1.1,0.3,1.5,1.4,1.5c3.9-0.1,7.7-0.1,11.6,0c1.1,0,1.5-0.3,1.5-1.4c-0.1-4,0-8-0.1-12c0-1.3,0.2-1.7,1.6-1.7
	c1.5,0,1.6,0.7,1.5,1.8c0,3.9,0,7.9,0,11.8c0,1.2,0.2,1.6,1.5,1.6c1.8-0.1,3.6,0,5.4,0c0.5,0,1,0,0.9,0.7c-0.1,0.6-0.6,0.4-0.9,0.4
	c-1.9,0-3.7,0.1-5.6,0c-1.1-0.1-1.3,0.3-1.3,1.3c0.1,3.9,0,7.7,0.1,11.6c0,1.4-0.4,1.6-1.7,1.7c-1.4,0-1.5-0.5-1.5-1.6
	c0.1-3.9,0-7.7,0-11.6c0-1-0.2-1.4-1.3-1.4c-3.9,0.1-7.9,0.1-11.8,0c-1.2,0-1.4,0.4-1.4,1.5c0.1,3.9,0,7.7,0.1,11.6
	c0,1.3-0.5,1.5-1.6,1.5c-1.2,0-1.6-0.3-1.6-1.6c0.1-3.9,0-7.7,0.1-11.6c0-1.1-0.3-1.5-1.5-1.4c-1.7,0.1-3.5,0.1-5.2,0
	c-0.5,0-1.4,0.4-1.4-0.6c0-0.9,0.9-0.5,1.5-0.5c1.7-0.1,3.5-0.1,5.2,0c1,0,1.4-0.2,1.4-1.3C-414.7,642.3-414.6,640.3-414.6,638.2z"
	/>
<path class="st13" d="M473.9,545.8c-0.9,1-1.8,2.1-2.9,3c-0.4,0.4-0.8,1.7-1.6,0.8c-0.7-0.7,0.4-1.1,0.8-1.5c4.3-4.3,8.7-8.6,13-13
	c5.1-5.1,10.3-10.2,15.7-15.7c-1.5,0-2.5,0-3.5,0c-6.8,0-13.6,0-20.4,0c-1.2,0-1.7-0.2-1.7-1.6c0-1.5,0.6-1.5,1.8-1.5
	c7.9,0,15.7,0,23.6,0c0.7,0,1.6-0.5,1.9,0.8c0.1,0.7,0.6,0,0.8-0.2c1.2-1.1,2.3-2.2,3.4-3.3c0.3-0.3,0.7-1.1,1.3-0.5
	c0.6,0.6-0.2,0.9-0.5,1.3c-3.7,3.7-7.5,7.4-11.2,11.1c-6.1,6.2-12.2,12.4-18.4,18.7c0.4,0.5,1.1,0.1,1.7,0.2c7.4,0,14.8,0,22.2,0
	c1.2,0,1.8,0.1,1.8,1.6c0,1.4-0.6,1.6-1.8,1.6c-7.9,0-15.8,0-23.8,0C475,547.5,474.1,547.4,473.9,545.8z"/>
<path class="st10" d="M-408.7,341.6c-2.9,0-5.4,0-7.9,0c-0.4,0-1.1,0.3-1.1-0.4c0-0.9,0.7-0.6,1.2-0.6c2.3,0,4.5-0.1,6.8,0
	c1.3,0.1,1.9-0.4,2.4-1.5c2.3-4.7,4.7-9.3,7.3-14.3c2.3,4.6,4.6,8.8,6.7,13.2c0.9,2,2,3,4.3,2.7c2.2-0.3,4.5-0.1,6.8-0.1
	c0.5,0,1-0.1,0.9,0.7c-0.1,0.6-0.6,0.4-0.9,0.4c-3,0-5.9,0-9.1,0c2.2,4.2,4.2,8.2,6.2,12.1c0.5,1,0.7,1.6-0.6,2.2
	c-1.2,0.6-1.6,0.3-2.2-0.8c-2-4.1-4.1-8-6.1-12.1c-0.5-1.1-1.1-1.6-2.4-1.5c-2.5,0.1-4.9,0.1-7.4,0c-1,0-1.5,0.3-2,1.2
	c-2,4.2-4.2,8.3-6.3,12.4c-0.4,0.8-0.6,1.6-1.8,0.9c-1-0.6-1.8-0.9-1-2.3C-412.8,349.9-410.9,345.9-408.7,341.6z M-404.5,340.4
	c3.1,0,6,0,9,0c-1.5-3-3-5.8-4.5-8.8C-401.6,334.6-403,337.4-404.5,340.4z"/>
<path class="st10" d="M-414.3,696.9c-2.9,0-5.4,0-7.9,0c-0.4,0-1.1,0.3-1.1-0.4c0-0.9,0.7-0.6,1.2-0.6c2.3,0,4.5-0.1,6.8,0
	c1.3,0.1,1.9-0.4,2.4-1.5c2.3-4.7,4.7-9.3,7.3-14.3c2.3,4.6,4.6,8.8,6.7,13.2c0.9,2,2,3,4.3,2.7c2.2-0.3,4.5-0.1,6.8-0.1
	c0.5,0,1-0.1,0.9,0.7c-0.1,0.6-0.6,0.4-0.9,0.4c-3,0-5.9,0-9.1,0c2.2,4.2,4.2,8.2,6.2,12.1c0.5,1,0.7,1.6-0.6,2.2
	c-1.2,0.6-1.6,0.3-2.2-0.8c-2-4.1-4.1-8-6.1-12.1c-0.5-1.1-1.1-1.6-2.4-1.5c-2.5,0.1-4.9,0.1-7.4,0c-1,0-1.5,0.3-2,1.2
	c-2,4.2-4.2,8.3-6.3,12.4c-0.4,0.8-0.6,1.6-1.8,0.9c-1-0.6-1.8-0.9-1-2.3C-418.4,705.2-416.5,701.2-414.3,696.9z M-410.1,695.6
	c3.1,0,6,0,9,0c-1.5-3-3-5.8-4.5-8.8C-407.2,689.9-408.6,692.7-410.1,695.6z"/>
<path class="st10" d="M-264.2,518.6c6.7-4.4,12.2-4.2,16.1,0.3c3.6,4.2,3.5,10.6-0.2,14.6c-4.1,4.5-9.5,4.6-16,0.1
	c0,2.9,0,5.6,0,8.2c0,1.8,0,3.6,0,5.4c0,0.4,0.2,1.1-0.5,1.1c-0.7,0-0.5-0.6-0.5-1c0-2.6,0-5.2,0-7.8c-0.1-3.7,0.4-7.4-1.2-11
	c-0.7-1.6-0.6-3.6,0.1-5.3c1.3-2.8,1-5.7,1.1-8.6c0-0.8-0.5-2.3,0.5-2.3c1,0,0.3,1.5,0.4,2.4C-264.1,515.9-264.2,517.1-264.2,518.6z
	 M-256,518.3c-4.2,0-7.7,3.6-7.7,7.8c0,4.2,3.4,7.7,7.5,7.8c4.2,0.1,7.7-3.4,7.8-7.7C-248.3,522-251.8,518.3-256,518.3z"/>
<path class="st10" d="M329.2,346.7c0,3.6,0,7.2,0,10.7c0,0.5,0.5,1.4-0.5,1.4c-1,0-0.5-0.9-0.5-1.4c0-3.5-0.1-6.9,0-10.4
	c0-1-0.3-1.6-1.2-2c-2-1.1-3.9-2.3-6.2-3.6c2.1-1.2,3.9-2.4,5.9-3.5c1.1-0.6,1.5-1.2,1.5-2.5c-0.1-3.8,0-7.6,0-11.4
	c0-0.5-0.3-1.2,0.5-1.3c1-0.1,0.6,0.9,0.6,1.3c0,4,0,7.9,0,12.3c1.8-1,3.2-1.9,4.7-2.7c3.9-2.3,7.8-4.5,11.7-6.9
	c1.3-0.8,1.6-0.2,2.2,0.7c0.8,1.2,0.2,1.5-0.7,2.1c-5.5,3.2-11,6.5-16.5,9.7c-2,1.2-2.1,3.2,0,4.4c5.3,3.1,10.7,6.3,16,9.4
	c0.9,0.5,2.3,0.7,1.2,2.5c-1.1,1.7-1.8,0.7-2.6,0.1c-4.7-2.8-9.4-5.5-14.1-8.3C330.5,347.1,330,346.7,329.2,346.7z"/>
<path class="st10" d="M-30.7,341.1c-3.7,0-7.3,0.1-11,0c-1.6-0.1-1.9,0.5-1.8,1.9c0.1,3.9,0,7.9,0,11.8c0,1,0.4,2.1-1.5,2.1
	c-1.7,0-1.6-0.8-1.6-2c0-4.1,0-8.1,0-12.2c0-1.2-0.2-1.7-1.5-1.6c-1.5,0.1-3.1,0.1-4.6,0c-0.6,0-1.7,0.4-1.7-0.5
	c0-1,1.1-0.5,1.8-0.5c1.5-0.1,3.1-0.1,4.6,0c1.1,0.1,1.5-0.3,1.4-1.4c-0.1-3.8,0-7.6,0-11.4c0-1.2,0.2-1.7,1.6-1.7
	c5.5,0.1,11.1,0.1,16.6,0c1.1,0,1.6,0.1,1.6,1.5c0,1.4-0.5,1.6-1.7,1.6c-4.5-0.1-8.9,0-13.4-0.1c-1.4,0-1.7,0.4-1.7,1.7
	c0.1,2.6,0.1,5.2,0,7.8c-0.1,1.5,0.3,2,1.9,2c7.2-0.1,14.4,0,21.6,0c0.4,0,0.8,0,1.2,0c0.4,0,1.1-0.2,1,0.5c0,0.6-0.7,0.5-1.1,0.5
	c-0.8,0-1.6,0-2.4,0C-24.4,341.1-27.5,341.1-30.7,341.1z"/>
<path class="st10" d="M316.9,548.7c-0.6-0.7-1.2-1.3-1.6-2.1c-0.4-0.6,0.3-0.9,0.7-1.2c3.8-3.8,7.6-7.7,11.5-11.4
	c1.2-1.2,1.1-1.8-0.1-2.9c-5-4.8-9.9-9.7-14.7-14.6c-0.5-0.5-1.9-1-1.1-1.9c0.7-0.7,1.3,0.6,1.7,1.1c4.9,4.8,9.9,9.7,14.7,14.7
	c1.3,1.3,2,1.2,3.2,0c4-4.1,8.1-8.1,12.1-12.2c1-1.1,1.5-0.8,2.5,0.1c1.1,1,0.5,1.4-0.2,2.2c-4.3,4.2-8.5,8.5-12.8,12.6
	c-1,0.9-0.7,1.4,0.1,2.2c4.9,4.8,9.7,9.6,14.6,14.5c0.3,0.3,1.3,0.7,0.6,1.4c-0.7,0.7-1-0.3-1.4-0.6c-4.8-4.7-9.6-9.4-14.3-14.2
	c-1.1-1.1-1.7-1.2-2.8-0.1c-3.7,3.9-7.6,7.6-11.4,11.4C317.9,547.8,317.5,548.1,316.9,548.7z"/>
<path class="st13" d="M-103.4,340.5c3.7,0,7.5,0,11.2,0c0.6,0,1.6-0.4,1.7,0.5c0,1-1,0.5-1.6,0.5c-7.5,0-15,0.1-22.6,0
	c-1.8,0-1.9,0.6-1.6,2c1,4.9,5.4,9.1,10.5,9.5c1.7,0.1,1.7,1,1.6,2.2c0,1.7-1.3,1.1-2,1c-6.7-0.7-12.3-6.2-13.3-13.2
	c-0.2-1.4-0.7-1.6-1.8-1.5c-1.6,0.1-3.2,0-4.8,0c-0.4,0-0.9,0-0.9-0.5c0-0.5,0.4-0.6,0.9-0.6c1.7,0,3.3,0,5,0c1,0,1.4-0.2,1.6-1.4
	c0.9-7.1,6.1-12.3,13.3-13.4c0.8-0.1,2-0.8,2,0.9c0,1.1,0.2,2-1.6,2.2c-5.3,0.5-9.7,4.8-10.6,9.9c-0.2,1.2-0.1,1.8,1.4,1.7
	C-111.1,340.5-107.2,340.5-103.4,340.5z"/>
<path class="st13" d="M121.4,540.3c1.6-2.2,2.4-4.1,2.5-6.2c0-1.8,1.3-1.3,2.2-1.3c1.5-0.1,0.9,1,0.9,1.7c-0.3,3.3-1.5,6.3-3.8,8.6
	c-1.4,1.4-1.9,2.8-1.8,4.7c0.1,1,0.7,3-0.5,3c-1.1,0-0.3-2-0.5-3.1c-0.1-0.5,0-1.1,0-1.8c-2.7,1.4-5.4,2.4-8.4,2.4
	c-8,0-14.6-5.8-15.5-13.7c-0.1-0.8-0.4-1.7,0.9-1.7c1,0,1.9-0.4,2.2,1.4c1.3,9.4,11.5,14,19.1,8.8c1.1-0.8,1.7-1.6,1.6-3.1
	c-0.1-7.7,0-15.4,0-23.2c0-0.5,0-0.9,0-1.4c0-0.4,0.2-0.6,0.6-0.6c0.3,0,0.4,0.3,0.5,0.5c0,0.5,0,1.1,0,1.6
	C121.4,524.5,121.4,532.1,121.4,540.3z"/>
<path class="st13" d="M60.2,451.9c1.6-2.2,2.4-4.1,2.5-6.2c0-1.8,1.3-1.3,2.2-1.3c1.5-0.1,0.9,1,0.9,1.7c-0.3,3.3-1.5,6.3-3.8,8.6
	c-1.4,1.4-1.9,2.8-1.8,4.7c0.1,1,0.7,3-0.5,3c-1.1,0-0.3-2-0.5-3.1c-0.1-0.5,0-1.1,0-1.8c-2.7,1.4-5.4,2.4-8.4,2.4
	c-8,0-14.6-5.8-15.5-13.7c-0.1-0.8-0.4-1.7,0.9-1.7c1,0,1.9-0.4,2.2,1.4c1.3,9.4,11.5,14,19.1,8.8c1.1-0.8,1.7-1.6,1.6-3.1
	c-0.1-7.7,0-15.4,0-23.2c0-0.5,0-0.9,0-1.4c0-0.4,0.2-0.6,0.6-0.6c0.3,0,0.4,0.3,0.5,0.5c0,0.5,0,1.1,0,1.6
	C60.2,436,60.2,443.6,60.2,451.9z"/>
<path class="st10" d="M408.2,538.5c-3.8,3.8-7.1,7.2-10.5,10.6c-0.3,0.3-0.7,1.3-1.4,0.6c-0.7-0.7,0.3-1,0.6-1.4
	c3.3-3.4,6.6-6.7,10-10c0.9-0.9,1.3-1.7,1.3-3c-0.1-5.7,0-11.3,0-17c0-1-0.4-2,1.5-2c1.9,0,1.6,1,1.6,2.1c0,4.3,0,8.7,0,13
	c0,0.5-0.3,1.3,0.4,1.6c0.7,0.3,1-0.4,1.4-0.8c6-6,12-11.9,17.9-17.9c0.4-0.4,0.8-0.7,1.2-1.1c0.3-0.3,0.6-0.3,0.8,0
	c0.2,0.2,0.2,0.5,0,0.7c-0.2,0.2-0.5,0.4-0.7,0.7c-6.6,6.6-13.2,13.2-19.8,19.7c-0.9,0.9-1.3,1.7-1.2,3c0.1,2.9,0,5.9,0.1,8.8
	c0,1.2-0.4,1.4-1.5,1.4c-1.1,0-1.7-0.1-1.6-1.5C408.2,543.7,408.2,541.4,408.2,538.5z"/>
<path class="st13" d="M191.8,539.7c0-7.1,0-13.9,0-20.6c0-1.2-0.1-2,1.6-2c1.7,0,1.5,0.9,1.5,2c0,7.4,0,14.8,0,22.2
	c0,1.1,0.3,1.9,1.1,2.6c1.9,1.8,3.8,3.7,5.7,5.6c0.4,0.4,1.5,0.8,0.8,1.5c-0.7,0.8-1.1-0.3-1.5-0.7c-1.8-1.9-3.6-3.9-5.4-5.8
	c-0.9,0.9-0.7,1.6-0.6,2.1c0.1,1.3-0.2,1.9-1.7,1.9c-1.6,0-1.6-0.8-1.5-1.9c0.7-3.8-0.9-6.5-3.7-9.1c-7.2-6.8-14.1-13.9-21.2-20.9
	c-0.4-0.4-0.8-0.7-1.1-1.1c-0.3-0.3-0.3-0.6,0-0.9c0.3-0.3,0.6-0.1,0.8,0.1c0.5,0.5,0.9,0.9,1.4,1.4c7.6,7.6,15.3,15.2,22.9,22.8
	C191.2,539.1,191.4,539.3,191.8,539.7z"/>
<path class="st10" d="M-265.1,340.9c0-7.9,6.1-14.5,13.9-15.2c0.7-0.1,1.6-0.3,1.5,0.9c-0.1,0.9,0.7,2.1-1.2,2.2
	c-6.5,0.7-11.1,5.9-11.1,12.2c0,6.2,4.7,11.5,11,12.1c1.8,0.2,1.3,1.2,1.3,2.2c0.1,1.4-1,1-1.6,1C-259,355.9-265.2,349-265.1,340.9z
	"/>
<path class="st10" d="M26.8,340.9c0.1-7.9,5.9-14.2,13.7-15.2c0.8-0.1,1.8-0.5,1.8,1c0,1,0.3,1.9-1.4,2.1
	c-6.3,0.6-10.9,5.9-10.9,12.2c0,6.3,4.6,11.5,11,12.1c1.8,0.2,1.4,1.1,1.4,2.1c0.1,1.6-1.1,1-1.8,1
	C32.9,355.7,26.7,348.7,26.8,340.9z"/>
<path class="st10" d="M-173.5,341c0-6.2-4.7-11.5-11-12.1c-1.8-0.2-1.3-1.2-1.4-2.1c-0.1-1.5,1-1.1,1.8-1c7.7,1,13.5,7.3,13.7,15
	c0.2,7.6-5.5,14.3-13.1,15.5c-2.2,0.4-2.4,0.1-2.4-1.8c0-1.2,0.6-1.2,1.5-1.3C-178.2,352.5-173.5,347.3-173.5,341z"/>
<path class="st10" d="M39.6,535.6c0,4.6,0,9.2,0,13.8c0,0.5,0.4,1.4-0.5,1.5c-0.9,0-0.5-0.9-0.5-1.4c0-9.1-0.1-18.2,0-27.4
	c0-1.5-0.3-1.9-1.9-1.9c-3.5,0.1-6.9,0-10.4,0.1c-1.3,0-1.6-0.4-1.6-1.6c0-1.2,0.3-1.6,1.6-1.6c3.5,0.1,6.9,0,10.4,0.1
	c1.2,0,2.1,0,1.9-1.6c-0.1-0.4,0-0.9,0.6-0.8c0.6,0,0.5,0.5,0.5,0.9c-0.3,1.5,0.6,1.6,1.7,1.6c3.3,0,6.7,0.1,10-0.1
	c1.4,0,1.4,0.5,1.5,1.6c0,1.2-0.3,1.6-1.6,1.6c-3.3-0.1-6.7,0-10-0.1c-1.3,0-1.7,0.3-1.7,1.6C39.6,526.4,39.6,531,39.6,535.6z"/>
<path class="st13" d="M401.3,343.5c0-5.5,0-11,0-16.6c0-0.5-0.5-1.6,0.6-1.5c0.9,0,0.4,1,0.4,1.5c0,8.4,0.1,16.8,0,25.1
	c0,1.7,0.5,2.1,2.1,2c4.7-0.1,9.3,0,14-0.1c1.1,0,1.9-0.1,1.8,1.5c0,1.4-0.5,1.6-1.8,1.6c-4.7-0.1-9.3,0.1-14-0.1
	c-1.8-0.1-2.3,0.5-2.2,2.2c0.1,0.8,0.7,2.3-0.6,2.3c-0.9,0-0.4-1.5-0.5-2.2C401.2,354,401.3,348.7,401.3,343.5z"/>
<path class="st10" d="M190.9,340.9c0-2.4,0.2-4.8-0.1-7.2c-0.5-3.5,1.1-6.8,1-10.2c0-0.4,0.1-0.7,0.5-0.7c0.6,0,0.5,0.4,0.6,0.8
	c1.7,9.9,0.8,19.9,0.8,29.8c0,1.5-0.7,3.2-0.8,4.9c0,0.4-0.1,0.7-0.5,0.7c-0.4,0-0.6-0.2-0.6-0.6c0.4-3.1-1.5-5.9-1.1-9
	C191.1,346.5,190.9,343.6,190.9,340.9z"/>
<path class="st13" d="M274.9,342.2c0,5.5,0,11.1,0,16.6c0,0.5,0.3,1.5-0.5,1.4c-0.8,0-0.5-0.9-0.5-1.5c-0.1-3-0.1-3-3.1-3
	c-4.3,0-8.5-0.1-12.8,0c-1.3,0-1.5-0.4-1.5-1.6c0-1.2,0.3-1.6,1.5-1.6c4.7,0.1,9.5,0,14.2,0.1c1.4,0,1.7-0.4,1.7-1.8
	c-0.1-8.3,0-16.7,0-25c0-0.4,0-0.8,0-1.2c0-0.4,0-0.8,0.6-0.8c0.6,0,0.5,0.5,0.5,0.9c0,1.9,0,3.9,0,5.8
	C274.9,334.5,274.9,338.4,274.9,342.2z"/>
<path class="st13" d="M46.2,341.1c0,5.4,0,10.8,0,16.2c0,0.6,0.5,1.8-0.5,1.8c-1.2,0-0.6-1.3-0.6-1.9c-0.1-4.6-0.1-9.2,0-13.8
	c0-1.5-0.4-1.9-1.9-1.8c-0.9,0-2.7,0.7-2.7-0.5c0-1.1,1.8-0.5,2.8-0.5c1.4,0,1.8-0.4,1.8-1.8c-0.1-4.7-0.1-9.3,0-14
	c0-0.6-0.4-1.8,0.5-1.8c1.1,0,0.6,1.3,0.6,1.9C46.2,330.4,46.2,335.7,46.2,341.1z"/>
<path class="st13" d="M-244.2,341.3c0,5.5,0,11,0,16.6c0,0.5,0.4,1.4-0.6,1.3c-0.8,0-0.5-0.8-0.5-1.3c0-11.2,0-22.3,0-33.5
	c0-0.5-0.3-1.4,0.6-1.4c0.7,0,0.5,0.8,0.5,1.3C-244.2,330-244.2,335.6-244.2,341.3z"/>
<g>
	<path class="st10" d="M-411.6,844.1c0-7.9,6.1-14.5,13.9-15.2c0.7-0.1,1.6-0.3,1.5,0.9c-0.1,0.9,0.7,2.1-1.2,2.2
		c-6.5,0.7-11.1,5.9-11.1,12.2c0,6.2,4.7,11.5,11,12.1c1.8,0.2,1.3,1.2,1.3,2.2c0.1,1.4-1,1-1.6,1
		C-405.5,859.1-411.6,852.1-411.6,844.1z"/>
	<path class="st13" d="M-390.7,844.4c0,5.5,0,11,0,16.6c0,0.5,0.4,1.4-0.6,1.3c-0.8,0-0.5-0.8-0.5-1.3c0-11.2,0-22.3,0-33.5
		c0-0.5-0.3-1.4,0.6-1.4c0.7,0,0.5,0.8,0.5,1.3C-390.7,833.1-390.7,838.8-390.7,844.4z"/>
</g>
<g>
	<path class="st10" d="M-127.6,273.1c0-7.9,6.1-14.5,13.9-15.2c0.7-0.1,1.6-0.3,1.5,0.9c-0.1,0.9,0.7,2.1-1.2,2.2
		c-6.5,0.7-11.1,5.9-11.1,12.2c0,6.2,4.7,11.5,11,12.1c1.8,0.2,1.3,1.2,1.3,2.2c0.1,1.4-1,1-1.6,1
		C-121.5,288.1-127.7,281.2-127.6,273.1z"/>
	<path class="st13" d="M-106.7,273.5c0,5.5,0,11,0,16.6c0,0.5,0.4,1.4-0.6,1.3c-0.8,0-0.5-0.8-0.5-1.3c0-11.2,0-22.3,0-33.5
		c0-0.5-0.3-1.4,0.6-1.4c0.7,0,0.5,0.8,0.5,1.3C-106.7,262.2-106.7,267.8-106.7,273.5z"/>
</g>
<path class="st13" d="M-190.1,341.3c0,5.4,0,10.9,0,16.3c0,0.5,0.4,1.4-0.5,1.5c-1.1,0-0.6-1-0.6-1.5c0-11,0-22.1,0-33.1
	c0-0.5-0.3-1.5,0.5-1.5c1.1,0,0.6,1,0.6,1.5C-190,330.1-190,335.7-190.1,341.3z"/>
<path class="st11" d="M-320,344.4c1.1,3.3,0.3,6.5-2.1,8.6c-2.3,2-5.5,2.5-8.2,1.2c-2.8-1.4-4.6-4.3-4.4-7.4
	c0.1-1.2,0.1-1.9,1.6-0.9C-328.8,348.3-324.8,347.8-320,344.4z"/>
<path class="st11" d="M-320.3,338.5c-5-3.4-9.7-3.1-14.2,0.6c-1.3-2.9-0.5-6.3,1.9-8.5c2.4-2.2,6.1-2.6,8.9-0.9
	C-320.8,331.5-319.5,334.8-320.3,338.5z"/>
<path class="st11" d="M-327.1,339.2c2,0,5.5,1.6,5.2,2.2c-0.9,1.7-2.7,2.5-4.6,2.7c-0.5,0.1-0.9,0.1-1.4,0.1c-2-0.1-5.1-1.6-4.7-2.3
	c1-1.7,2.7-2.4,4.6-2.7C-327.6,339.2-327.3,339.3-327.1,339.2z"/>
<path class="st10" d="M-412.8,803.9c0,1.6,0,2.9,0,4.3c0,0.4,0.2,1-0.5,1.1c-0.7,0.1-0.6-0.6-0.6-1c0-3.4-0.5-6.9-0.7-10.3
	c-0.2-3.7,0.3-7.5-0.7-11.3c-0.2-0.7-0.1-1.7,0.2-2.4c1.4-3.2,1.1-6.5,1.1-9.8c0-0.5-0.3-1.4,0.5-1.5c0.9,0,0.5,0.9,0.5,1.4
	c0.1,1.5,0,3,0,4.4c0.6,0.2,0.8-0.2,1-0.4c3.9-3.4,9-3.8,13.1-1.1c4.1,2.7,5.8,7.8,4.2,12.7c-0.3,0.9-0.3,1.6,0.1,2.4
	c2.2,5.2,0.7,10.8-3.8,13.8c-4.5,3-9.7,2.2-13.9-2C-412.2,804.3-412.4,804.2-412.8,803.9z M-397,794.5c-4.9,3.5-8.8,4-13,1.4
	c-1.5-0.9-1.6-0.3-1.6,0.9c-0.1,3.1,1.6,6,4.4,7.4c2.7,1.3,5.9,0.9,8.2-1.2C-396.7,801-395.9,797.8-397,794.5z M-397.3,788.7
	c0.8-3.7-0.5-7-3.4-8.8c-2.8-1.7-6.4-1.3-8.9,0.9c-2.4,2.2-3.2,5.6-1.9,8.5C-407,785.6-402.3,785.3-397.3,788.7z M-404.2,789.4
	c-0.1,0-0.5,0-0.8,0.1c-1.9,0.3-3.6,1-4.6,2.7c-0.4,0.6,2.7,2.2,4.7,2.3c0.5,0,0.9,0,1.4-0.1c1.9-0.3,3.6-1,4.6-2.7
	C-398.6,791-402.2,789.4-404.2,789.4z"/>
<path class="st11" d="M-397,794.5c1.1,3.3,0.3,6.5-2.1,8.6c-2.3,2-5.5,2.5-8.2,1.2c-2.8-1.4-4.6-4.3-4.4-7.4
	c0.1-1.2,0.1-1.9,1.6-0.9C-405.8,798.5-401.9,798-397,794.5z"/>
<path class="st11" d="M-397.3,788.7c-5-3.4-9.7-3.1-14.2,0.6c-1.3-2.9-0.5-6.3,1.9-8.5c2.4-2.2,6.1-2.6,8.9-0.9
	C-397.8,781.7-396.5,784.9-397.3,788.7z"/>
<path class="st11" d="M-404.2,789.4c2,0,5.5,1.6,5.2,2.2c-0.9,1.7-2.7,2.5-4.6,2.7c-0.5,0.1-0.9,0.1-1.4,0.1c-2-0.1-5.1-1.6-4.7-2.3
	c1-1.7,2.7-2.4,4.6-2.7C-404.6,789.4-404.3,789.4-404.2,789.4z"/>
<path class="st11" d="M-328.8,520.4c3.3,0.1,5.8,1,8.1,2.8c0.7,0.6,1,1,0.1,1.8c-5.3,5.2-10.6,10.5-15.9,15.8
	c-0.7,0.7-1.1,0.7-1.7-0.1c-2.9-4.2-3.5-8.6-1.3-13.2C-337.3,523-333.5,520.7-328.8,520.4z"/>
<path class="st11" d="M-336.3,542.6c4.9-5,9.8-10.1,14.8-15.1c2.8-2.9,3.1-2.8,4.6,1.2c2,5.6,0,11.6-4.9,14.9
	C-326.4,546.6-332.3,546.2-336.3,542.6z"/>
<path class="st11" d="M-167.5,532.7c0,2.7-0.8,5.2-2.4,7.5c-0.7,1.1-1.1,0.9-1.9,0.1c-5.2-5.2-10.3-10.4-15.6-15.5
	c-1-1-0.7-1.4,0.2-2.1c4-2.9,8.2-3.4,12.6-1.3C-170.2,523.5-167.6,527.9-167.5,532.7z"/>
<path class="st11" d="M-192,533c0-2.6,0.6-5,2-7.2c0.6-1,1-1.3,2-0.3c5.2,5.2,10.4,10.5,15.7,15.6c0.9,0.9,0.5,1.2-0.3,1.8
	c-6.2,4.7-15.5,2.1-18.4-5.3C-191.6,536.2-192.1,534.7-192,533z"/>
<path class="st11" d="M-37.4,532.2c2.5,0.3,5.6-1.4,7.3,2.1C-33,535.1-35.4,534.2-37.4,532.2z"/>
<path class="st11" d="M-34.4,531c-1.5,0-2.6,0-3.7,0C-37,530.4-35.9,530.5-34.4,531z"/>
<path class="st11" d="M-106.8,517.7c4.2,0,7.6,3.7,7.6,7.9c-0.1,4.3-3.7,7.8-7.8,7.7c-4-0.1-7.4-3.7-7.4-7.9
	C-114.5,521.2-111,517.7-106.8,517.7z"/>
<path class="st11" d="M-404.5,340.4c1.5-2.9,2.9-5.8,4.5-8.8c1.6,3,3,5.8,4.5,8.8C-398.6,340.4-401.4,340.4-404.5,340.4z"/>
<path class="st11" d="M-256,518.3c4.1,0,7.7,3.7,7.6,7.9c-0.1,4.3-3.6,7.8-7.8,7.7c-4.1-0.1-7.5-3.6-7.5-7.8
	C-263.7,521.9-260.1,518.3-256,518.3z"/>
<g>
	<circle class="st8" cx="215.4" cy="63.9" r="1.5"/>
	<circle class="st9" cx="215.4" cy="63.9" r="4.4"/>
	<line class="st6" x1="219.8" y1="63.9" x2="350.2" y2="63.9"/>
	<polyline class="st6" points="315.7,63.9 325.8,56.2 351.4,63.9 	"/>
	<polyline class="st6" points="315.7,63.9 325.8,71.7 351.4,63.9 	"/>
	<g>
		<path class="st9" d="M322.4,40.8c-1.2,0-2.1-0.9-2.1-2.1c0-1.2,0.9-2.1,2.1-2.1c1.2,0,2.1,0.9,2.1,2.1
			C324.5,39.9,323.6,40.8,322.4,40.8z"/>
		<line class="st6" x1="320.3" y1="39.7" x2="178.5" y2="97.4"/>
		<polygon class="st6" points="173.7,104.3 165.6,103 170.3,96.3 178.5,97.6 		"/>
		<path class="st8" d="M172,101.7c-0.8,0-1.4-0.6-1.4-1.4c0-0.8,0.6-1.4,1.4-1.4c0.8,0,1.4,0.6,1.4,1.4
			C173.4,101.1,172.8,101.7,172,101.7z"/>
	</g>
	<g>
		<circle class="st9" cx="321.9" cy="89" r="2.1"/>
		<line class="st6" x1="320" y1="88.1" x2="178.5" y2="30.4"/>
		<polygon class="st6" points="173.7,23.6 165.6,24.9 170.3,31.6 178.5,30.3 		"/>
		<path class="st8" d="M172,26.2c-0.8,0-1.4,0.6-1.4,1.4c0,0.8,0.6,1.4,1.4,1.4s1.4-0.6,1.4-1.4C173.4,26.8,172.8,26.2,172,26.2z"/>
	</g>
	<path class="st14" d="M228.4,63.9c8.2-11,23.2-14.8,35.3-14.8c14.9,0,32.7,10.9,37.8,21.6"/>
	<path class="st14" d="M228.4,64.3c8.2,11,23.2,14.8,35.3,14.8c14.9,0,32.7-10.9,37.8-21.6"/>
	<polyline class="st6" points="266.9,33.7 261,39.5 255.1,33.7 	"/>
	<polyline class="st6" points="255.1,95.5 261,89.6 266.9,95.5 	"/>
	<line class="st6" x1="261" y1="45.2" x2="261" y2="49.1"/>
	<line class="st6" x1="261" y1="79.1" x2="261" y2="83"/>
	<line class="st6" x1="325.8" y1="71.7" x2="325.8" y2="63.9"/>
	<line class="st6" x1="329.8" y1="63.9" x2="329.8" y2="70.5"/>
	<line class="st6" x1="334.8" y1="58.9" x2="334.8" y2="63.6"/>
	<line class="st6" x1="338.1" y1="60.1" x2="338.1" y2="63.6"/>
	<circle class="st8" cx="325.7" cy="62.3" r="0.5"/>
	<circle class="st8" cx="325.7" cy="60.6" r="0.5"/>
	<circle class="st8" cx="325.7" cy="58.9" r="0.5"/>
	<circle class="st8" cx="276.7" cy="55.3" r="0.5"/>
	<circle class="st8" cx="275.2" cy="53.6" r="0.5"/>
	<circle class="st8" cx="273.4" cy="52.4" r="0.5"/>
	<circle class="st8" cx="271.7" cy="51.4" r="0.5"/>
	<circle class="st8" cx="245.6" cy="55.3" r="0.5"/>
	<circle class="st8" cx="247.1" cy="53.6" r="0.5"/>
	<circle class="st8" cx="248.9" cy="52.4" r="0.5"/>
	<circle class="st8" cx="250.6" cy="51.4" r="0.5"/>
	<circle class="st8" cx="276.7" cy="72.8" r="0.5"/>
	<circle class="st8" cx="275.2" cy="74.5" r="0.5"/>
	<circle class="st8" cx="273.4" cy="75.8" r="0.5"/>
	<circle class="st8" cx="271.7" cy="76.8" r="0.5"/>
	<circle class="st8" cx="244.7" cy="71.9" r="0.5"/>
	<circle class="st8" cx="246.2" cy="73.7" r="0.5"/>
	<circle class="st8" cx="248" cy="74.9" r="0.5"/>
	<circle class="st8" cx="249.7" cy="75.9" r="0.5"/>
	<path class="st9" d="M277.7,57c3,3.8,2.8,10.3,0,14.3"/>
	<path class="st9" d="M241.9,63.9c0.1-2.5,0.8-5,2.2-6.9"/>
	<path class="st9" d="M246.9,63.9c0.1-1.9,0.6-3.8,1.6-5.2"/>
</g>
</svg>
