<svg xmlns="http://www.w3.org/2000/svg" width="31" height="31">
  <path fill-rule="evenodd" fill="#070707" d="M27.299 17.772h-1.677c-.337 0-.611-.274-.611-.611 0-.337.274-.61.611-.61h1.677c.829 0 1.504-.675 1.504-1.505v-.043c0-.83-.675-1.505-1.504-1.505h-1.677c-.291 0-.541-.205-.599-.49-.26-1.299-.766-2.519-1.503-3.627-.162-.242-.13-.564.076-.77l1.187-1.186c.284-.284.441-.662.441-1.064s-.157-.78-.441-1.064l-.03-.031c-.285-.284-.663-.44-1.065-.44-.401 0-.779.156-1.064.44l-1.186 1.187c-.206.206-.528.237-.77.076-1.108-.737-2.328-1.243-3.627-1.503-.285-.057-.49-.308-.49-.599V2.751c0-.83-.675-1.505-1.505-1.505h-.043c-.83 0-1.505.675-1.505 1.505v1.676c0 .337-.273.611-.61.611-.337 0-.611-.274-.611-.611V2.751c0-1.503 1.223-2.726 2.726-2.726h.043c1.503 0 2.726 1.223 2.726 2.726v1.187c1.111.274 2.166.712 3.148 1.306l.841-.841c.515-.515 1.199-.799 1.928-.799.728 0 1.412.284 1.927.799l.03.03c1.063 1.063 1.063 2.792 0 3.855l-.841.841c.594.982 1.032 2.037 1.306 3.148h1.188c1.503 0 2.725 1.223 2.725 2.726v.043c0 1.503-1.222 2.726-2.725 2.726zm-12.274-6.268c1.941 0 3.52 1.579 3.52 3.521 0 1.941-1.579 3.52-3.52 3.52-.805 0-1.592-.278-2.216-.784-.262-.213-.302-.597-.09-.859s.597-.302.859-.09c.413.335.913.512 1.447.512 1.268 0 2.299-1.031 2.299-2.299 0-1.269-1.031-2.3-2.299-2.3-1.269 0-2.3 1.031-2.3 2.3 0 .337-.274.61-.611.61-.337 0-.61-.273-.61-.61 0-1.942 1.579-3.521 3.521-3.521zM8.611 6.453L7.425 5.266c-.285-.284-.663-.441-1.064-.441-.403 0-.78.157-1.065.441l-.03.03c-.284.285-.441.663-.441 1.065 0 .402.157.78.441 1.064l1.187 1.186c.206.206.238.528.077.77-.738 1.108-1.244 2.328-1.504 3.627-.057.285-.308.49-.599.49H2.75c-.829 0-1.504.675-1.504 1.505v.043c0 .83.675 1.505 1.504 1.505h1.677c.291 0 .541.205.599.49.26 1.299.766 2.519 1.503 3.627.162.242.13.564-.076.77l-1.187 1.186c-.284.285-.441.663-.441 1.064 0 .403.157.78.441 1.065l.03.03c.285.284.662.441 1.065.441.401 0 .779-.157 1.064-.441l1.186-1.187c.206-.205.528-.237.77-.076 1.108.737 2.328 1.243 3.627 1.503.285.058.49.308.49.599v1.677c0 .83.675 1.505 1.505 1.505h.043c.83 0 1.505-.675 1.505-1.505v-1.677c0-.291.205-.541.49-.599 1.299-.26 2.519-.766 3.627-1.503.242-.161.564-.129.77.076l1.186 1.187c.285.284.663.441 1.065.441.402 0 .779-.157 1.064-.441l.03-.03c.284-.285.441-.662.441-1.064s-.157-.78-.441-1.064l-1.187-1.187c-.238-.239-.238-.625 0-.864.238-.238.625-.238.863 0l1.187 1.187c.515.515.799 1.199.799 1.927 0 .729-.284 1.413-.799 1.928l-.03.03c-.515.515-1.199.798-1.927.798-.729 0-1.413-.283-1.928-.798l-.841-.841c-.982.594-2.037 1.032-3.148 1.306v1.187c0 1.504-1.223 2.726-2.726 2.726h-.043c-1.503 0-2.726-1.222-2.726-2.726v-1.187c-1.111-.274-2.166-.712-3.148-1.306l-.841.841c-.515.515-1.199.798-1.927.798-.729 0-1.413-.283-1.928-.798l-.03-.03c-.515-.515-.798-1.199-.798-1.928 0-.728.283-1.412.798-1.927l.841-.841c-.594-.982-1.032-2.037-1.306-3.148H2.75c-1.503 0-2.725-1.223-2.725-2.726v-.043c0-1.503 1.222-2.726 2.725-2.726h1.188c.274-1.111.712-2.166 1.306-3.148l-.841-.841c-.515-.515-.798-1.199-.798-1.927 0-.729.283-1.413.798-1.928l.03-.03c.515-.515 1.199-.799 1.928-.799.728 0 1.412.284 1.927.799l1.187 1.186c.238.239.238.625 0 .864-.239.238-.625.238-.864 0z"/>
</svg>
