<svg id="Layer_1" data-name="Layer 1" xmlns="http://www.w3.org/2000/svg" viewBox="0 0 7164.91 4030.26"><defs><style>.cls-1{fill:#4224fb;}.cls-2{fill:#fff;}</style></defs><title>art</title><circle class="cls-1" cx="6419.2" cy="2604.88" r="8.86"/><path class="cls-1" d="M6419.2,1773.35a16.81,16.81,0,1,0-16.79-16.81A16.83,16.83,0,0,0,6419.2,1773.35Zm0-27.7a10.9,10.9,0,1,1-10.89,10.89A10.91,10.91,0,0,1,6419.2,1745.65Z"/><path class="cls-1" d="M6419.2,1727.55a3,3,0,0,0,3-3v-21.66a3,3,0,0,0-5.91,0v21.66A3,3,0,0,0,6419.2,1727.55Z"/><path class="cls-1" d="M6397.84,1730a3,3,0,0,0,2.65,1.65,2.86,2.86,0,0,0,1.3-.31,2.94,2.94,0,0,0,1.35-3.95l-8.67-17.63a3,3,0,1,0-5.3,2.6Z"/><path class="cls-1" d="M6437.47,1731.36a2.89,2.89,0,0,0,1.3.31,3,3,0,0,0,2.65-1.65l8.67-17.64a3,3,0,1,0-5.3-2.6l-8.67,17.63A2.94,2.94,0,0,0,6437.47,1731.36Z"/><path class="cls-1" d="M6706.54,3049.24a8.47,8.47,0,1,0-8.47-8.46A8.45,8.45,0,0,0,6706.54,3049.24Z"/><path class="cls-1" d="M6130.73,3035.31a8.46,8.46,0,1,0,8.46,8.46A8.46,8.46,0,0,0,6130.73,3035.31Z"/><path class="cls-1" d="M6238.26,2372.89a2.95,2.95,0,0,0,4.18,0l34.81-34.81a3,3,0,0,0,0-4.18l-34.81-34.81a3,3,0,0,0-4.18,4.17L6271,2336l-32.73,32.72A3,3,0,0,0,6238.26,2372.89Z"/><path class="cls-1" d="M6568.62,2338.08l34.81,34.81a3,3,0,1,0,4.18-4.18L6574.89,2336l32.72-32.73a3,3,0,1,0-4.18-4.17l-34.81,34.81A3,3,0,0,0,6568.62,2338.08Z"/><path class="cls-1" d="M6421.3,3627.59s-.07,0-.1-.06a2.9,2.9,0,0,0-4.1.08l-34.79,34.79a3,3,0,0,0,4.17,4.18l29.77-29.76v67.44a3,3,0,1,0,5.91,0V3636.8l29.77,29.78a2.93,2.93,0,0,0,4.17,0,3,3,0,0,0,0-4.18Z"/><path class="cls-1" d="M6349.72,2607.84H6373a3,3,0,1,0,0-5.91h-23.26a3,3,0,1,0,0,5.91Z"/><path class="cls-1" d="M6490.58,2601.93h-23.27a3,3,0,0,0,0,5.91h23.27a3,3,0,0,0,0-5.91Z"/><circle class="cls-1" cx="6409.88" cy="1953.53" r="2.95"/><circle class="cls-1" cx="6399.26" cy="1953.53" r="2.95"/><circle class="cls-1" cx="6389.41" cy="1953.53" r="2.95"/><circle class="cls-1" cx="6368.49" cy="2243.02" r="2.95"/><circle class="cls-1" cx="6358.4" cy="2251.88" r="2.95"/><circle class="cls-1" cx="6351.11" cy="2262.47" r="2.95"/><circle class="cls-1" cx="6368.49" cy="2426.66" r="2.95"/><circle class="cls-1" cx="6358.4" cy="2417.8" r="2.95"/><circle class="cls-1" cx="6471.81" cy="2243.02" r="2.95"/><circle class="cls-1" cx="6481.9" cy="2251.88" r="2.95"/><circle class="cls-1" cx="6489.19" cy="2262.47" r="2.95"/><circle class="cls-1" cx="6466.6" cy="2431.87" r="2.95"/><circle class="cls-1" cx="6476.69" cy="2423.01" r="2.95"/><circle class="cls-1" cx="6483.98" cy="2412.42" r="2.95"/><path class="cls-1" d="M6747.49,2966a3,3,0,0,0-4.13-.62,387.41,387.41,0,0,1-52,32.23L6477.54,2472.7c27.23-47.91,34.69-101.71,36.54-133.76H6532a2.95,2.95,0,0,0,0-5.9h-17.64c.21-5,.28-9.39.28-12.86,0-40.21-13.31-85-34.35-124.84l83.27-204.41a15.41,15.41,0,1,0-5.38-2.46l-81.54,200.17c-13.47-24.11-29.74-46.11-47.56-63.78,10.91-9.71,22-17.39,32.76-22.47a5.91,5.91,0,0,0-5.05-10.69c-11.83,5.59-23.47,13.51-34.64,23.15V2013.61l45.17-59c.06-.07.06-.16.11-.24a2.87,2.87,0,0,0,.35-.78,3.89,3.89,0,0,0,.09-.47c0-.1.06-.2.06-.3a2.47,2.47,0,0,0-.11-.54c0-.11,0-.21,0-.31l-6.67-22a2.45,2.45,0,0,0,.08-.37,3,3,0,0,0-.79-2l-38.41-127c0-.09-.1-.15-.13-.24a3.09,3.09,0,0,0-.29-.54,3.47,3.47,0,0,0-.34-.42,3.24,3.24,0,0,0-1-.63,2.15,2.15,0,0,0-.26-.14,1.1,1.1,0,0,0-.26,0,2.37,2.37,0,0,0-.59-.06,2.24,2.24,0,0,0-.58.06,1.23,1.23,0,0,0-.27,0,2.15,2.15,0,0,0-.26.14,2.42,2.42,0,0,0-.5.27,2.76,2.76,0,0,0-.46.37,4.12,4.12,0,0,0-.33.4,2.42,2.42,0,0,0-.29.55c0,.09-.11.15-.14.24l-45.78,151.4a2.91,2.91,0,0,0,.48,2.64l45.18,59v99.49a153.82,153.82,0,0,0-32.62-21.4,5.91,5.91,0,0,0-5,10.69c10.75,5.08,21.84,12.76,32.75,22.47-18.31,18.16-35,40.89-48.68,65.81l-83.58-205.19a16,16,0,1,0-5.38,2.45L6359,2197.44c-20.41,39.29-33.26,83.24-33.26,122.74,0,3.47.08,7.84.28,12.86h-17.63a3,3,0,1,0,0,5.9h17.93c1.82,31.6,9.08,84.37,35.39,131.77L6189,2894.79c-27.19-8.69-52.56-19.45-74.53-32.56a3,3,0,0,0-3,5.08c22.52,13.43,48.11,24.34,75.24,33.16l-42,103.16-39.44,27.63a3,3,0,0,0-1.22,2.88l7.66,48.18a3,3,0,0,0,2.92,2.5,2.9,2.9,0,0,0,1.69-.54l39.95-28a2.93,2.93,0,0,0,1.22-2.88l-7.47-47.13,42.33-103.94c31.72,9.9,65.43,16.9,99,21.53L6260.76,3043a2.26,2.26,0,0,0,0,.45,2.36,2.36,0,0,0,0,.59,2.61,2.61,0,0,0,.14.55,2.42,2.42,0,0,0,.19.53,2.32,2.32,0,0,0,.34.45,2,2,0,0,0,.36.41,78.4,78.4,0,0,1,.9.54c23.2,8.14,48.68,13.9,75.51,17.57l-41.74,72a3.11,3.11,0,0,0-.22.65c0,.09-.06.17-.08.26a2.23,2.23,0,0,0,0,.63,2.47,2.47,0,0,0,0,.61c0,.09.06.17.08.26a3,3,0,0,0,1,1.5c17.08,13.15,37.27,23,59.27,29.49L6323,3233.83a.35.35,0,0,0,0,.11,2.91,2.91,0,0,0,.77,3.65c24.65,19,57.45,29.49,92.5,29.8v58.83c-45.33-.26-87.7-13.76-119.42-38.18-.11-.08-.25-.11-.37-.18a3.51,3.51,0,0,0-.55-.27,2,2,0,0,0-.54-.08,2.78,2.78,0,0,0-.58-.05,3.82,3.82,0,0,0-.56.14,2.23,2.23,0,0,0-.43.1l-.11.08a2.24,2.24,0,0,0-.44.32,3.09,3.09,0,0,0-.47.4.65.65,0,0,1-.09.08,2.81,2.81,0,0,0-.17.35,2.58,2.58,0,0,0-.28.58,3.41,3.41,0,0,0-.1.54,3.51,3.51,0,0,0,0,.56,2.31,2.31,0,0,0,.14.59,2.71,2.71,0,0,0,.09.41l123.91,271.51v27.68l-33.94,33.94a3,3,0,0,0,4.17,4.18l32.73-32.73,32.72,32.73a3,3,0,0,0,4.17-4.18l-33.94-33.95V3565L6545,3291.52c.05-.14.05-.27.09-.41a2.47,2.47,0,0,0,.13-.6,2.54,2.54,0,0,0,0-.55,3.78,3.78,0,0,0-.1-.57,2.57,2.57,0,0,0-.27-.52,2.81,2.81,0,0,0-.19-.39l-.1-.08a2.86,2.86,0,0,0-.42-.36,2.33,2.33,0,0,0-.5-.36l-.1-.07a2.86,2.86,0,0,0-.42-.1,3.78,3.78,0,0,0-.56-.13,2.94,2.94,0,0,0-.66,0,2.36,2.36,0,0,0-.45.08,3,3,0,0,0-.62.31,2.39,2.39,0,0,0-.32.16c-30,23.52-72.9,37.22-118.3,38.11v-58.81c34.6-.82,67.33-11.29,90.58-29.17l.12,0a2.9,2.9,0,0,0,1.36-.33,3,3,0,0,0,1.26-4L6481.79,3169c22.09-6.54,42.13-16.36,58.37-29.1a2.9,2.9,0,0,0-.3-4.84l-41.93-72.32c66.88-9.16,133-28.47,188.86-56.32l-7,44a3,3,0,0,0,1.22,2.88l39.95,28a3,3,0,0,0,1.7.53,2.88,2.88,0,0,0,1.15-.23,2.93,2.93,0,0,0,1.76-2.26l7.66-48.18a3,3,0,0,0-1.22-2.88l-37-25.93a393.17,393.17,0,0,0,51.85-32.23A3,3,0,0,0,6747.49,2966Zm-180.38-999.4a9.45,9.45,0,1,1-9.45,9.45A9.45,9.45,0,0,1,6567.11,1966.58Zm-306.4,6.45a9.45,9.45,0,1,1,9.45,9.45A9.46,9.46,0,0,1,6260.71,1973Zm-143.95,1103.7-6.62-41.69,34.57-24.22,6.62,41.68ZM6496.49,2270a2.88,2.88,0,0,0-1.4-.39,2.95,2.95,0,1,0,0,5.9,2.89,2.89,0,0,0,2.36-1.26,211,211,0,0,1,5.39,45.93,348.61,348.61,0,0,1-10.1,81.61,2.92,2.92,0,0,0-2.85-2.42,3,3,0,1,0,2.26,4.8,263.76,263.76,0,0,1-20.36,54.4l-49.36-121.17,51.9-127.41A289.72,289.72,0,0,1,6496.49,2270Zm-78.94,902.31c-39,0-75.7-10.16-105.07-28.82h212.35C6495.78,3161.92,6457.53,3172.31,6417.55,3172.31Zm.25,89.23c-28.81,0-56-7.24-78.17-20.44h158C6475.56,3254.15,6447.33,3261.54,6417.8,3261.54Zm-70.12-202.07,68.57-118.23v119.28l-1.4,2.52A542.15,542.15,0,0,1,6347.68,3059.47Zm36,72.21,32.58-58.95v58.95Zm38.49,0v-59.11l32.66,59.11Zm0-71.32V2943.87l66.26,114.27a646.63,646.63,0,0,1-64.87,4.75Zm-3-135.84-73.41-118.76h39.55l33.93,59,33.92-59h39.55l-73.4,118.76ZM6416.25,2746l-31,53.88h-39.55l70.53-114.1Zm36.87,53.88-31-53.87v-60.23l70.51,114.1Zm-33.92-172.19a22.78,22.78,0,1,1,22.77-22.78A22.8,22.8,0,0,1,6419.2,2627.66Zm3-400.66c12.31.42,24.66,3.67,34.87,9.82l-34.87,85.61Zm-5.91,95.22-34.36-84.34c9.38-6.72,21.63-10.33,34.36-10.86Zm0,93.42a53.94,53.94,0,0,1-22.85-7l22.85-56.09Zm-25.1-1.44a59.36,59.36,0,0,0,25.1,7.36v24c-12.33-.83-24.27-4.53-33.64-10.42Zm-10.81,26.52a78.64,78.64,0,0,0,35.91,10.78v67.26c-19.41-15.91-34.06-35.16-45.1-55.45Zm41.82,79.63v-168l46,113C6456.88,2485.58,6441.9,2504.67,6422.16,2520.35Zm37.13-289.1a79,79,0,0,0-37.13-10.28v-85.78c17.92,18.36,34.91,41.84,48.63,67.85Zm-61.79-347.88h18.75V1897h-22.86Zm24.66,49.11h33.6l5.25,17.36h-38.85Zm0-5.91v-105.2l31.81,105.2Zm-5.91-49.11h-17l17-56.09Zm5.91,78.28H6459l-36.85,48.15Zm-45.48-3.54,14.92-49.34h24.65v101Zm39.57,185.14V2221c-13.39.52-26.35,4.28-36.65,11.28l-11-27.11C6382,2179.3,6398.59,2155.86,6416.25,2137.34Zm-66.42,272.5a2.76,2.76,0,0,0,1.28.32,3,3,0,1,0-2.44-4.52c-.56-2.11-1.08-4.21-1.58-6.3a2.87,2.87,0,0,0-1.16-5,349.52,349.52,0,0,1-8.33-74.13,210.26,210.26,0,0,1,5.35-45.78,2.89,2.89,0,0,0,2.25,1.11,3,3,0,1,0,0-5.9,2.84,2.84,0,0,0-1.23.28,288.57,288.57,0,0,1,21.07-57.73l51,125.24-48.49,119A260.15,260.15,0,0,1,6349.83,2409.84Zm15.67,67.33c12.46,20.79,28.78,40.29,50.18,56.15a3.4,3.4,0,0,0,.57.29v42.89a28.52,28.52,0,0,0,0,56.76v41.25L6337,2802.8l75.34,121.88c-66.27,1.3-147.5-6.7-217.61-28.16Zm-98.33,564.65,30-117.19a774.6,774.6,0,0,0,98.62,6.43q9.69,0,19-.25a2.94,2.94,0,0,0,.25.72l-73.72,127.12C6315,3055.18,6290,3049.62,6267.17,3041.82Zm143.18,27.09,1.27,0-34.7,62.79h-71.11l38.7-66.74A541.32,541.32,0,0,0,6410.35,3068.91Zm5.9,109.26v51.11H6332l30.24-58.19A218.35,218.35,0,0,0,6416.25,3178.17Zm-114,120.82c31.56,21.18,71.51,32.91,114,33.14v216.75Zm232.87.13-112.92,251.5V3332.09C6464.52,3331.28,6504.82,3319.46,6535.08,3299.12Zm-28.49-69.58a5.6,5.6,0,0,0-1.28-.26h-83.15v-51.23a227.69,227.69,0,0,0,53.79-7.47Zm24.47-97.86h-69.49l-34.86-63.08a649.37,649.37,0,0,0,64.85-5Zm-108.9-199.59v-1l.33-.54c41.17-1.57,75.72-6.75,97.13-14.18a3,3,0,0,0-1.94-5.59c-20.52,7.14-52.88,11.92-91.31,13.49l75.08-121.47-79.29-128.29v-41.25a28.52,28.52,0,0,0,0-56.76v-42.16a5.71,5.71,0,0,0,2.59-1,190.86,190.86,0,0,0,49-54.2l212.29,521.16c-56.3,28.43-123.5,48-191.27,57.08Zm298.34,141.64-34.56-24.22,6.61-41.69,34.58,24.23Z"/><circle class="cls-1" cx="4966.37" cy="2586.31" r="8.86"/><path class="cls-1" d="M4966.37,1754.77a16.8,16.8,0,1,0-16.8-16.8A16.82,16.82,0,0,0,4966.37,1754.77Zm0-27.7a10.9,10.9,0,1,1-10.89,10.9A10.9,10.9,0,0,1,4966.37,1727.07Z"/><path class="cls-1" d="M4966.37,1709a3,3,0,0,0,2.95-3v-21.65a3,3,0,1,0-5.91,0V1706A3,3,0,0,0,4966.37,1709Z"/><path class="cls-1" d="M4945,1711.44a3,3,0,0,0,2.65,1.65,2.89,2.89,0,0,0,1.3-.31,3,3,0,0,0,1.35-4l-8.67-17.63a3,3,0,0,0-5.31,2.61Z"/><path class="cls-1" d="M4984.63,1712.78a2.92,2.92,0,0,0,1.3.31,3,3,0,0,0,2.66-1.65l8.67-17.63a3,3,0,1,0-5.3-2.61l-8.67,17.63A2.94,2.94,0,0,0,4984.63,1712.78Z"/><path class="cls-1" d="M5253.7,3030.66a8.47,8.47,0,1,0-8.46-8.46A8.46,8.46,0,0,0,5253.7,3030.66Z"/><path class="cls-1" d="M4677.9,3016.74a8.46,8.46,0,1,0,8.46,8.45A8.45,8.45,0,0,0,4677.9,3016.74Z"/><path class="cls-1" d="M4785.43,2354.31a2.95,2.95,0,0,0,4.18,0l34.81-34.81a3,3,0,0,0,0-4.18l-34.81-34.81a3,3,0,0,0-4.18,4.18l32.72,32.72-32.72,32.73A3,3,0,0,0,4785.43,2354.31Z"/><path class="cls-1" d="M5115.79,2319.5l34.81,34.81a3,3,0,1,0,4.18-4.17l-32.73-32.73,32.73-32.72a3,3,0,1,0-4.18-4.18l-34.81,34.81A3,3,0,0,0,5115.79,2319.5Z"/><path class="cls-1" d="M4968.46,3609s-.07,0-.1-.06a2.9,2.9,0,0,0-2-.8,3,3,0,0,0-2.11.88l-34.79,34.79a3,3,0,1,0,4.18,4.18l29.76-29.76v67.44a3,3,0,1,0,5.91,0v-67.45l29.77,29.77a3,3,0,0,0,4.18-4.18Z"/><path class="cls-1" d="M4896.89,2589.26h23.26a3,3,0,0,0,0-5.91h-23.26a3,3,0,1,0,0,5.91Z"/><path class="cls-1" d="M5037.74,2583.35h-23.26a3,3,0,0,0,0,5.91h23.26a3,3,0,1,0,0-5.91Z"/><circle class="cls-1" cx="4957.05" cy="1934.95" r="2.95"/><circle class="cls-1" cx="4946.43" cy="1934.95" r="2.95"/><circle class="cls-1" cx="4936.57" cy="1934.95" r="2.95"/><circle class="cls-1" cx="4915.65" cy="2224.44" r="2.95"/><circle class="cls-1" cx="4905.56" cy="2233.3" r="2.95"/><circle class="cls-1" cx="4898.28" cy="2243.89" r="2.95"/><circle class="cls-1" cx="4915.65" cy="2408.09" r="2.95"/><circle class="cls-1" cx="4905.56" cy="2399.22" r="2.95"/><circle class="cls-1" cx="5018.97" cy="2224.44" r="2.95"/><circle class="cls-1" cx="5029.06" cy="2233.3" r="2.95"/><circle class="cls-1" cx="5036.35" cy="2243.9" r="2.95"/><circle class="cls-1" cx="5013.77" cy="2413.29" r="2.95"/><circle class="cls-1" cx="5023.86" cy="2404.43" r="2.95"/><circle class="cls-1" cx="5031.15" cy="2393.84" r="2.95"/><path class="cls-1" d="M5294.66,2947.4a2.94,2.94,0,0,0-4.13-.61,388.39,388.39,0,0,1-52,32.22l-213.81-524.88c27.23-47.92,34.68-101.72,36.53-133.76h17.93a3,3,0,1,0,0-5.91h-17.63c.2-5,.28-9.38.28-12.86,0-40.2-13.31-85-34.35-124.84l83.26-204.41a15.4,15.4,0,1,0-5.37-2.45l-81.54,200.16c-13.47-24.11-29.75-46.11-47.56-63.78,10.91-9.71,22-17.39,32.75-22.47a5.91,5.91,0,0,0-5.05-10.69c-11.83,5.59-23.46,13.51-34.64,23.15V1995l45.18-59c.05-.08.06-.17.11-.25a3.18,3.18,0,0,0,.34-.78,32.12,32.12,0,0,0,.16-.77,3.23,3.23,0,0,0-.11-.54,3,3,0,0,0,0-.31l-6.66-22a2.2,2.2,0,0,0,.07-.37,3,3,0,0,0-.78-2l-38.42-127c0-.1-.09-.16-.13-.25a2.81,2.81,0,0,0-.29-.54,2.72,2.72,0,0,0-.34-.42,2.6,2.6,0,0,0-.44-.35,2.53,2.53,0,0,0-.51-.28,2.15,2.15,0,0,0-.26-.14,2.45,2.45,0,0,0-.27,0,2.83,2.83,0,0,0-1.16,0c-.09,0-.18,0-.28,0s-.16.11-.26.14a3,3,0,0,0-.5.27,2.34,2.34,0,0,0-.45.37,3,3,0,0,0-.33.4,3.29,3.29,0,0,0-.3.55c0,.09-.1.15-.13.25l-45.79,151.39a3,3,0,0,0,.49,2.65l45.17,59v99.49a153.51,153.51,0,0,0-32.61-21.4,5.91,5.91,0,1,0-5.05,10.69c10.76,5.08,21.85,12.76,32.76,22.47-18.31,18.16-35,40.9-48.68,65.81l-83.59-205.19a15.92,15.92,0,1,0-5.37,2.45l85.34,209.51c-20.41,39.29-33.26,83.24-33.26,122.74,0,3.48.07,7.84.28,12.86h-17.64a3,3,0,0,0,0,5.91h17.93c1.83,31.59,9.08,84.36,35.4,131.77l-172.74,424.07c-27.19-8.69-52.56-19.45-74.53-32.56a3,3,0,0,0-3,5.08c22.52,13.43,48.11,24.34,75.24,33.17l-42,103.15-39.44,27.64a2.93,2.93,0,0,0-1.22,2.87l7.66,48.19a2.93,2.93,0,0,0,1.76,2.25,2.92,2.92,0,0,0,2.85-.3l39.95-28a2.94,2.94,0,0,0,1.22-2.88l-7.48-47.13,42.34-103.94c31.72,9.9,65.43,16.9,99,21.53l-30.52,119.18a3.54,3.54,0,0,0,0,.46,2.82,2.82,0,0,0,0,.58,3.16,3.16,0,0,0,.14.55,3.35,3.35,0,0,0,.19.53,3,3,0,0,0,.34.45,2.41,2.41,0,0,0,.37.41,2.89,2.89,0,0,0,.51.31,3.07,3.07,0,0,0,.39.23c23.2,8.14,48.67,13.9,75.51,17.57l-41.74,72a2.7,2.7,0,0,0-.22.66l-.09.25a3.33,3.33,0,0,0,0,.63,3.08,3.08,0,0,0,0,.61l.09.26a2.91,2.91,0,0,0,1,1.5c17.08,13.15,37.28,23,59.28,29.49l-33.43,64.33s0,.07,0,.11a2.91,2.91,0,0,0,.78,3.65c24.65,19,57.45,29.49,92.49,29.8v58.83c-45.32-.25-87.69-13.76-119.41-38.18-.12-.08-.25-.11-.38-.18a3.89,3.89,0,0,0-.54-.27,2.52,2.52,0,0,0-.54-.08,2.83,2.83,0,0,0-.58,0,2.77,2.77,0,0,0-.57.13,2.13,2.13,0,0,0-.42.1l-.11.08a3.37,3.37,0,0,0-.45.32,3,3,0,0,0-.46.41s-.07,0-.09.08a1.54,1.54,0,0,0-.17.34,3.14,3.14,0,0,0-.29.58,3.38,3.38,0,0,0-.09.54,2.69,2.69,0,0,0,0,.57,2.5,2.5,0,0,0,.13.59,2.92,2.92,0,0,0,.1.4l123.9,271.51v27.68l-33.94,33.94a3,3,0,1,0,4.18,4.18l32.72-32.73,32.72,32.73a3,3,0,0,0,4.18,0,3,3,0,0,0,0-4.18l-34-33.95v-25.75l122.82-273.52c.06-.14,0-.27.1-.41a3.06,3.06,0,0,0,.13-.6,2.55,2.55,0,0,0,0-.55,2.84,2.84,0,0,0-.1-.57,2.53,2.53,0,0,0-.26-.52,2.05,2.05,0,0,0-.2-.39s-.07,0-.09-.08a2.93,2.93,0,0,0-.43-.36,2.54,2.54,0,0,0-.5-.36l-.09-.07a3.2,3.2,0,0,0-.42-.1,2.8,2.8,0,0,0-.56-.12,2.42,2.42,0,0,0-.66,0,3.54,3.54,0,0,0-.45.08,2.77,2.77,0,0,0-.62.31,2.39,2.39,0,0,0-.32.16c-30,23.52-72.91,37.22-118.31,38.11V3248.7c34.61-.82,67.34-11.29,90.58-29.17.05,0,.08,0,.13,0a2.9,2.9,0,0,0,1.36-.33,3,3,0,0,0,1.26-4L5029,3150.43c22.08-6.54,42.13-16.35,58.37-29.1a3,3,0,0,0,.5-4.15,2.73,2.73,0,0,0-.8-.68l-41.94-72.32c66.88-9.17,133-28.48,188.87-56.33l-7,44a3,3,0,0,0,1.22,2.88l39.95,28a3,3,0,0,0,1.69.53,2.93,2.93,0,0,0,2.92-2.49l7.66-48.18a3,3,0,0,0-1.22-2.88l-37-25.93a393.3,393.3,0,0,0,51.86-32.23A3,3,0,0,0,5294.66,2947.4ZM5114.28,1948a9.45,9.45,0,1,1-9.45,9.45A9.46,9.46,0,0,1,5114.28,1948Zm-306.4,6.45a9.45,9.45,0,1,1,9.44,9.45A9.45,9.45,0,0,1,4807.88,1954.45Zm-143.95,1103.7-6.62-41.69,34.57-24.22,6.61,41.68Zm379.73-806.72a2.84,2.84,0,0,0-1.4-.4,3,3,0,0,0,0,5.91,2.89,2.89,0,0,0,2.36-1.27,211,211,0,0,1,5.38,45.93,348.06,348.06,0,0,1-10.1,81.61,2.91,2.91,0,0,0-2.84-2.41,3,3,0,1,0,2.25,4.8A264.72,264.72,0,0,1,5019,2440l-49.36-121.18,51.9-127.41A289.6,289.6,0,0,1,5043.66,2251.43Zm-78.94,902.3c-39,0-75.7-10.16-105.07-28.82H5072C5043,3143.34,5004.69,3153.73,4964.72,3153.73ZM4965,3243c-28.81,0-56-7.24-78.18-20.44h158C5022.73,3235.57,4994.5,3243,4965,3243Zm-70.12-202.07,68.56-118.23v119.28l-1.39,2.52A542.15,542.15,0,0,1,4894.85,3040.89Zm36,72.21,32.58-58.95v58.95Zm38.49,0V3054L5002,3113.1Zm0-71.32V2925.29l66.26,114.27a643.5,643.5,0,0,1-64.86,4.75Zm-3-135.84-73.41-118.76h39.55l33.93,59,33.92-59h39.55l-73.4,118.76Zm-2.89-178.55-31,53.88h-39.55l70.52-114.1Zm36.88,53.88-31-53.87v-60.23l70.52,114.1Zm-33.92-172.19a22.78,22.78,0,1,1,22.77-22.77A22.8,22.8,0,0,1,4966.37,2609.08Zm2.95-400.66c12.32.42,24.67,3.67,34.87,9.82l-34.87,85.61Zm-5.91,95.22-34.35-84.34c9.38-6.72,21.63-10.33,34.35-10.86Zm0,93.42a54,54,0,0,1-22.84-7l22.84-56.1Zm-25.09-1.44a59.32,59.32,0,0,0,25.09,7.36v24c-12.33-.83-24.27-4.53-33.63-10.42Zm-10.81,26.53a78.63,78.63,0,0,0,35.9,10.77v67.26c-19.41-15.91-34.05-35.16-45.1-55.45Zm41.81,79.62v-168l46,113C5004,2467,4989.06,2486.09,4969.32,2501.77Zm37.14-289.1a79.07,79.07,0,0,0-37.14-10.28v-85.78c17.93,18.36,34.91,41.84,48.63,67.85Zm-61.8-347.88h18.75v13.58h-22.86Zm24.66,49.11h33.61l5.25,17.36h-38.86Zm0-5.91v-105.2l31.82,105.2Zm-5.91-49.11h-17l17-56.09Zm5.91,78.29h36.85l-36.85,48.14Zm-45.47-3.55,14.92-49.34h24.64v101Zm39.56,185.14v83.65c-13.38.52-26.34,4.28-36.64,11.28l-11-27.11C4929.12,2160.72,4945.76,2137.29,4963.41,2118.76ZM4897,2391.26a2.8,2.8,0,0,0,1.29.32,3,3,0,1,0-2.45-4.52c-.55-2.11-1.07-4.2-1.58-6.29a2.87,2.87,0,0,0-1.16-5,349.65,349.65,0,0,1-8.33-74.14,210.87,210.87,0,0,1,5.35-45.78,2.92,2.92,0,0,0,2.26,1.12,3,3,0,0,0,0-5.91,2.79,2.79,0,0,0-1.23.29,287.79,287.79,0,0,1,21.06-57.74l51,125.24-48.49,119A261,261,0,0,1,4897,2391.26Zm15.68,67.33c12.46,20.79,28.77,40.3,50.18,56.16a4.87,4.87,0,0,0,.56.28v42.9a28.52,28.52,0,0,0,0,56.76v41.24l-79.29,128.29,75.33,121.88c-66.26,1.3-147.49-6.69-217.6-28.16Zm-98.34,564.65,30-117.19a774.43,774.43,0,0,0,98.62,6.44q9.69,0,19-.26a3.21,3.21,0,0,0,.24.72l-73.71,127.12C4862.17,3036.6,4837.19,3031,4814.33,3023.24Zm143.19,27.09,1.27,0-34.71,62.79H4853l38.7-66.74A539.2,539.2,0,0,0,4957.52,3050.33Zm5.89,109.26v51.11h-84.22l30.25-58.19A217.79,217.79,0,0,0,4963.41,3159.59Zm-114,120.82c31.56,21.18,71.52,32.91,114,33.14V3530.3Zm232.88.13L4969.32,3532V3313.51C5011.69,3312.7,5052,3300.88,5082.25,3280.54ZM5053.76,3211a5.6,5.6,0,0,0-1.28-.26h-83.16v-51.23a227.77,227.77,0,0,0,53.8-7.47Zm24.47-97.86h-69.49L4973.88,3050c21.43-.58,43.14-2.29,64.84-5.06Zm-108.91-199.59v-1l.34-.54c41.17-1.57,75.72-6.75,97.13-14.18a3,3,0,1,0-1.94-5.58c-20.52,7.13-52.88,11.91-91.31,13.48l75.07-121.47-79.29-128.29v-41.24a28.52,28.52,0,0,0,0-56.76v-42.17a5.85,5.85,0,0,0,2.6-1,190.84,190.84,0,0,0,49-54.21l212.29,521.16c-56.3,28.44-123.49,48-191.27,57.08Zm298.35,141.64-34.57-24.22,6.62-41.69,34.57,24.23Z"/><circle class="cls-2" cx="5657.49" cy="1519.9" r="8.86"/><path class="cls-2" d="M5657.49,688.36a16.8,16.8,0,1,0-16.8-16.8A16.81,16.81,0,0,0,5657.49,688.36Zm0-27.69a10.9,10.9,0,1,1-10.89,10.89A10.9,10.9,0,0,1,5657.49,660.67Z"/><path class="cls-2" d="M5657.49,642.57a3,3,0,0,0,2.95-3V618a3,3,0,0,0-5.91,0v21.66A3,3,0,0,0,5657.49,642.57Z"/><path class="cls-2" d="M5636.12,645a3,3,0,0,0,2.66,1.65,2.92,2.92,0,0,0,1.3-.31,3,3,0,0,0,1.35-4l-8.68-17.63a3,3,0,1,0-5.3,2.6Z"/><path class="cls-2" d="M5675.75,646.38a2.89,2.89,0,0,0,1.3.31,3,3,0,0,0,2.66-1.65l8.67-17.64a3,3,0,1,0-5.3-2.6l-8.68,17.63A3,3,0,0,0,5675.75,646.38Z"/><path class="cls-2" d="M5944.82,1964.26a8.47,8.47,0,1,0-8.46-8.46A8.46,8.46,0,0,0,5944.82,1964.26Z"/><path class="cls-2" d="M5369,1950.33a8.46,8.46,0,1,0,8.47,8.46A8.45,8.45,0,0,0,5369,1950.33Z"/><path class="cls-2" d="M5476.55,1287.91a2.93,2.93,0,0,0,4.17,0l34.82-34.81a3,3,0,0,0,0-4.18l-34.82-34.81a2.95,2.95,0,0,0-4.17,4.17l32.72,32.73-32.72,32.72A3,3,0,0,0,5476.55,1287.91Z"/><path class="cls-2" d="M5806.9,1253.1l34.82,34.81a3,3,0,1,0,4.17-4.18L5813.17,1251l32.72-32.73a2.95,2.95,0,0,0-4.17-4.17l-34.82,34.81A3,3,0,0,0,5806.9,1253.1Z"/><path class="cls-2" d="M5659.58,2542.61a.53.53,0,0,0-.1-.06,2.9,2.9,0,0,0-4.1.08l-34.79,34.79a3,3,0,1,0,4.18,4.18l29.76-29.76v67.44a3,3,0,0,0,5.91,0v-67.46l29.77,29.78a3,3,0,1,0,4.18-4.18Z"/><path class="cls-2" d="M5588,1522.86h23.27a3,3,0,0,0,0-5.91H5588a3,3,0,0,0,0,5.91Z"/><path class="cls-2" d="M5728.86,1517H5705.6a3,3,0,1,0,0,5.91h23.26a3,3,0,0,0,0-5.91Z"/><circle class="cls-2" cx="5648.17" cy="868.55" r="2.95"/><circle class="cls-2" cx="5637.55" cy="868.55" r="2.95"/><circle class="cls-2" cx="5627.69" cy="868.55" r="2.95"/><circle class="cls-2" cx="5606.77" cy="1158.04" r="2.95"/><circle class="cls-2" cx="5596.68" cy="1166.9" r="2.95"/><circle class="cls-2" cx="5589.39" cy="1177.49" r="2.95"/><circle class="cls-2" cx="5606.77" cy="1341.68" r="2.95"/><circle class="cls-2" cx="5596.68" cy="1332.82" r="2.95"/><circle class="cls-2" cx="5710.09" cy="1158.04" r="2.95"/><circle class="cls-2" cx="5720.18" cy="1166.9" r="2.95"/><circle class="cls-2" cx="5727.47" cy="1177.49" r="2.95"/><circle class="cls-2" cx="5704.89" cy="1346.89" r="2.95"/><circle class="cls-2" cx="5714.98" cy="1338.02" r="2.95"/><circle class="cls-2" cx="5722.27" cy="1327.44" r="2.95"/><path class="cls-2" d="M5985.78,1881a3,3,0,0,0-4.13-.61,388.43,388.43,0,0,1-52,32.23l-213.81-524.89c27.23-47.91,34.68-101.71,36.53-133.76h17.93a3,3,0,0,0,0-5.9h-17.63c.2-5,.28-9.39.28-12.86,0-40.21-13.31-85-34.36-124.84L5801.85,906a15.41,15.41,0,1,0-5.38-2.46l-81.53,200.17c-13.48-24.12-29.75-46.11-47.57-63.78,10.92-9.71,22-17.39,32.76-22.47a5.91,5.91,0,0,0-5.05-10.69c-11.83,5.59-23.47,13.51-34.64,23.15V928.63l45.18-59c.05-.07.06-.16.11-.24a3.18,3.18,0,0,0,.34-.78,2.63,2.63,0,0,0,.1-.47c0-.1.06-.2.06-.3a3.23,3.23,0,0,0-.11-.54,3,3,0,0,0,0-.31l-6.66-22c0-.13.07-.24.07-.37a3,3,0,0,0-.78-2l-38.42-127c0-.09-.09-.15-.13-.25a3.19,3.19,0,0,0-.63-.95,2.56,2.56,0,0,0-.44-.36,2.33,2.33,0,0,0-.52-.27c-.09,0-.16-.11-.25-.14a1.23,1.23,0,0,0-.27,0,2.83,2.83,0,0,0-1.16,0,1.27,1.27,0,0,0-.28,0,2.15,2.15,0,0,0-.26.14,2.42,2.42,0,0,0-.5.27,2.76,2.76,0,0,0-.46.37c-.12.13-.22.26-.33.4a2.89,2.89,0,0,0-.29.55c0,.09-.1.15-.13.24L5608.87,867a2.94,2.94,0,0,0,.48,2.64l45.18,59v99.49a153.38,153.38,0,0,0-32.61-21.4,5.91,5.91,0,1,0-5.05,10.69c10.76,5.08,21.84,12.76,32.76,22.47-18.32,18.16-35,40.89-48.69,65.81L5517.36,900.5A16,16,0,1,0,5512,903l85.35,209.51c-20.41,39.29-33.26,83.24-33.26,122.74,0,3.47.07,7.84.28,12.86h-17.64a3,3,0,1,0,0,5.9h17.93c1.82,31.6,9.08,84.37,35.4,131.77l-172.75,424.08c-27.19-8.69-52.55-19.45-74.52-32.56a3,3,0,1,0-3,5.07c22.52,13.44,48.11,24.35,75.24,33.17l-42,103.16-39.44,27.63a3,3,0,0,0-1.22,2.88l7.66,48.18a2.93,2.93,0,0,0,1.76,2.26,2.89,2.89,0,0,0,1.15.24,2.93,2.93,0,0,0,1.7-.54l40-28a3,3,0,0,0,1.22-2.88l-7.48-47.13,42.34-103.94c31.72,9.9,65.43,16.9,98.95,21.53L5499,1958.06a2.26,2.26,0,0,0,0,.45,3,3,0,0,0,0,.59,2.61,2.61,0,0,0,.14.55,4.25,4.25,0,0,0,.19.53,3.54,3.54,0,0,0,.34.45,2.86,2.86,0,0,0,.36.41,3.4,3.4,0,0,0,.52.31,3.07,3.07,0,0,0,.39.23c23.2,8.14,48.67,13.9,75.5,17.57l-41.73,72a2.63,2.63,0,0,0-.22.65,2.67,2.67,0,0,0-.09.26,3.33,3.33,0,0,0,0,.63,3.08,3.08,0,0,0,0,.61,2.67,2.67,0,0,0,.09.26,2.89,2.89,0,0,0,1,1.5c17.08,13.15,37.28,23,59.27,29.49l-33.43,64.33s0,.07,0,.1a2.91,2.91,0,0,0,.78,3.66c24.64,19,57.44,29.49,92.49,29.8v58.83c-45.32-.26-87.7-13.76-119.41-38.18a2.64,2.64,0,0,0-.38-.18,3.89,3.89,0,0,0-.54-.27,2.09,2.09,0,0,0-.55-.08,2.69,2.69,0,0,0-.57-.05,3.65,3.65,0,0,0-.57.14,2.13,2.13,0,0,0-.42.1.44.44,0,0,0-.11.08,2.31,2.31,0,0,0-.45.32,3.67,3.67,0,0,0-.47.4s-.06.05-.09.08a3.78,3.78,0,0,0-.17.35,2.58,2.58,0,0,0-.28.58,2.44,2.44,0,0,0-.09.54,3.52,3.52,0,0,0,0,.56,2.82,2.82,0,0,0,.14.59,2.71,2.71,0,0,0,.09.41l123.91,271.51v27.68l-33.94,33.94a3,3,0,1,0,4.18,4.18l32.72-32.73,32.72,32.73a3,3,0,1,0,4.18-4.18l-34-34v-25.75l122.82-273.53a2.59,2.59,0,0,0,.09-.4,3.08,3.08,0,0,0,.14-.6,3.39,3.39,0,0,0,0-.55,2.84,2.84,0,0,0-.1-.57,2.53,2.53,0,0,0-.26-.52c-.08-.13-.11-.27-.2-.39l-.1-.08a2.05,2.05,0,0,0-.42-.36,2.11,2.11,0,0,0-.5-.36l-.09-.07a3,3,0,0,0-.43-.1,3.27,3.27,0,0,0-.56-.13,2.85,2.85,0,0,0-.65,0,2.11,2.11,0,0,0-.45.08,3.07,3.07,0,0,0-.63.31,2.39,2.39,0,0,0-.32.16c-30,23.52-72.9,37.22-118.3,38.11V2182.3c34.6-.82,67.34-11.29,90.58-29.17l.12,0a2.87,2.87,0,0,0,1.36-.33,3,3,0,0,0,1.26-4L5720.07,2084c22.09-6.53,42.14-16.35,58.38-29.09a3,3,0,0,0,.5-4.15,2.91,2.91,0,0,0-.8-.69l-41.94-72.32c66.88-9.16,133-28.48,188.87-56.32l-7,44a2.94,2.94,0,0,0,1.22,2.88l40,28a2.9,2.9,0,0,0,1.69.54,2.81,2.81,0,0,0,1.16-.24,2.94,2.94,0,0,0,1.76-2.25l7.65-48.18a2.92,2.92,0,0,0-1.22-2.88l-37-25.93a393.3,393.3,0,0,0,51.86-32.23A3,3,0,0,0,5985.78,1881ZM5805.39,881.6a9.45,9.45,0,1,1-9.44,9.45A9.46,9.46,0,0,1,5805.39,881.6ZM5499,888.05a9.45,9.45,0,1,1,9.44,9.45A9.45,9.45,0,0,1,5499,888.05Zm-143.95,1103.7-6.63-41.69,34.58-24.22,6.61,41.68ZM5734.77,1185a2.87,2.87,0,0,0-1.39-.39,3,3,0,1,0,0,5.9,2.92,2.92,0,0,0,2.36-1.26,211,211,0,0,1,5.38,45.93,348.06,348.06,0,0,1-10.1,81.61,2.91,2.91,0,0,0-2.85-2.42,3,3,0,0,0,0,5.91,2.91,2.91,0,0,0,2.26-1.11,263.76,263.76,0,0,1-20.36,54.4l-49.35-121.17,51.9-127.41A289.69,289.69,0,0,1,5734.77,1185Zm-78.93,902.31c-39,0-75.71-10.17-105.07-28.82h212.34C5734.06,2076.94,5695.81,2087.33,5655.84,2087.33Zm.24,89.23c-28.8,0-56-7.24-78.17-20.45h158C5713.85,2169.17,5685.62,2176.56,5656.08,2176.56ZM5586,1974.49l68.56-118.23v119.27l-1.39,2.53A542.15,542.15,0,0,1,5586,1974.49Zm36,72.21,32.58-59v59Zm38.49,0v-59.11l32.67,59.11Zm0-71.32V1858.89l66.26,114.27a646.65,646.65,0,0,1-64.86,4.75Zm-3-135.84L5584,1720.78h39.55l33.93,59,33.92-59H5731l-73.4,118.75ZM5654.53,1661l-31,53.88H5584l70.52-114.1Zm36.88,53.88-31-53.87v-60.23l70.52,114.1Zm-33.92-172.19a22.78,22.78,0,1,1,22.77-22.78A22.81,22.81,0,0,1,5657.49,1542.68Zm2.95-400.66c12.32.42,24.66,3.67,34.87,9.82l-34.87,85.6Zm-5.91,95.22-34.36-84.34c9.39-6.72,21.64-10.34,34.36-10.86Zm0,93.42a54,54,0,0,1-22.85-7l22.85-56.09Zm-25.1-1.44a59.55,59.55,0,0,0,25.1,7.36v24c-12.33-.84-24.27-4.53-33.63-10.42Zm-10.8,26.52a78.57,78.57,0,0,0,35.9,10.78v67.26c-19.41-15.91-34.05-35.16-45.1-55.45Zm41.81,79.63v-168l46,113C5695.16,1400.6,5680.18,1419.69,5660.44,1435.37Zm37.14-289.1a79,79,0,0,0-37.14-10.28v-85.78c17.93,18.36,34.91,41.84,48.63,67.85Zm-61.8-347.88h18.75V812h-22.86Zm24.66,49.11H5694l5.25,17.35h-38.85Zm0-5.91V736.39l31.82,105.2Zm-5.91-49.11h-17l17-56.09Zm5.91,78.28h36.85l-36.85,48.15ZM5615,867.21l14.92-49.33h24.65v101Zm39.57,185.15V1136c-13.39.52-26.35,4.28-36.64,11.27l-11-27.1C5620.24,1094.32,5636.87,1070.88,5654.53,1052.36Zm-66.42,272.5a2.79,2.79,0,0,0,1.28.32,3,3,0,1,0-2.44-4.52c-.55-2.11-1.07-4.21-1.58-6.3a2.87,2.87,0,0,0-1.16-5,349.52,349.52,0,0,1-8.33-74.13,210.87,210.87,0,0,1,5.35-45.78,2.91,2.91,0,0,0,2.26,1.11,2.95,2.95,0,0,0,0-5.9,2.86,2.86,0,0,0-1.24.28,288.57,288.57,0,0,1,21.07-57.73l51,125.24-48.49,119A261,261,0,0,1,5588.11,1324.86Zm15.67,67.33c12.47,20.79,28.78,40.29,50.19,56.15a3.31,3.31,0,0,0,.56.29v42.89a28.52,28.52,0,0,0,0,56.76v41.25l-79.3,128.29,75.34,121.88c-66.27,1.3-147.5-6.7-217.6-28.16Zm-98.33,564.65,30-117.19a774.63,774.63,0,0,0,98.63,6.43q9.69,0,19-.25a3.38,3.38,0,0,0,.24.72l-73.72,127.12C5553.29,1970.2,5528.31,1964.64,5505.45,1956.84Zm143.19,27.09,1.26,0-34.7,62.79h-71.1l38.7-66.74A541.2,541.2,0,0,0,5648.64,1983.93Zm5.89,109.26v51.11h-84.22l30.25-58.19A218.2,218.2,0,0,0,5654.53,2093.19Zm-114,120.82c31.56,21.18,71.51,32.91,114,33.14V2463.9Zm232.88.13-112.93,251.5V2247.11C5702.8,2246.3,5743.1,2234.48,5773.37,2214.14Zm-28.49-69.58a5.6,5.6,0,0,0-1.28-.26h-83.16v-51.23a227.69,227.69,0,0,0,53.79-7.47Zm24.46-97.86h-69.48L5665,1983.62a649.4,649.4,0,0,0,64.84-5Zm-108.9-199.59v-1l.33-.54c41.18-1.58,75.73-6.75,97.13-14.18a3,3,0,0,0-1.93-5.59c-20.53,7.14-52.88,11.92-91.31,13.49l75.07-121.47-79.29-128.29v-41.25a28.52,28.52,0,0,0,0-56.76v-42.16a5.67,5.67,0,0,0,2.59-1,190.86,190.86,0,0,0,49-54.2l212.29,521.15c-56.3,28.44-123.49,48-191.27,57.09Zm298.35,141.64-34.57-24.22,6.62-41.69,34.57,24.23Z"/><circle class="cls-1" cx="1815.47" cy="2682.91" r="8.86"/><path class="cls-1" d="M1815.47,1851.37a16.8,16.8,0,1,0-16.8-16.8A16.81,16.81,0,0,0,1815.47,1851.37Zm0-27.69a10.9,10.9,0,1,1-10.89,10.89A10.9,10.9,0,0,1,1815.47,1823.68Z"/><path class="cls-1" d="M1815.47,1805.58a3,3,0,0,0,3-3V1781a3,3,0,0,0-5.91,0v21.66A3,3,0,0,0,1815.47,1805.58Z"/><path class="cls-1" d="M1794.1,1808.05a3,3,0,0,0,2.66,1.65,2.92,2.92,0,0,0,1.3-.31,3,3,0,0,0,1.35-4l-8.68-17.63a3,3,0,0,0-5.3,2.6Z"/><path class="cls-1" d="M1833.73,1809.39a2.89,2.89,0,0,0,1.3.31,3,3,0,0,0,2.66-1.65l8.67-17.64a3,3,0,0,0-5.3-2.6l-8.68,17.63A3,3,0,0,0,1833.73,1809.39Z"/><path class="cls-1" d="M2102.8,3127.27a8.47,8.47,0,1,0-8.47-8.46A8.46,8.46,0,0,0,2102.8,3127.27Z"/><path class="cls-1" d="M1527,3113.34a8.46,8.46,0,1,0,8.47,8.46A8.45,8.45,0,0,0,1527,3113.34Z"/><path class="cls-1" d="M1634.53,2450.92a2.93,2.93,0,0,0,4.17,0l34.82-34.81a3,3,0,0,0,0-4.18l-34.82-34.81a2.95,2.95,0,0,0-4.17,4.17l32.72,32.73-32.72,32.72A3,3,0,0,0,1634.53,2450.92Z"/><path class="cls-1" d="M1964.88,2416.11l34.82,34.81a3,3,0,0,0,4.17-4.18L1971.15,2414l32.72-32.73a2.95,2.95,0,0,0-4.17-4.17l-34.82,34.81A3,3,0,0,0,1964.88,2416.11Z"/><path class="cls-1" d="M1817.56,3705.62a.53.53,0,0,0-.1-.06,2.9,2.9,0,0,0-4.1.08l-34.79,34.79a3,3,0,1,0,4.18,4.18l29.76-29.76v67.44a3,3,0,0,0,5.91,0v-67.46l29.77,29.78a3,3,0,1,0,4.18-4.18Z"/><path class="cls-1" d="M1746,2685.87h23.27a3,3,0,0,0,0-5.91H1746a3,3,0,0,0,0,5.91Z"/><path class="cls-1" d="M1886.84,2680h-23.26a3,3,0,1,0,0,5.91h23.26a3,3,0,0,0,0-5.91Z"/><circle class="cls-1" cx="1806.15" cy="2031.56" r="2.95"/><circle class="cls-1" cx="1795.53" cy="2031.56" r="2.95"/><circle class="cls-1" cx="1785.67" cy="2031.56" r="2.95"/><circle class="cls-1" cx="1764.75" cy="2321.05" r="2.95"/><circle class="cls-1" cx="1754.66" cy="2329.91" r="2.95"/><circle class="cls-1" cx="1747.37" cy="2340.5" r="2.95"/><circle class="cls-1" cx="1764.75" cy="2504.69" r="2.95"/><circle class="cls-1" cx="1754.66" cy="2495.83" r="2.95"/><circle class="cls-1" cx="1868.07" cy="2321.05" r="2.95"/><circle class="cls-1" cx="1878.16" cy="2329.91" r="2.95"/><circle class="cls-1" cx="1885.45" cy="2340.5" r="2.95"/><circle class="cls-1" cx="1862.87" cy="2509.9" r="2.95"/><circle class="cls-1" cx="1872.96" cy="2501.03" r="2.95"/><circle class="cls-1" cx="1880.25" cy="2490.45" r="2.95"/><path class="cls-1" d="M2143.76,3044a3,3,0,0,0-4.13-.61,388.43,388.43,0,0,1-52,32.23l-213.81-524.89c27.23-47.91,34.68-101.71,36.53-133.76h17.93a2.95,2.95,0,1,0,0-5.9h-17.63c.2-5,.28-9.39.28-12.86,0-40.21-13.31-85-34.36-124.84L1959.83,2069a15.41,15.41,0,1,0-5.38-2.46l-81.53,200.17c-13.48-24.12-29.75-46.11-47.57-63.78,10.92-9.71,22-17.39,32.76-22.47a5.91,5.91,0,0,0-5-10.69c-11.83,5.59-23.47,13.51-34.64,23.15V2091.64l45.18-59c.05-.07.06-.16.11-.24a3.18,3.18,0,0,0,.34-.78,2.63,2.63,0,0,0,.1-.47c0-.1.06-.2.06-.3a3.23,3.23,0,0,0-.11-.54,3,3,0,0,0,0-.31l-6.66-22c0-.13.07-.24.07-.37a3,3,0,0,0-.78-2l-38.42-127c0-.09-.09-.15-.13-.25a3.19,3.19,0,0,0-.63-1,2.56,2.56,0,0,0-.44-.36,2.33,2.33,0,0,0-.52-.27c-.09,0-.16-.11-.25-.14a1.23,1.23,0,0,0-.27,0,2.83,2.83,0,0,0-1.16,0,1.27,1.27,0,0,0-.28,0,2.15,2.15,0,0,0-.26.14,2.42,2.42,0,0,0-.5.27,2.76,2.76,0,0,0-.46.37c-.12.13-.22.26-.33.4a2.89,2.89,0,0,0-.29.55c0,.09-.1.15-.13.24L1766.85,2030a2.94,2.94,0,0,0,.48,2.64l45.18,59v99.49a153.38,153.38,0,0,0-32.61-21.4,5.91,5.91,0,0,0-5.05,10.69c10.76,5.08,21.84,12.76,32.76,22.47-18.32,18.16-35,40.89-48.69,65.81l-83.58-205.19A16,16,0,1,0,1670,2066l85.35,209.51c-20.41,39.29-33.26,83.24-33.26,122.74,0,3.47.07,7.84.28,12.86h-17.64a3,3,0,0,0,0,5.9h17.93c1.82,31.6,9.08,84.37,35.4,131.77l-172.75,424.08c-27.19-8.69-52.55-19.45-74.52-32.56a3,3,0,1,0-3,5.07c22.52,13.44,48.11,24.35,75.24,33.17l-42,103.16-39.44,27.63a3,3,0,0,0-1.22,2.88l7.66,48.18a2.93,2.93,0,0,0,1.76,2.26,2.89,2.89,0,0,0,1.15.24,2.93,2.93,0,0,0,1.7-.54l40-28a3,3,0,0,0,1.22-2.88l-7.48-47.13,42.34-103.94c31.72,9.9,65.43,16.9,99,21.53L1657,3121.07a2.26,2.26,0,0,0,0,.45,3,3,0,0,0,0,.59,2.61,2.61,0,0,0,.14.55,4.25,4.25,0,0,0,.19.53,3.54,3.54,0,0,0,.34.45,2.86,2.86,0,0,0,.36.41,3.4,3.4,0,0,0,.52.31,3.07,3.07,0,0,0,.39.23c23.2,8.14,48.67,13.9,75.5,17.57l-41.73,72a2.63,2.63,0,0,0-.22.65,2.67,2.67,0,0,0-.09.26,3.33,3.33,0,0,0,0,.63,3.08,3.08,0,0,0,0,.61,2.67,2.67,0,0,0,.09.26,2.89,2.89,0,0,0,1,1.5c17.08,13.15,37.27,23,59.27,29.49l-33.43,64.32s0,.08,0,.11a2.91,2.91,0,0,0,.78,3.66c24.64,19,57.44,29.49,92.49,29.8v58.83c-45.32-.26-87.7-13.76-119.41-38.18a2.64,2.64,0,0,0-.38-.18,3.89,3.89,0,0,0-.54-.27,2.09,2.09,0,0,0-.55-.08,2.69,2.69,0,0,0-.57-.05,3.65,3.65,0,0,0-.57.14,2.13,2.13,0,0,0-.42.1.44.44,0,0,0-.11.08,2.31,2.31,0,0,0-.45.32,3.67,3.67,0,0,0-.47.4s-.06,0-.09.08a3.78,3.78,0,0,0-.17.35,2.58,2.58,0,0,0-.28.58,2.44,2.44,0,0,0-.09.54,3.52,3.52,0,0,0,0,.56,2.82,2.82,0,0,0,.14.59,2.71,2.71,0,0,0,.09.41l123.91,271.51v27.68l-33.94,33.94a3,3,0,0,0,4.18,4.18l32.72-32.73,32.72,32.73a3,3,0,0,0,4.18-4.18l-33.95-33.95v-25.75l122.82-273.53a2.59,2.59,0,0,0,.09-.4,3.08,3.08,0,0,0,.14-.6,3.39,3.39,0,0,0,0-.55,2.84,2.84,0,0,0-.1-.57,2.53,2.53,0,0,0-.26-.52c-.08-.13-.11-.27-.2-.39l-.1-.08a2.05,2.05,0,0,0-.42-.36,2.11,2.11,0,0,0-.5-.36l-.09-.07a3,3,0,0,0-.43-.1,3.27,3.27,0,0,0-.56-.13,2.85,2.85,0,0,0-.65.05,2.11,2.11,0,0,0-.45.08,3.07,3.07,0,0,0-.63.31,2.39,2.39,0,0,0-.32.16c-30,23.52-72.9,37.22-118.3,38.11v-58.81c34.6-.82,67.34-11.29,90.58-29.17,0,0,.08,0,.12,0a2.87,2.87,0,0,0,1.36-.33,3,3,0,0,0,1.26-4L1878.05,3247c22.09-6.53,42.13-16.35,58.38-29.09a3,3,0,0,0,.5-4.15,2.91,2.91,0,0,0-.8-.69l-41.94-72.32c66.88-9.16,133-28.48,188.87-56.32l-7,44a2.92,2.92,0,0,0,1.22,2.87l39.95,28a2.88,2.88,0,0,0,1.69.54,2.81,2.81,0,0,0,1.16-.24,2.94,2.94,0,0,0,1.76-2.25l7.65-48.18a2.92,2.92,0,0,0-1.22-2.88l-37-25.93a393.3,393.3,0,0,0,51.86-32.23A3,3,0,0,0,2143.76,3044Zm-180.39-999.39a9.45,9.45,0,1,1-9.44,9.45A9.46,9.46,0,0,1,1963.37,2044.61ZM1657,2051.06a9.45,9.45,0,1,1,9.44,9.45A9.45,9.45,0,0,1,1657,2051.06Zm-144,1103.7-6.63-41.69,34.58-24.22,6.61,41.68ZM1892.75,2348a2.87,2.87,0,0,0-1.39-.39,3,3,0,1,0,0,5.9,2.92,2.92,0,0,0,2.36-1.26,211,211,0,0,1,5.38,45.93,348.61,348.61,0,0,1-10.1,81.61,2.91,2.91,0,0,0-2.85-2.42,3,3,0,0,0,0,5.91,2.91,2.91,0,0,0,2.26-1.11,263.76,263.76,0,0,1-20.36,54.4l-49.35-121.17L1870.6,2288A289.69,289.69,0,0,1,1892.75,2348Zm-78.93,902.31c-39,0-75.71-10.17-105.07-28.82h212.34C1892,3240,1853.79,3250.34,1813.82,3250.34Zm.24,89.23c-28.8,0-56-7.24-78.17-20.45h158C1871.83,3332.18,1843.6,3339.57,1814.06,3339.57ZM1744,3137.5l68.56-118.23v119.27l-1.39,2.53A542,542,0,0,1,1744,3137.5Zm36,72.21,32.58-58.95v58.95Zm38.49,0V3150.6l32.67,59.11Zm0-71.32V3021.9l66.26,114.27a646.65,646.65,0,0,1-64.86,4.75Zm-3-135.84L1742,2883.79h39.55l33.93,59,33.92-59h39.55l-73.4,118.75ZM1812.51,2824l-31,53.88H1742l70.52-114.1Zm36.88,53.88-31-53.87v-60.23l70.52,114.1Zm-33.92-172.19a22.78,22.78,0,1,1,22.77-22.78A22.81,22.81,0,0,1,1815.47,2705.69Zm3-400.66c12.32.42,24.66,3.67,34.87,9.82l-34.87,85.6Zm-5.91,95.22-34.36-84.34c9.39-6.72,21.64-10.34,34.36-10.86Zm0,93.42a54,54,0,0,1-22.85-7l22.85-56.09Zm-25.1-1.44a59.55,59.55,0,0,0,25.1,7.36v24c-12.33-.84-24.27-4.53-33.63-10.42Zm-10.8,26.52a78.57,78.57,0,0,0,35.9,10.78v67.26c-19.41-15.91-34-35.16-45.1-55.45Zm41.81,79.63v-168l46,113C1853.14,2563.61,1838.16,2582.7,1818.42,2598.38Zm37.14-289.1a79,79,0,0,0-37.14-10.28v-85.78c17.93,18.36,34.91,41.84,48.63,67.85Zm-61.8-347.88h18.75V1975h-22.86Zm24.66,49.11H1852l5.25,17.35h-38.85Zm0-5.91V1899.4l31.82,105.2Zm-5.91-49.11h-17l17-56.09Zm5.91,78.28h36.85l-36.85,48.15Zm-45.48-3.55,14.92-49.33h24.65v101Zm39.57,185.15V2299c-13.39.52-26.35,4.28-36.64,11.27l-11-27.1C1778.22,2257.33,1794.85,2233.89,1812.51,2215.37Zm-66.42,272.5a2.79,2.79,0,0,0,1.28.32,3,3,0,1,0-2.44-4.52c-.55-2.11-1.07-4.21-1.58-6.3a2.87,2.87,0,0,0-1.16-5,349.52,349.52,0,0,1-8.33-74.13,210.87,210.87,0,0,1,5.35-45.78,2.91,2.91,0,0,0,2.26,1.11,3,3,0,0,0,0-5.9,2.86,2.86,0,0,0-1.24.28,288.57,288.57,0,0,1,21.07-57.73l51,125.24-48.49,119.05A261,261,0,0,1,1746.09,2487.87Zm15.67,67.33c12.47,20.79,28.78,40.29,50.19,56.15a3.31,3.31,0,0,0,.56.29v42.89a28.52,28.52,0,0,0,0,56.76v41.25l-79.3,128.29,75.34,121.88c-66.27,1.3-147.5-6.7-217.6-28.16Zm-98.33,564.65,30-117.19a774.63,774.63,0,0,0,98.63,6.43q9.69,0,19-.25a3.38,3.38,0,0,0,.24.72l-73.72,127.12C1711.27,3133.21,1686.29,3127.65,1663.43,3119.85Zm143.19,27.09,1.26,0-34.7,62.79h-71.1l38.7-66.74A541.2,541.2,0,0,0,1806.62,3146.94Zm5.89,109.26v51.11h-84.22l30.25-58.19A218.2,218.2,0,0,0,1812.51,3256.2Zm-114,120.82c31.56,21.18,71.51,32.91,114,33.14v216.75Zm232.88.13-112.93,251.5V3410.12C1860.78,3409.31,1901.08,3397.49,1931.35,3377.15Zm-28.49-69.58a5.6,5.6,0,0,0-1.28-.26h-83.16v-51.23a227.69,227.69,0,0,0,53.79-7.47Zm24.46-97.86h-69.48L1823,3146.63a649.4,649.4,0,0,0,64.84-5.05Zm-108.9-199.59v-1l.33-.54c41.18-1.58,75.73-6.75,97.13-14.18a3,3,0,0,0-1.94-5.59c-20.52,7.14-52.87,11.92-91.3,13.49l75.07-121.47-79.29-128.29v-41.25a28.52,28.52,0,0,0,0-56.76v-42.16a5.67,5.67,0,0,0,2.59-1,190.86,190.86,0,0,0,49-54.2l212.29,521.15c-56.3,28.44-123.49,48-191.27,57.09Zm298.35,141.64-34.57-24.22,6.62-41.69,34.57,24.23Z"/><circle class="cls-1" cx="3357.48" cy="2679.2" r="8.86"/><path class="cls-1" d="M3357.48,1847.66a16.8,16.8,0,1,0-16.8-16.8A16.82,16.82,0,0,0,3357.48,1847.66Zm0-27.69a10.89,10.89,0,1,1-10.89,10.89A10.89,10.89,0,0,1,3357.48,1820Z"/><path class="cls-1" d="M3357.48,1801.86a3,3,0,0,0,2.95-2.95v-21.66a3,3,0,1,0-5.91,0v21.66A3,3,0,0,0,3357.48,1801.86Z"/><path class="cls-1" d="M3336.11,1804.33a3,3,0,0,0,2.66,1.65,2.92,2.92,0,0,0,1.3-.31,3,3,0,0,0,1.35-4l-8.68-17.63a3,3,0,0,0-5.3,2.61Z"/><path class="cls-1" d="M3375.74,1805.67a2.89,2.89,0,0,0,1.3.31,3,3,0,0,0,2.66-1.65l8.67-17.63a3,3,0,0,0-5.3-2.61l-8.68,17.63A3,3,0,0,0,3375.74,1805.67Z"/><path class="cls-1" d="M3644.81,3123.56a8.47,8.47,0,1,0-8.47-8.47A8.47,8.47,0,0,0,3644.81,3123.56Z"/><path class="cls-1" d="M3069,3109.63a8.46,8.46,0,1,0,8.47,8.46A8.45,8.45,0,0,0,3069,3109.63Z"/><path class="cls-1" d="M3176.54,2447.21a3,3,0,0,0,4.17,0l34.82-34.82a3,3,0,0,0,0-4.18l-34.82-34.81a3,3,0,1,0-4.17,4.18l32.72,32.72L3176.54,2443A3,3,0,0,0,3176.54,2447.21Z"/><path class="cls-1" d="M3506.89,2412.39l34.82,34.82a3,3,0,0,0,4.17-4.18l-32.72-32.73,32.72-32.72a3,3,0,1,0-4.17-4.18l-34.82,34.81A3,3,0,0,0,3506.89,2412.39Z"/><path class="cls-1" d="M3359.57,3701.9a.53.53,0,0,1-.1-.06,2.9,2.9,0,0,0-2-.8,2.94,2.94,0,0,0-2.11.89l-34.79,34.79a3,3,0,0,0,4.18,4.17l29.76-29.76v67.45a3,3,0,0,0,5.91,0v-67.46l29.77,29.77a3,3,0,1,0,4.18-4.17Z"/><path class="cls-1" d="M3288,2682.15h23.27a3,3,0,0,0,0-5.91H3288a3,3,0,0,0,0,5.91Z"/><path class="cls-1" d="M3428.85,2676.24h-23.26a3,3,0,1,0,0,5.91h23.26a3,3,0,0,0,0-5.91Z"/><circle class="cls-1" cx="3348.16" cy="2027.84" r="2.95"/><circle class="cls-1" cx="3337.54" cy="2027.84" r="2.95"/><circle class="cls-1" cx="3327.68" cy="2027.84" r="2.95"/><circle class="cls-1" cx="3306.76" cy="2317.33" r="2.95"/><circle class="cls-1" cx="3296.67" cy="2326.2" r="2.95"/><circle class="cls-1" cx="3289.38" cy="2336.78" r="2.95"/><circle class="cls-1" cx="3306.76" cy="2500.98" r="2.95"/><circle class="cls-1" cx="3296.67" cy="2492.12" r="2.95"/><circle class="cls-1" cx="3410.08" cy="2317.33" r="2.95"/><circle class="cls-1" cx="3420.17" cy="2326.2" r="2.95"/><circle class="cls-1" cx="3427.46" cy="2336.79" r="2.95"/><circle class="cls-1" cx="3404.88" cy="2506.18" r="2.95"/><circle class="cls-1" cx="3414.97" cy="2497.32" r="2.95"/><circle class="cls-1" cx="3422.26" cy="2486.73" r="2.95"/><path class="cls-1" d="M3685.77,3040.29a2.94,2.94,0,0,0-4.13-.61,389.45,389.45,0,0,1-52,32.23L3415.82,2547c27.23-47.92,34.68-101.72,36.53-133.76h17.93a3,3,0,0,0,0-5.91h-17.63c.2-5,.28-9.38.28-12.86,0-40.2-13.31-85-34.36-124.84l83.27-204.41a14.8,14.8,0,0,0,3.54.46,15.46,15.46,0,1,0-8.92-2.91L3414.93,2263c-13.48-24.12-29.75-46.12-47.57-63.79,10.92-9.71,22-17.39,32.76-22.47a5.91,5.91,0,1,0-5-10.68,155.46,155.46,0,0,0-34.64,23.14V2087.92l45.18-59c0-.08.06-.17.11-.25a3,3,0,0,0,.34-.78,32.12,32.12,0,0,0,.16-.77,3.45,3.45,0,0,0-.11-.54c0-.1,0-.21,0-.31l-6.66-22c0-.13.07-.25.07-.38a3,3,0,0,0-.78-2l-38.42-127a2,2,0,0,0-.13-.25,3.14,3.14,0,0,0-.29-.54,2.25,2.25,0,0,0-.34-.41,2.56,2.56,0,0,0-.44-.36,2.36,2.36,0,0,0-.52-.28c-.09,0-.16-.11-.25-.14a2.45,2.45,0,0,0-.27,0,2.83,2.83,0,0,0-1.16,0,2.46,2.46,0,0,0-.28,0c-.1,0-.17.11-.26.14a3,3,0,0,0-.5.27,2.76,2.76,0,0,0-.46.37,4.54,4.54,0,0,0-.33.41,3.14,3.14,0,0,0-.29.54,2,2,0,0,0-.13.25l-45.79,151.39a3,3,0,0,0,.48,2.65l45.18,59v99.49a153.32,153.32,0,0,0-32.61-21.39,5.91,5.91,0,1,0-5,10.68c10.76,5.08,21.84,12.76,32.76,22.47-18.32,18.17-35,40.9-48.69,65.81l-83.58-205.19a15.75,15.75,0,1,0-5.38,2.46l85.35,209.5c-20.41,39.29-33.26,83.24-33.26,122.74,0,3.48.07,7.84.28,12.86H3246.7a3,3,0,0,0,0,5.91h17.93c1.82,31.6,9.08,84.36,35.4,131.77L3127.28,2969.1c-27.19-8.68-52.55-19.45-74.52-32.56a3,3,0,1,0-3,5.08c22.52,13.43,48.11,24.34,75.24,33.17l-42,103.15-39.44,27.64a2.94,2.94,0,0,0-1.22,2.88l7.66,48.18a2.9,2.9,0,0,0,1.76,2.25,2.73,2.73,0,0,0,1.15.24,2.93,2.93,0,0,0,1.7-.54l40-28a2.93,2.93,0,0,0,1.22-2.87l-7.48-47.14,42.34-103.93c31.72,9.89,65.43,16.89,98.95,21.52L3199,3117.35a2.36,2.36,0,0,0,0,.46,2.88,2.88,0,0,0,0,.59,2.52,2.52,0,0,0,.14.54,3.35,3.35,0,0,0,.19.53,3,3,0,0,0,.34.46,4.59,4.59,0,0,0,.36.41,4.4,4.4,0,0,0,.52.3,2.22,2.22,0,0,0,.39.23c23.2,8.14,48.67,13.91,75.5,17.57l-41.73,72a2.49,2.49,0,0,0-.22.65,1.84,1.84,0,0,0-.09.25,3.39,3.39,0,0,0,0,.64,3,3,0,0,0,0,.6,2.67,2.67,0,0,0,.09.26,2.85,2.85,0,0,0,1,1.5c17.08,13.15,37.27,23,59.27,29.49l-33.43,64.33s0,.07,0,.11a2.91,2.91,0,0,0,.78,3.66c24.64,19,57.44,29.48,92.49,29.79v58.83c-45.32-.25-87.7-13.76-119.41-38.17a2.69,2.69,0,0,0-.38-.19,3,3,0,0,0-.54-.26,2.63,2.63,0,0,0-.55-.09,3.56,3.56,0,0,0-.57,0,3.63,3.63,0,0,0-.57.13,3.2,3.2,0,0,0-.42.1s-.07.06-.11.08a2.83,2.83,0,0,0-.45.32,3.73,3.73,0,0,0-.47.41s-.06,0-.09.08a3.59,3.59,0,0,0-.17.34,2.58,2.58,0,0,0-.28.58,2.54,2.54,0,0,0-.09.54,3.56,3.56,0,0,0,0,.57,30.37,30.37,0,0,1,.23,1l123.91,271.5v27.68l-33.94,33.94a3,3,0,1,0,4.18,4.18l32.72-32.72,32.72,32.72a3,3,0,1,0,4.18-4.18l-34-34v-25.74l122.82-273.53a2.71,2.71,0,0,0,.09-.41,3.16,3.16,0,0,0,.14-.59,3.24,3.24,0,0,0,0-.55,2.72,2.72,0,0,0-.1-.57,2.61,2.61,0,0,0-.26-.53c-.08-.13-.11-.27-.2-.39s-.07,0-.1-.08a2.94,2.94,0,0,0-.42-.36,2.87,2.87,0,0,0-.5-.36l-.09-.07a3,3,0,0,0-.43-.09,2.08,2.08,0,0,0-.56-.13,2.84,2.84,0,0,0-.65,0,3,3,0,0,0-.45.08,3.07,3.07,0,0,0-.63.31c-.1.06-.22.09-.32.16-30,23.52-72.9,37.23-118.3,38.12V3341.6c34.6-.83,67.34-11.29,90.58-29.18,0,0,.08,0,.12,0a2.89,2.89,0,0,0,1.36-.34,3,3,0,0,0,1.26-4l-33.69-64.82c22.09-6.54,42.13-16.35,58.38-29.1a3,3,0,0,0,.5-4.15,3,3,0,0,0-.8-.68l-41.94-72.32c66.88-9.17,133-28.48,188.87-56.32l-7,44a2.94,2.94,0,0,0,1.22,2.88l40,28a2.88,2.88,0,0,0,1.69.54,3,3,0,0,0,2.92-2.5l7.65-48.18a2.94,2.94,0,0,0-1.22-2.88l-37-25.93a392.25,392.25,0,0,0,51.86-32.23A3,3,0,0,0,3685.77,3040.29Zm-180.39-999.4a9.45,9.45,0,1,1-9.44,9.45A9.46,9.46,0,0,1,3505.38,2040.89ZM3199,2047.34a9.45,9.45,0,1,1,9.44,9.45A9.44,9.44,0,0,1,3199,2047.34ZM3055,3151l-6.63-41.68,34.58-24.23,6.61,41.68Zm379.72-806.72a2.88,2.88,0,0,0-1.39-.4,3,3,0,1,0,0,5.91,2.9,2.9,0,0,0,2.36-1.27,211,211,0,0,1,5.38,45.93,348.61,348.61,0,0,1-10.1,81.61,2.91,2.91,0,0,0-2.85-2.41,3,3,0,0,0,0,5.91,2.91,2.91,0,0,0,2.26-1.11,264,264,0,0,1-20.36,54.4l-49.35-121.17,51.9-127.42A289.77,289.77,0,0,1,3434.76,2344.32Zm-78.93,902.3c-39,0-75.71-10.16-105.07-28.81H3463.1C3434.05,3236.23,3395.8,3246.62,3355.83,3246.62Zm.24,89.23c-28.8,0-56-7.23-78.17-20.44h158C3413.84,3328.46,3385.61,3335.85,3356.07,3335.85ZM3286,3133.78l68.56-118.23v119.28l-1.39,2.52A540.11,540.11,0,0,1,3286,3133.78Zm36,72.21,32.58-58.95V3206Zm38.49,0v-59.1l32.67,59.1Zm0-71.32V3018.19l66.26,114.26a643.71,643.71,0,0,1-64.86,4.75Zm-3-135.83L3284,2880.07h39.55l33.93,59,33.92-59H3431l-73.4,118.76Zm-2.89-178.55-31,53.87H3284l70.52-114.1Zm36.88,53.87-31-53.87v-60.23l70.52,114.1ZM3357.48,2702a22.77,22.77,0,1,1,22.77-22.77A22.8,22.8,0,0,1,3357.48,2702Zm2.95-400.65c12.32.41,24.66,3.67,34.87,9.82l-34.87,85.6Zm-5.91,95.22-34.36-84.35c9.39-6.71,21.64-10.33,34.36-10.86Zm0,93.41a53.83,53.83,0,0,1-22.85-7l22.85-56.09Zm-25.1-1.43a59.69,59.69,0,0,0,25.1,7.36v24c-12.33-.83-24.27-4.53-33.63-10.42Zm-10.8,26.52c10.2,6.22,22.7,10,35.9,10.77v67.26c-19.41-15.91-34.05-35.15-45.1-55.45Zm41.81,79.62v-168l46,113C3395.15,2559.9,3380.17,2579,3360.43,2594.66Zm37.14-289.1a79.07,79.07,0,0,0-37.14-10.28v-85.77c17.93,18.35,34.91,41.83,48.63,67.84Zm-61.8-347.88h18.75v13.59h-22.86Zm24.66,49.11H3394l5.25,17.36h-38.85Zm0-5.9V1895.68l31.82,105.21Zm-5.91-49.11h-17l17-56.1Zm5.91,78.28h36.85l-36.85,48.14Zm-45.48-3.55,14.92-49.34h24.65v101Zm39.57,185.14v83.66c-13.39.51-26.35,4.27-36.64,11.27l-11-27.11C3320.23,2253.61,3336.86,2230.18,3354.52,2211.65Zm-66.42,272.5a2.8,2.8,0,0,0,1.28.33,3,3,0,1,0,0-5.91,2.92,2.92,0,0,0-2.44,1.38c-.55-2.11-1.07-4.2-1.58-6.29a2.87,2.87,0,0,0-1.16-5,349.65,349.65,0,0,1-8.33-74.14,210.87,210.87,0,0,1,5.35-45.78,2.89,2.89,0,0,0,2.26,1.12,3,3,0,0,0,0-5.91,2.86,2.86,0,0,0-1.24.29,288.44,288.44,0,0,1,21.07-57.74l51,125.25-48.49,119.05A261.34,261.34,0,0,1,3288.1,2484.15Zm15.67,67.33c12.47,20.8,28.78,40.3,50.19,56.16a5.93,5.93,0,0,0,.56.29v42.89a28.52,28.52,0,0,0,0,56.76v41.24l-79.3,128.3L3350.56,2999c-66.27,1.3-147.5-6.7-217.6-28.17Zm-98.33,564.66,30-117.19a776.47,776.47,0,0,0,98.63,6.43q9.69,0,19-.26a3,3,0,0,0,.24.72L3279.6,3133C3253.28,3129.49,3228.3,3123.94,3205.44,3116.14Zm143.19,27.08,1.26,0-34.7,62.79h-71.1l38.7-66.74A539.2,539.2,0,0,0,3348.63,3143.22Zm5.89,109.26v51.11H3270.3l30.25-58.19A217.73,217.73,0,0,0,3354.52,3252.48Zm-114,120.83c31.56,21.18,71.51,32.9,114,33.13V3623.2Zm232.88.12-112.93,251.5V3406.4C3402.79,3405.59,3443.09,3393.78,3473.36,3373.43Zm-28.49-69.58a5.6,5.6,0,0,0-1.28-.26h-83.16v-51.23a227.17,227.17,0,0,0,53.79-7.47Zm24.46-97.86h-69.48L3365,3142.92c21.43-.58,43.14-2.29,64.84-5.06Zm-108.9-199.58v-1l.33-.55c41.18-1.57,75.73-6.75,97.13-14.18a3,3,0,1,0-1.94-5.58c-20.52,7.13-52.87,11.91-91.3,13.48l75.07-121.46-79.29-128.3v-41.24a28.52,28.52,0,0,0,0-56.76v-42.17a5.65,5.65,0,0,0,2.59-1,191,191,0,0,0,49-54.21l212.29,521.16c-56.3,28.44-123.49,48-191.27,57.08Zm298.35,141.64-34.57-24.23,6.62-41.68,34.57,24.22Z"/><circle class="cls-1" cx="362.63" cy="2664.34" r="8.86"/><path class="cls-1" d="M362.63,1832.8a16.81,16.81,0,1,0-16.79-16.8A16.82,16.82,0,0,0,362.63,1832.8Zm0-27.7a10.9,10.9,0,1,1-10.89,10.9A10.91,10.91,0,0,1,362.63,1805.1Z"/><path class="cls-1" d="M362.63,1787a3,3,0,0,0,3-3v-21.65a3,3,0,1,0-5.91,0V1784A3,3,0,0,0,362.63,1787Z"/><path class="cls-1" d="M341.27,1789.47a3,3,0,0,0,2.65,1.65,2.86,2.86,0,0,0,1.3-.31,2.94,2.94,0,0,0,1.35-4l-8.67-17.63a3,3,0,1,0-5.3,2.61Z"/><path class="cls-1" d="M380.9,1790.81a2.89,2.89,0,0,0,1.3.31,3,3,0,0,0,2.65-1.65l8.67-17.63a3,3,0,1,0-5.3-2.61l-8.67,17.63A3,3,0,0,0,380.9,1790.81Z"/><path class="cls-1" d="M650,3108.69a8.47,8.47,0,1,0-8.47-8.46A8.45,8.45,0,0,0,650,3108.69Z"/><path class="cls-1" d="M74.16,3094.77a8.46,8.46,0,1,0,8.47,8.45A8.45,8.45,0,0,0,74.16,3094.77Z"/><path class="cls-1" d="M181.69,2432.34a2.95,2.95,0,0,0,4.18,0l34.81-34.81a3,3,0,0,0,0-4.18l-34.81-34.81a3,3,0,0,0-4.18,4.18l32.73,32.72-32.73,32.73A3,3,0,0,0,181.69,2432.34Z"/><path class="cls-1" d="M512.05,2397.53l34.81,34.81a3,3,0,1,0,4.18-4.17l-32.72-32.73L551,2362.72a3,3,0,0,0-4.18-4.18l-34.81,34.81A3,3,0,0,0,512.05,2397.53Z"/><path class="cls-1" d="M364.73,3687s-.07,0-.1-.06a2.92,2.92,0,0,0-4.1.08l-34.79,34.79a3,3,0,0,0,4.17,4.18l29.77-29.76v67.44a3,3,0,1,0,5.91,0v-67.46L395.36,3726a3,3,0,0,0,4.17-4.18Z"/><path class="cls-1" d="M293.15,2667.29h23.26a3,3,0,1,0,0-5.91H293.15a3,3,0,0,0,0,5.91Z"/><path class="cls-1" d="M434,2661.38H410.74a3,3,0,0,0,0,5.91H434a3,3,0,0,0,0-5.91Z"/><circle class="cls-1" cx="353.31" cy="2012.98" r="2.95"/><circle class="cls-1" cx="342.69" cy="2012.98" r="2.95"/><circle class="cls-1" cx="332.84" cy="2012.98" r="2.95"/><circle class="cls-1" cx="311.92" cy="2302.47" r="2.95"/><circle class="cls-1" cx="301.83" cy="2311.33" r="2.95"/><circle class="cls-1" cx="294.54" cy="2321.92" r="2.95"/><circle class="cls-1" cx="311.92" cy="2486.11" r="2.95"/><circle class="cls-1" cx="301.83" cy="2477.25" r="2.95"/><circle class="cls-1" cx="415.24" cy="2302.47" r="2.95"/><circle class="cls-1" cx="425.33" cy="2311.33" r="2.95"/><circle class="cls-1" cx="432.62" cy="2321.93" r="2.95"/><circle class="cls-1" cx="410.03" cy="2491.32" r="2.95"/><circle class="cls-1" cx="420.12" cy="2482.46" r="2.95"/><circle class="cls-1" cx="427.41" cy="2471.87" r="2.95"/><path class="cls-1" d="M690.92,3025.43a3,3,0,0,0-4.13-.62,387.41,387.41,0,0,1-52,32.23L421,2532.16c27.23-47.92,34.69-101.72,36.54-133.77h17.93a3,3,0,0,0,0-5.9H457.8c.21-5,.28-9.38.28-12.86,0-40.21-13.3-85-34.35-124.84L507,2050.38a15.41,15.41,0,1,0-5.38-2.46l-81.54,200.17c-13.47-24.11-29.74-46.11-47.56-63.78,10.91-9.71,22-17.39,32.76-22.47a5.91,5.91,0,1,0-5-10.69c-11.83,5.59-23.47,13.51-34.64,23.15V2073.06l45.17-59c.06-.07.06-.16.11-.24a2.87,2.87,0,0,0,.35-.78,3.89,3.89,0,0,0,.09-.47c0-.1.06-.2.06-.3a2.47,2.47,0,0,0-.11-.54c0-.11,0-.21,0-.31l-6.67-22a2.21,2.21,0,0,0,.08-.37,3,3,0,0,0-.79-2l-38.41-127c0-.09-.1-.15-.13-.24a2.81,2.81,0,0,0-.29-.54,3.47,3.47,0,0,0-.34-.42,3.75,3.75,0,0,0-.44-.35,2.39,2.39,0,0,0-.52-.28c-.09,0-.16-.11-.25-.14a2.45,2.45,0,0,0-.27,0,2.37,2.37,0,0,0-.59-.06,2.29,2.29,0,0,0-.58.06,2.45,2.45,0,0,0-.27,0,2.15,2.15,0,0,0-.26.14,2.42,2.42,0,0,0-.5.27,2.76,2.76,0,0,0-.46.37,4.12,4.12,0,0,0-.33.4,3.22,3.22,0,0,0-.29.55c0,.09-.11.15-.14.24L314,2011.39a2.91,2.91,0,0,0,.48,2.64l45.18,59v99.49a153.76,153.76,0,0,0-32.61-21.4,5.91,5.91,0,0,0-5.05,10.69c10.75,5.08,21.84,12.76,32.75,22.47-18.31,18.16-35,40.9-48.68,65.81l-83.58-205.19a16,16,0,1,0-5.38,2.45l85.34,209.51c-20.41,39.29-33.26,83.24-33.26,122.74,0,3.48.08,7.84.28,12.86H251.86a3,3,0,1,0,0,5.9h17.93c1.82,31.6,9.08,84.37,35.39,131.77L132.44,2954.24c-27.19-8.69-52.56-19.45-74.53-32.56a3,3,0,0,0-3,5.08c22.52,13.43,48.11,24.34,75.24,33.17l-42,103.15-39.43,27.63a2.94,2.94,0,0,0-1.22,2.88l7.65,48.18a3,3,0,0,0,2.92,2.5,2.88,2.88,0,0,0,1.69-.54l39.95-28a2.93,2.93,0,0,0,1.22-2.88l-7.47-47.13,42.33-103.94c31.72,9.9,65.43,16.9,99,21.53l-30.51,119.18a2.36,2.36,0,0,0,0,.46,2.26,2.26,0,0,0,0,.58,2.46,2.46,0,0,0,.14.55,2.25,2.25,0,0,0,.19.53,2.8,2.8,0,0,0,.34.45,2.35,2.35,0,0,0,.36.41,3.4,3.4,0,0,0,.52.31,3,3,0,0,0,.38.23c23.2,8.14,48.68,13.9,75.51,17.57l-41.74,72a2.73,2.73,0,0,0-.21.65,1.69,1.69,0,0,0-.13.89,3.08,3.08,0,0,0,0,.61,2.67,2.67,0,0,0,.09.26,2.85,2.85,0,0,0,1,1.5c17.08,13.15,37.27,23,59.27,29.49l-33.43,64.33a.35.35,0,0,0,0,.11,2.91,2.91,0,0,0,.77,3.65c24.65,19,57.45,29.49,92.5,29.8v58.83c-45.33-.25-87.7-13.76-119.42-38.18-.11-.08-.25-.11-.37-.18a3.51,3.51,0,0,0-.55-.27,2.43,2.43,0,0,0-.54-.08,2.24,2.24,0,0,0-.58,0,2.83,2.83,0,0,0-.56.13,2.23,2.23,0,0,0-.43.1l-.11.08a2.75,2.75,0,0,0-.44.32,3.09,3.09,0,0,0-.47.4l-.09.09a2.16,2.16,0,0,0-.17.34,2.58,2.58,0,0,0-.28.58,3.41,3.41,0,0,0-.1.54,3.57,3.57,0,0,0,0,.57,2.34,2.34,0,0,0,.14.58,2.71,2.71,0,0,0,.09.41l123.91,271.51v27.68l-33.94,33.94a3,3,0,0,0,4.17,4.18l32.73-32.73,32.72,32.73a3,3,0,0,0,4.17-4.18l-33.94-34v-25.75L488.41,3351c0-.14,0-.27.09-.41a2.47,2.47,0,0,0,.13-.6,2.54,2.54,0,0,0,0-.55,3.78,3.78,0,0,0-.1-.57,2.57,2.57,0,0,0-.27-.52,2.81,2.81,0,0,0-.19-.39s-.07,0-.1-.08a2.86,2.86,0,0,0-.42-.36,2.73,2.73,0,0,0-.5-.36l-.1-.07a2.86,2.86,0,0,0-.42-.1,2.8,2.8,0,0,0-.56-.12,2.44,2.44,0,0,0-.66,0,2.36,2.36,0,0,0-.45.08,3,3,0,0,0-.62.31,2.39,2.39,0,0,0-.32.16c-30,23.52-72.9,37.22-118.3,38.11v-58.81c34.6-.82,67.33-11.29,90.58-29.17,0,0,.08,0,.12,0a2.9,2.9,0,0,0,1.36-.33,3,3,0,0,0,1.26-4l-33.69-64.82c22.09-6.54,42.13-16.35,58.38-29.1a3,3,0,0,0,.5-4.15,2.84,2.84,0,0,0-.8-.68l-41.94-72.33c66.88-9.16,133-28.47,188.86-56.32l-7,44a3,3,0,0,0,1.22,2.88l39.95,28a3,3,0,0,0,1.7.53,2.88,2.88,0,0,0,1.15-.23,2.93,2.93,0,0,0,1.76-2.26l7.66-48.18a3,3,0,0,0-1.22-2.88l-37-25.93a392.52,392.52,0,0,0,51.85-32.23A2.94,2.94,0,0,0,690.92,3025.43ZM510.54,2026a9.45,9.45,0,1,1-9.45,9.45A9.45,9.45,0,0,1,510.54,2026Zm-306.4,6.45a9.45,9.45,0,1,1,9.45,9.45A9.46,9.46,0,0,1,204.14,2032.48ZM60.19,3136.18l-6.62-41.69,34.57-24.22L94.76,3112Zm379.73-806.73a2.88,2.88,0,0,0-1.4-.39,3,3,0,1,0,0,5.9,2.87,2.87,0,0,0,2.36-1.26,210.45,210.45,0,0,1,5.39,45.93,348.61,348.61,0,0,1-10.1,81.61,2.92,2.92,0,0,0-2.85-2.42,3,3,0,1,0,2.26,4.8A264.06,264.06,0,0,1,415.22,2518l-49.36-121.18,51.9-127.41A289.15,289.15,0,0,1,439.92,2329.45ZM361,3231.76c-39,0-75.7-10.16-105.07-28.82H468.26C439.21,3221.37,401,3231.76,361,3231.76Zm.25,89.23c-28.8,0-56-7.24-78.17-20.44h158C419,3313.6,390.76,3321,361.23,3321Zm-70.12-202.07,68.57-118.23V3120l-1.4,2.52A542.15,542.15,0,0,1,291.11,3118.92Zm36,72.21,32.58-59v59Zm38.49,0V3132l32.66,59.11Zm0-71.32V3003.32l66.26,114.27a643.7,643.7,0,0,1-64.87,4.75Zm-3-135.84-73.41-118.76H328.7l33.93,59,33.92-59H436.1L362.7,2984Zm-2.88-178.55-31,53.88H289.15l70.53-114.1Zm36.87,53.88-31-53.87V2745.2l70.51,114.1Zm-33.92-172.19a22.78,22.78,0,1,1,22.77-22.77A22.8,22.8,0,0,1,362.63,2687.11Zm3-400.66c12.31.42,24.66,3.67,34.87,9.82l-34.87,85.61Zm-5.91,95.22-34.36-84.34c9.38-6.72,21.63-10.33,34.36-10.86Zm0,93.42a53.94,53.94,0,0,1-22.85-7L359.68,2412Zm-25.1-1.44a59.36,59.36,0,0,0,25.1,7.36v24c-12.33-.83-24.27-4.53-33.64-10.42Zm-10.81,26.53A78.76,78.76,0,0,0,359.68,2511v67.26c-19.41-15.91-34.06-35.16-45.1-55.45Zm41.82,79.62v-168l46,113C400.31,2545,385.33,2564.12,365.59,2579.8Zm37.13-289.1a79,79,0,0,0-37.13-10.28v-85.78c17.92,18.36,34.91,41.84,48.63,67.85Zm-61.79-347.88h18.75v13.58H336.82Zm24.66,49.11h33.6l5.25,17.36H365.59Zm0-5.91v-105.2L397.4,1986Zm-5.91-49.11h-17l17-56.09Zm5.91,78.28h36.85l-36.85,48.15Zm-45.48-3.54L335,1962.31h24.65v101Zm39.57,185.14v83.65c-13.39.52-26.35,4.28-36.65,11.28l-11-27.11C325.38,2238.75,342,2215.32,359.68,2196.79Zm-66.42,272.5a2.76,2.76,0,0,0,1.28.32,3,3,0,1,0-2.44-4.52c-.56-2.11-1.08-4.21-1.58-6.29a2.88,2.88,0,0,0-1.16-5,349.52,349.52,0,0,1-8.33-74.13,210.26,210.26,0,0,1,5.35-45.78,2.9,2.9,0,0,0,2.25,1.11,3,3,0,1,0,0-5.9,3,3,0,0,0-1.23.28,288.57,288.57,0,0,1,21.07-57.73l51,125.24L311,2515.9A260.15,260.15,0,0,1,293.26,2469.29Zm15.67,67.33c12.46,20.79,28.78,40.3,50.19,56.16a3.66,3.66,0,0,0,.56.28V2636a28.52,28.52,0,0,0,0,56.77V2734l-79.3,128.29,75.34,121.88c-66.27,1.3-147.5-6.69-217.61-28.16ZM210.6,3101.27l30-117.19a774.6,774.6,0,0,0,98.62,6.43q9.69,0,19-.25a2.44,2.44,0,0,0,.24.72L284.76,3118.1C258.43,3114.63,233.45,3109.07,210.6,3101.27Zm143.18,27.09,1.27,0-34.7,62.79H249.24l38.7-66.74A541.32,541.32,0,0,0,353.78,3128.36Zm5.9,109.26v51.11H275.46l30.24-58.19A218.35,218.35,0,0,0,359.68,3237.62Zm-114,120.82c31.56,21.18,71.51,32.91,114,33.14v216.75Zm232.88.13-112.93,251.5V3391.54C408,3390.73,448.25,3378.91,478.52,3358.57ZM450,3289a5.49,5.49,0,0,0-1.28-.26H365.59V3237.5a227.69,227.69,0,0,0,53.79-7.47Zm24.47-97.86H405l-34.86-63.08A649.37,649.37,0,0,0,435,3123Zm-108.9-199.59v-1l.33-.54c41.17-1.57,75.73-6.75,97.13-14.18a3,3,0,0,0-1.94-5.58c-20.52,7.13-52.88,11.91-91.31,13.48l75.08-121.47L365.59,2734v-41.24a28.52,28.52,0,0,0,0-56.77v-42.16a5.81,5.81,0,0,0,2.59-1,191,191,0,0,0,49-54.21L629.5,3059.73c-56.3,28.43-123.5,48-191.27,57.08Zm298.34,141.64L629.37,3109l6.61-41.69,34.58,24.23Z"/><circle class="cls-2" cx="1053.75" cy="1597.93" r="8.86"/><path class="cls-2" d="M1053.75,766.39a16.8,16.8,0,1,0-16.8-16.8A16.81,16.81,0,0,0,1053.75,766.39Zm0-27.69a10.9,10.9,0,1,1-10.89,10.89A10.91,10.91,0,0,1,1053.75,738.7Z"/><path class="cls-2" d="M1053.75,720.6a3,3,0,0,0,3-3V696a3,3,0,0,0-5.9,0v21.66A3,3,0,0,0,1053.75,720.6Z"/><path class="cls-2" d="M1032.39,723.07a3,3,0,0,0,2.65,1.65,2.89,2.89,0,0,0,1.3-.31,3,3,0,0,0,1.35-3.95L1029,702.83a3,3,0,1,0-5.3,2.6Z"/><path class="cls-2" d="M1072,724.41a2.86,2.86,0,0,0,1.3.31,3,3,0,0,0,2.65-1.65l8.67-17.64a3,3,0,1,0-5.3-2.6l-8.67,17.63A3,3,0,0,0,1072,724.41Z"/><path class="cls-2" d="M1341.08,2042.29a8.47,8.47,0,1,0-8.46-8.46A8.46,8.46,0,0,0,1341.08,2042.29Z"/><path class="cls-2" d="M765.28,2028.36a8.46,8.46,0,1,0,8.46,8.46A8.46,8.46,0,0,0,765.28,2028.36Z"/><path class="cls-2" d="M872.81,1365.94a2.95,2.95,0,0,0,4.18,0l34.81-34.81a3,3,0,0,0,0-4.18L877,1292.14a3,3,0,1,0-4.18,4.17L905.54,1329l-32.73,32.72A3,3,0,0,0,872.81,1365.94Z"/><path class="cls-2" d="M1203.17,1331.13l34.81,34.81a3,3,0,0,0,4.18-4.18L1209.43,1329l32.73-32.73a3,3,0,1,0-4.18-4.17L1203.17,1327A3,3,0,0,0,1203.17,1331.13Z"/><path class="cls-2" d="M1055.84,2620.64l-.09-.06a2.93,2.93,0,0,0-2-.81,2.9,2.9,0,0,0-2.1.89l-34.8,34.79a3,3,0,0,0,4.18,4.18l29.77-29.77v67.45a2.95,2.95,0,0,0,5.9,0v-67.46l29.77,29.78a3,3,0,0,0,4.18-4.18Z"/><path class="cls-2" d="M984.27,1600.89h23.26a3,3,0,0,0,0-5.91H984.27a3,3,0,1,0,0,5.91Z"/><path class="cls-2" d="M1125.12,1595h-23.26a3,3,0,0,0,0,5.91h23.26a3,3,0,1,0,0-5.91Z"/><circle class="cls-2" cx="1044.43" cy="946.58" r="2.95"/><circle class="cls-2" cx="1033.81" cy="946.58" r="2.95"/><circle class="cls-2" cx="1023.96" cy="946.58" r="2.95"/><circle class="cls-2" cx="1003.04" cy="1236.07" r="2.95"/><circle class="cls-2" cx="992.94" cy="1244.93" r="2.95"/><circle class="cls-2" cx="985.66" cy="1255.52" r="2.95"/><circle class="cls-2" cx="1003.04" cy="1419.71" r="2.95"/><circle class="cls-2" cx="992.94" cy="1410.85" r="2.95"/><circle class="cls-2" cx="1106.36" cy="1236.07" r="2.95"/><circle class="cls-2" cx="1116.45" cy="1244.93" r="2.95"/><circle class="cls-2" cx="1123.73" cy="1255.52" r="2.95"/><circle class="cls-2" cx="1101.15" cy="1424.92" r="2.95"/><circle class="cls-2" cx="1111.24" cy="1416.05" r="2.95"/><circle class="cls-2" cx="1118.53" cy="1405.47" r="2.95"/><path class="cls-2" d="M1382,1959a3,3,0,0,0-4.13-.61,389.45,389.45,0,0,1-52,32.23l-213.81-524.89c27.23-47.91,34.68-101.71,36.54-133.76h17.92a3,3,0,1,0,0-5.91h-17.63c.21-5,.28-9.38.28-12.85,0-40.21-13.31-85-34.35-124.84L1198.11,984a15.43,15.43,0,1,0-5.37-2.46l-81.54,200.17c-13.47-24.12-29.75-46.12-47.56-63.78,10.91-9.71,22-17.39,32.76-22.47a5.91,5.91,0,0,0-5.05-10.69c-11.83,5.59-23.47,13.51-34.65,23.15V1006.65l45.18-59c.06-.07.06-.16.11-.25a2.66,2.66,0,0,0,.34-.77,2.63,2.63,0,0,0,.1-.47c0-.11.06-.2.06-.3a2.47,2.47,0,0,0-.11-.54c0-.11,0-.21,0-.32l-6.66-22a2.41,2.41,0,0,0,.07-.37,2.92,2.92,0,0,0-.78-2l-38.41-127c0-.09-.1-.15-.14-.25a2.69,2.69,0,0,0-.28-.53,3.54,3.54,0,0,0-.35-.42,2.49,2.49,0,0,0-.43-.36,2.86,2.86,0,0,0-.52-.27,2.15,2.15,0,0,0-.26-.14,1.23,1.23,0,0,0-.27,0,2.83,2.83,0,0,0-1.16,0,1.23,1.23,0,0,0-.27,0,2.15,2.15,0,0,0-.26.14,2.78,2.78,0,0,0-.51.27,3.16,3.16,0,0,0-.45.37,2.51,2.51,0,0,0-.33.4,2.94,2.94,0,0,0-.3.55c0,.09-.1.15-.13.24L1005.14,945a2.93,2.93,0,0,0,.48,2.65l45.18,59v99.5a153.44,153.44,0,0,0-32.62-21.4,5.91,5.91,0,0,0-5,10.69c10.76,5.08,21.85,12.76,32.76,22.47-18.31,18.16-35,40.89-48.68,65.81L913.62,978.53a15.92,15.92,0,1,0-5.37,2.45l85.34,209.51c-20.41,39.29-33.26,83.24-33.26,122.74,0,3.47.07,7.84.28,12.85H943a3,3,0,0,0,0,5.91H960.9c1.83,31.6,9.08,84.36,35.4,131.77L823.56,1887.84c-27.19-8.69-52.56-19.45-74.53-32.56a3,3,0,0,0-3,5.07c22.52,13.44,48.11,24.35,75.24,33.17l-42,103.16-39.44,27.63a3,3,0,0,0-1.22,2.88l7.66,48.18a3,3,0,0,0,2.92,2.5,2.9,2.9,0,0,0,1.69-.54l39.95-28a3,3,0,0,0,1.22-2.88l-7.48-47.13,42.34-103.94c31.72,9.9,65.43,16.9,99,21.53l-30.51,119.18a3.4,3.4,0,0,0,0,.45,3,3,0,0,0,0,.59,4.26,4.26,0,0,0,.14.54,3.86,3.86,0,0,0,.19.54,3.54,3.54,0,0,0,.34.45,2.41,2.41,0,0,0,.37.41,3,3,0,0,0,.52.31,2.4,2.4,0,0,0,.38.23c23.2,8.14,48.68,13.9,75.51,17.57l-41.74,72a3.11,3.11,0,0,0-.22.65,2.58,2.58,0,0,0-.08.26,2.23,2.23,0,0,0,0,.63,2.51,2.51,0,0,0,0,.61,2.58,2.58,0,0,0,.08.26,2.9,2.9,0,0,0,1,1.5c17.07,13.14,37.27,23,59.27,29.49l-33.43,64.32a.61.61,0,0,0,0,.11,2.92,2.92,0,0,0,.77,3.66c24.65,19,57.45,29.49,92.5,29.8v58.83c-45.33-.26-87.7-13.76-119.42-38.18a2.53,2.53,0,0,0-.37-.18,2.81,2.81,0,0,0-.55-.27,2.54,2.54,0,0,0-.54-.09,3.77,3.77,0,0,0-.58,0,2.87,2.87,0,0,0-.56.14,3,3,0,0,0-.43.09l-.11.09a2.24,2.24,0,0,0-.44.32,3.09,3.09,0,0,0-.47.4s-.07,0-.09.08a1.62,1.62,0,0,0-.17.35,2.58,2.58,0,0,0-.28.58,3.22,3.22,0,0,0-.1.54,2.63,2.63,0,0,0,0,.56,2.81,2.81,0,0,0,.13.59,2.73,2.73,0,0,0,.1.41l123.91,271.51v27.68l-33.95,33.94A3,3,0,1,0,1021,2622l32.73-32.73,32.71,32.73a3,3,0,0,0,4.18,0,3,3,0,0,0,0-4.18l-34-33.95v-25.75l122.83-273.53c0-.13,0-.26.09-.4a3.06,3.06,0,0,0,.13-.6,2.54,2.54,0,0,0,0-.55,3.82,3.82,0,0,0-.11-.57,2.53,2.53,0,0,0-.26-.52,2.35,2.35,0,0,0-.19-.39l-.1-.08a2.11,2.11,0,0,0-.43-.36,1.92,1.92,0,0,0-.5-.36.71.71,0,0,0-.09-.07,2.13,2.13,0,0,0-.42-.1,2.83,2.83,0,0,0-.56-.13,2.42,2.42,0,0,0-.66.05,3.5,3.5,0,0,0-.45.07,3,3,0,0,0-.62.32,1.91,1.91,0,0,0-.32.16c-30,23.52-72.91,37.22-118.31,38.11v-58.81c34.61-.82,67.34-11.29,90.58-29.17,0,0,.09,0,.13,0a2.9,2.9,0,0,0,1.36-.33,3,3,0,0,0,1.26-4l-33.69-64.82c22.09-6.53,42.13-16.35,58.37-29.09a2.9,2.9,0,0,0-.3-4.84l-41.94-72.32c66.88-9.17,133-28.48,188.87-56.32l-7,44a2.93,2.93,0,0,0,1.22,2.87l40,28a2.91,2.91,0,0,0,1.7.54,2.73,2.73,0,0,0,1.15-.24,2.92,2.92,0,0,0,1.76-2.25l7.66-48.18a2.94,2.94,0,0,0-1.22-2.88l-37-25.93a393.83,393.83,0,0,0,51.85-32.23A3,3,0,0,0,1382,1959ZM1201.66,959.63a9.45,9.45,0,1,1-9.45,9.45A9.46,9.46,0,0,1,1201.66,959.63Zm-306.4,6.45a9.45,9.45,0,1,1,9.45,9.45A9.46,9.46,0,0,1,895.26,966.08Zm-144,1103.7-6.62-41.69,34.57-24.22,6.62,41.68ZM1131,1263.05a2.89,2.89,0,0,0-1.4-.4,3,3,0,0,0,0,5.91,2.91,2.91,0,0,0,2.36-1.26,211,211,0,0,1,5.38,45.93,348.52,348.52,0,0,1-10.09,81.61,2.92,2.92,0,0,0-2.85-2.42,3,3,0,1,0,0,5.91,2.9,2.9,0,0,0,2.25-1.11,263.71,263.71,0,0,1-20.35,54.4L1057,1330.45l51.9-127.41A289.72,289.72,0,0,1,1131,1263.05Zm-78.94,902.31c-39,0-75.7-10.17-105.07-28.82h212.35C1130.33,2155,1092.08,2165.36,1052.1,2165.36Zm.25,89.23c-28.81,0-56-7.24-78.17-20.45h158C1110.11,2247.19,1081.88,2254.59,1052.35,2254.59Zm-70.12-202.07,68.57-118.24v119.28l-1.4,2.53A542.15,542.15,0,0,1,982.23,2052.52Zm36,72.21,32.59-58.95v58.95Zm38.49,0v-59.11l32.67,59.11Zm0-71.32V1936.92L1123,2051.19a643.87,643.87,0,0,1-64.87,4.74Zm-3-135.84L980.27,1798.8h39.55l33.93,59,33.92-59h39.55l-73.4,118.76ZM1050.8,1739l-31,53.88H980.27l70.53-114.1Zm36.87,53.88-31-53.87V1678.8l70.52,114.1Zm-33.92-172.19a22.78,22.78,0,1,1,22.77-22.78A22.8,22.8,0,0,1,1053.75,1620.71Zm3-400.66c12.32.42,24.67,3.67,34.87,9.82l-34.87,85.6Zm-5.9,95.22-34.36-84.34c9.38-6.72,21.63-10.34,34.36-10.86Zm0,93.42a53.89,53.89,0,0,1-22.85-7l22.85-56.09Zm-25.1-1.44a59.5,59.5,0,0,0,25.1,7.36v24c-12.33-.83-24.27-4.52-33.64-10.41Zm-10.81,26.52a78.52,78.52,0,0,0,35.91,10.77v67.27c-19.41-15.91-34.06-35.16-45.11-55.46Zm41.81,79.63v-168l46,113C1091.42,1478.63,1076.45,1497.72,1056.7,1513.4Zm37.14-289.1A79,79,0,0,0,1056.7,1214v-85.78c17.93,18.35,34.91,41.84,48.63,67.85ZM1032,876.42h18.76V890h-22.86Zm24.66,49.11h33.61l5.25,17.35H1056.7Zm0-5.91V814.41l31.82,105.21Zm-5.9-49.11h-17l17-56.1Zm5.9,78.28h36.85l-36.85,48.15Zm-45.47-3.55,14.92-49.33h24.65v101Zm39.57,185.15V1214c-13.39.52-26.35,4.28-36.65,11.27l-11-27.1C1016.5,1172.35,1033.14,1148.91,1050.8,1130.39Zm-66.43,272.5a2.95,2.95,0,1,0,1.29-5.59,2.89,2.89,0,0,0-2.44,1.39c-.56-2.11-1.08-4.21-1.58-6.3a2.87,2.87,0,0,0-1.17-5,349.34,349.34,0,0,1-8.32-74.13,210.85,210.85,0,0,1,5.34-45.78,2.92,2.92,0,0,0,5.21-1.84,3,3,0,0,0-3-3,2.85,2.85,0,0,0-1.23.29,288.54,288.54,0,0,1,21.06-57.73l51,125.24-48.49,119A261,261,0,0,1,984.37,1402.89Zm15.68,67.33c12.46,20.79,28.77,40.29,50.18,56.15a3.4,3.4,0,0,0,.57.29v42.89a28.52,28.52,0,0,0,0,56.76v41.25l-79.3,128.29,75.33,121.88c-66.26,1.3-147.49-6.7-217.6-28.16Zm-98.33,564.65,30-117.19a774.48,774.48,0,0,0,98.62,6.43q9.69,0,19-.25a2.74,2.74,0,0,0,.25.71l-73.72,127.12C949.55,2048.23,924.57,2042.67,901.72,2034.87ZM1044.9,2062l1.27,0-34.71,62.79h-71.1l38.7-66.74A541.32,541.32,0,0,0,1044.9,2062Zm5.9,109.26v51.11H966.57l30.25-58.19A218.28,218.28,0,0,0,1050.8,2171.22ZM936.76,2292c31.55,21.18,71.51,32.9,114,33.14v216.75Zm232.87.13-112.93,251.5V2325.14C1099.07,2324.33,1139.36,2312.51,1169.63,2292.17Zm-28.49-69.58a5.6,5.6,0,0,0-1.28-.26H1056.7v-51.24a227.25,227.25,0,0,0,53.8-7.46Zm24.47-97.86h-69.49l-34.86-63.08a649.37,649.37,0,0,0,64.85-5.05ZM1056.7,1925.14v-1l.34-.54c41.17-1.58,75.72-6.75,97.13-14.18a3,3,0,0,0-1.94-5.59c-20.52,7.13-52.88,11.92-91.31,13.49L1136,1795.85l-79.29-128.29v-41.25a28.52,28.52,0,0,0,0-56.76v-42.16a5.82,5.82,0,0,0,2.6-1,190.86,190.86,0,0,0,49-54.2l212.29,521.15c-56.3,28.44-123.5,48-191.28,57.09Zm298.35,141.64-34.56-24.22,6.61-41.69,34.57,24.23Z"/></svg>