<svg id="Layer_1" data-name="Layer 1" xmlns="http://www.w3.org/2000/svg" viewBox="0 0 455 452"><defs><style>.cls-1{fill:#030303;}.cls-2{fill:#fff;}.cls-3{fill:#eeefe9;}.cls-4{fill:#191861;}</style></defs><title>logo</title><path class="cls-1" d="M234.81,45c10.81,0,21.55,0,29.29,9.67.93,1.16,3.34,1.18,5.09,1.61C314.47,67.17,350,92.08,375.46,131c3.39,5.19,6.92,8.18,12.94,9.5,11,2.42,17.87,15.77,13.08,25.75-3.65,7.58-4.14,14.69-2.25,22.85a146.84,146.84,0,0,1,3,51,12.11,12.11,0,0,0,2.19,8.67c4.42,6.82,0,22.76-7.51,29.08a14.73,14.73,0,0,0-4.32,5.85c-2.65,6.29-5.71,12.42-8.14,18.79-2.77,7.28-8.23,13-8.93,21.7-1.22,15.34-22.17,37.7-37.06,40.53-6.15,1.17-11.85,2.28-16.79,6.26a19,19,0,0,0-4.7,4.73c-3.78,6.05-9.22,9.49-16.65,8.05-2.27-.44-4,.34-5.88,1.08a172.3,172.3,0,0,1-42.25,10.8c-1.33.18-3.36.05-3.85.83-4.55,7.27-12,5.92-18.46,5.67-11.2-.44-22.65.05-32.48-7.9-3.54-2.86-9.51-2.65-14.34-4a167,167,0,0,1-54.87-27,18.31,18.31,0,0,0-6.53-3.44c-13.82-3.44-26.28-11.31-30.13-24.43-6.68-22.75-22.38-41.33-27.24-64.68-2.37-11.39-5.13-22.7-5.71-34.31-.25-5.13-1.43-9.3-5.08-12.78s-4.86-7.6-3.76-13c2-9.81,3.28-19.79,4.65-29.72.6-4.43,2.12-7.74,6.87-8.9,4.35-1.06,6.53-4,8-8.3a150.17,150.17,0,0,1,14.27-29.45c2-3.25,4.38-6.23,4.35-10.45a6.91,6.91,0,0,1,4-6.07c7.24-3.21,11.2-9.85,16.48-15.06,26.27-25.9,57.36-42.26,93.82-48.31,3.91-.65,7.6-1.14,10.38-5.12C215.17,45.57,221.52,45,234.81,45ZM360.74,339.31l-15.15,14.94-2.27.87c.82,1.64,2.06.65,3.16.48a46.1,46.1,0,0,0,15.21-15.31c.78-.71,1.71-1.65.39-2.4C361.11,337.34,360.79,338.43,360.74,339.31Zm-262.31-.24c.63,1.05,1.47,2.84,2.64,1.86,1.81-1.5-.24-2.39-1.31-3.27-.33-1.8-2.69-2.9-2-5.92a65.66,65.66,0,0,1,21,19c-7.78-1.21-11-7.75-17.06-9a35.78,35.78,0,0,0,17.75,13.82c1.25.47,2.83,1.09,3.89.06,1.45-1.42.17-2.92-.57-4.24C118.3,343.21,111.68,337,104,332c-3.06-2-7.59-6.09-10.12-3S95.68,336.13,98.43,339.07ZM68.29,247.45c.39,3.31-.09,6.85,2.48,9.6,2.2,15.3,8.41,29.2,15,43,3.38,7.1,7.46,12.83,16.21,13.49,2.39.18,4.77,1.5,7,2.6,13.36,6.56,22.53,16.76,26.91,31.09-9.83-13.61-20.6-25.85-39-30.08,1.74,3.71,3.49,5.77,6.32,7.17,10.56,5.25,18.34,13.41,23.75,23.78a21.22,21.22,0,0,0,6.62,7.57c38.49,27.9,81.28,38.41,128,30,116.91-21,174-155.66,108.34-254.52-4.66-7-9-11.31-18.75-10.68-16,1-23.39-9.57-18.69-24.81,1.05-3.4-.27-4.4-2.29-6C282.83,52.73,209,47,156.14,76.26c2.75,1,5.38-.07,8.07-.41,10.61-1.34,21.17-3.39,31.41,2.32,3.9,2.17,4.35,4,2.67,7.92C189,107.88,172.66,121,149.93,126.55a52.78,52.78,0,0,1-17.69,1c-1.16-.11-3,.39-2.8-1.82a2.34,2.34,0,0,1,2.86-2.19c1.13.11,2.26.35,3.39.42,23,1.34,50.33-16.39,58.47-38,.51-1.35,2.18-2.9-.2-3.95-2.09-.93-2.62,1-3.48,2.28a82.28,82.28,0,0,1-5.08,7.28c-14.31,17.27-31,29.68-55.13,26.17-3.33-.49-3.7,1.68-4.63,3.67-1.23,2.62-1,6.29-5.75,7.45,3.48-9.67,2.06-19.39,4.64-28.57.17-.51.33-1,.49-1.55l-1.74,0a152.34,152.34,0,0,0-33.21,39.6C70,172.13,63.5,208.68,68.29,247.45ZM187.18,79.1c-19.28-1.95-36.3,1.19-50.77,13.67-3.85,3.32-7.11,7.59-4.53,13.13s8.18,6.51,13.44,5.71C164.77,108.62,178.25,97.59,187.18,79.1ZM359,116.81c-3.81-3.72-5.18-9-10.08-8.64-7.24.52-11.34-.89-9.23-9.2.52-2.08-1.15-3.09-2.45-3.48-2.15-.64-2.36,1.51-2.86,2.93A14.12,14.12,0,0,0,341,115.2C346.3,118.07,351.84,117.76,359,116.81ZM64.8,176.22c-5.33,1.56-6.21,1.69-6.49,3.68-1.6,11.2-5,22.42-.58,33.77C59.49,201.15,61.41,188.71,64.8,176.22Zm320.09-29.93c3,7.35,5.79,14.22,8.62,21.08a12.52,12.52,0,0,0,.94,1.62c6.38-5.68,3.74-11.76.94-17.88C393.3,146.55,389.3,146.53,384.89,146.29ZM256.25,53.52c-9.49-6.6-32.84-7.13-40.62-1.2A244.53,244.53,0,0,1,256.25,53.52Z"/><path class="cls-2" d="M124.53,100.33c-2.58,9.17-1.16,18.89-4.64,28.56,4.74-1.16,4.52-4.83,5.75-7.45.93-2,1.3-4.16,4.63-3.67,24.12,3.51,40.82-8.9,55.13-26.17a82.28,82.28,0,0,0,5.08-7.28c.86-1.31,1.39-3.21,3.48-2.28,2.38,1,.71,2.6.2,3.95-8.14,21.6-35.43,39.33-58.47,38-1.13-.07-2.26-.31-3.39-.42a2.34,2.34,0,0,0-2.86,2.19c-.23,2.21,1.64,1.71,2.8,1.82a52.78,52.78,0,0,0,17.69-1C172.66,121,189,107.88,198.29,86.09c1.68-4,1.23-5.75-2.67-7.92-10.24-5.71-20.8-3.66-31.41-2.32-2.69.34-5.32,1.43-8.07.41C209,47,282.83,52.73,330.23,89.7c2,1.57,3.34,2.57,2.29,6-4.7,15.24,2.73,25.84,18.69,24.81,9.74-.63,14.09,3.66,18.75,10.68,65.65,98.86,8.57,233.5-108.34,254.52-46.74,8.4-89.53-2.11-128-30A21.22,21.22,0,0,1,127,348.1c-5.41-10.37-13.19-18.53-23.75-23.78-2.83-1.4-4.58-3.46-6.32-7.17,18.35,4.23,29.12,16.47,39,30.08-4.38-14.33-13.55-24.53-26.91-31.09-2.23-1.1-4.61-2.42-7-2.6-8.75-.66-12.83-6.39-16.21-13.49-6.56-13.8-12.77-27.7-15-43,1.43-.92,1-2.41,1.06-3.7.37-4.27,1.18-8.56,6.06-9.58,4.69-1,6.83,2.73,8.67,7.6.64-7-.67-9.56-4.93-10.78-4.42-1.28-8-.19-10.58,3.91-.7,1.13-.17,3.55-2.76,2.95C63.5,208.68,70,172.13,90.07,138.34a152.34,152.34,0,0,1,33.21-39.6ZM143.84,267.5c-14.59,5.55-26.64,1.75-36.67-10.24,4.07,16.24,25.13,22.34,37.56,11.21.39-.37,1.17-1,1.12-1.08C145.17,266.39,144.49,267,143.84,267.5ZM118.7,226.18c-.12-3,0-3,2.28-4.3,4.86-2.66,10.27-1.71,16.21-1.8-11-8.24-25.77-1.35-28.8,12.36l5-1c-.82,2.32-1.72,4.62-2.43,7-2.55,8.42.11,17.27,6.58,22.1,7.3,5.45,18.59,5.93,25.64,1.07-20.73-.49-28.13-3.58-29-14.32-1.64-19.94,12.31-21.53,27.7-20.72C133.72,221,126.21,223.66,118.7,226.18ZM285.18,364.56c-2.32-2.15-3.69.41-5.3,1.18-8.1,3.89-16.46,5.08-25.22,2.8-2.62-.69-5.6-1.21-6.24-4.46s1.14-5.83,3.57-7.64c4.09-3.06,8.8-4.35,13.94-4.86,4.36-.44,8.47,1.89,12.78,1.2a3.68,3.68,0,0,0-2.76-4c-9.37-3.58-18.64-3.93-27.59,1.25a15.88,15.88,0,0,0-7.32,9.48c-1.48,4.91,0,8.56,4.58,10.72,10.32,4.84,31.34,4.93,39.29-5.71l-.22-1.26c-.15.08-.42.13-.45.25C284,364.31,284.46,364.57,285.18,364.56Zm38.12-49.28c10.84.08,19.5-1.29,25.57-9.2,9.21-12,12.08-25.71,8.18-40-7-25.73-39.42-36.83-63.89-22.49-18.26,10.7-23,35-9.56,51.39C294.19,307.85,307.58,315.88,323.3,315.28Zm-189.46-84c-10.19,0-15.8,4.53-16,12.77-.17,8.55,6.29,13.84,16.76,13.7,9.83-.12,15.07-4.92,15-13.7C149.5,235.67,144,231.25,133.84,231.28Zm42.71-84.77c3.22,1.43,5.16,2,6.81,3.09a24.09,24.09,0,0,1,5.27,4.25c4.15,4.72,3.41,12.59-1.28,15.69s-10.42,1.37-13.63-4.62c-1.75-3.28-2.69-7-4.15-10.94-2,12.86,3.25,21.36,13.35,22.29,8.18.75,14.71-5.21,15.23-13.92C198.77,152,191.9,146.56,176.55,146.51ZM228,320.89c-.06-9.54-.67-18.92,9.15-23,10.09-4.2,18,.59,25.16,9.14-2.93-11.83-12.14-15-19.79-14.89-9.09.09-16.88,4.6-19.07,11.8C221.61,309.93,221.42,315.86,228,320.89ZM194.72,367c-7.21-2.45-12.21-5.78-19.36-5.31,5.31,2.94,9.55,5.45,13.94,7.67s8.3,6.08,13.59,7.2c.51-17-14-25.93-31.26-19.71C185,358,189.29,359.7,194.72,367ZM297.33,180.27c1.31-7.76-5.48-16.08-16-19.58-14.1-4.7-28.71-1-33.7,8.6C277,159.32,279.77,159.94,297.33,180.27ZM274,75.86c-8.46.11-13,3.5-13.07,9.66,0,7.39,5.83,11.78,15.37,11.55,7.37-.17,13.65-5.59,13.53-11.67C289.67,79.74,283.05,75.75,274,75.86ZM285.42,213c-9.33,1.41-18.62,1.91-27.52-1.87-9.28-3.95-13.26-12.18-15.78-23.3-.94,13.63,2.27,21,11.13,25.57C263.92,219,274.8,219.26,285.42,213ZM179,316.14c.22-6.31-3-9.93-9.17-10.23-6.85-.34-12.24,3.87-12.51,9.79a11.4,11.4,0,0,0,11,11.63C174.84,327.7,178.7,323.68,179,316.14ZM93,171.5c1.93,4.84,4.82,8.16,10.51,6.84,6.61-1.55,8.91-6.56,9.6-12.51.54-4.57.68-9.45-4.76-11.48s-8.9,1-12.21,6c5-.93,10.07-5.39,12.86,1.2,2,4.77.42,9.65-3.4,13C100.44,179,96.88,174.56,93,171.5Zm55.66-20.19c4.43,28.6,3.5,30.11-21.3,33.94,11,4,20,1.46,24.73-6.88C157.29,169.23,155.78,157,148.64,151.31Zm77.68,91.76c-5.17,0-8.2,3.29-8.17,8.76,0,6.46,5.21,11.28,12,11.07,5.42-.16,8.48-3.15,8.6-8.49C238.93,248.92,232.17,243,226.32,243.07Zm52.36-49.83c7.9-.12,10.83-2.43,10.87-7.19.05-5.39-4-9-9.91-8.67-6.61.33-9.57,3.91-9.12,11.87,2.56-4.65,5-9,10.58-8.36a5.25,5.25,0,0,1,4.81,5C286.31,189.94,283.18,191.12,278.68,193.24ZM266.37,379.16c-13.25,1.11-24.24.91-32.21-10.6C236.76,381.41,251.08,386.3,266.37,379.16Zm59.2-224.11c3.23-.06,5.08-1.83,5.26-5,.2-3.46-1.66-5.69-5.16-5.79s-5.42,2.4-5.3,5.65C320.48,152.85,322.12,155.09,325.57,155.05Zm23.69,59.24c-10.28-2.56-13.8-9.73-13.33-19.66C332.31,206.52,337.38,214.15,349.26,214.29Zm36.6-38.86c-3.34-4.84-7.25-6.4-10.77-3-4.16,4.06-2.27,8.41,1.8,12.36C375.93,173.39,376.64,172.54,385.86,175.43Z"/><path class="cls-2" d="M187.18,79.1c-8.93,18.49-22.41,29.52-41.86,32.51-5.26.8-10.8,0-13.44-5.71s.68-9.81,4.53-13.13C150.88,80.29,167.9,77.15,187.18,79.1Zm-7.24,2.79c-14.16.14-25.88,3.31-36.42,10.62a11.84,11.84,0,0,0-4.26,5.19c-1.71,4-.49,6.84,3.88,7.43a22.47,22.47,0,0,0,8.08-.49C163.65,101.69,172.06,93.46,179.94,81.89Z"/><path class="cls-2" d="M98.43,339.07c-2.75-2.94-7.11-6.93-4.55-10.08s7.06,1,10.12,3c7.68,5,14.3,11.23,18.81,19.4.74,1.32,2,2.82.57,4.24-1.06,1-2.64.41-3.89-.06a35.78,35.78,0,0,1-17.75-13.82c6.07,1.23,9.28,7.77,17.06,9a65.66,65.66,0,0,0-21-19c-.71,3,1.65,4.12,2,5.92Z"/><path class="cls-2" d="M359,116.81c-7.13,1-12.67,1.26-17.94-1.61a14.12,14.12,0,0,1-6.68-16.78c.5-1.42.71-3.57,2.86-2.93,1.3.39,3,1.4,2.45,3.48-2.11,8.31,2,9.72,9.23,9.2C353.79,107.82,355.16,113.09,359,116.81Z"/><path class="cls-2" d="M64.8,176.22c-3.39,12.49-5.31,24.93-7.07,37.45-4.41-11.35-1-22.57.58-33.77C58.59,177.91,59.47,177.78,64.8,176.22Z"/><path class="cls-2" d="M384.89,146.29c4.41.24,8.41.26,10.5,4.82,2.8,6.12,5.44,12.2-.94,17.88a12.52,12.52,0,0,1-.94-1.62C390.68,160.51,387.89,153.64,384.89,146.29Z"/><path class="cls-3" d="M256.25,53.52a244.53,244.53,0,0,0-40.62-1.2C223.41,46.39,246.76,46.92,256.25,53.52Z"/><path class="cls-4" d="M68.29,247.45c2.59.6,2.06-1.82,2.76-2.95,2.54-4.1,6.16-5.19,10.58-3.91,4.26,1.22,5.57,3.78,4.93,10.78-1.84-4.87-4-8.59-8.67-7.6-4.88,1-5.69,5.31-6.06,9.58-.11,1.29.37,2.78-1.06,3.7C68.2,254.3,68.68,250.76,68.29,247.45Z"/><path class="cls-2" d="M345.59,354.25l15.15-14.94c.31.33.63.66.95,1a46.1,46.1,0,0,1-15.21,15.31Z"/><path class="cls-2" d="M360.74,339.31c.05-.88.37-2,1.34-1.42,1.32.75.39,1.69-.39,2.4C361.37,340,361.05,339.64,360.74,339.31Z"/><path class="cls-3" d="M99.76,337.66c1.07.88,3.12,1.77,1.31,3.27-1.17,1-2-.81-2.64-1.86Z"/><path class="cls-2" d="M346.48,355.6c-1.1.17-2.34,1.16-3.16-.48l2.27-.87Z"/><path class="cls-3" d="M123.28,98.74l1.74,0c-.16.52-.32,1-.49,1.55C124.11,99.8,123.7,99.27,123.28,98.74Z"/><path class="cls-1" d="M323.3,315.28c-15.72.6-29.11-7.43-39.7-20.33-13.46-16.37-8.7-40.69,9.56-51.39,24.47-14.34,56.88-3.24,63.89,22.49,3.9,14.32,1,28-8.18,40C342.8,314,334.14,315.36,323.3,315.28Zm-1.37-6.39c11.46.16,21.58-3.13,26.93-13.9,12.37-24.9,1.91-46.53-23.13-52.19a48.63,48.63,0,0,0-18.35-.39c-19.31,3-36.13,25-21.58,47.11C294.51,302.72,306.47,308.81,321.93,308.89Z"/><path class="cls-1" d="M133.84,231.28c10.2,0,15.66,4.39,15.76,12.77.1,8.78-5.14,13.58-15,13.7-10.47.14-16.93-5.15-16.76-13.7C118,235.81,123.65,231.32,133.84,231.28Z"/><path class="cls-1" d="M285,364.55c-8,10.62-29.05,10.53-39.37,5.69-4.6-2.16-6.06-5.81-4.58-10.72a15.88,15.88,0,0,1,7.32-9.48c8.95-5.18,18.22-4.83,27.59-1.25a3.68,3.68,0,0,1,2.76,4c-4.31.69-8.42-1.64-12.78-1.2-5.14.51-9.85,1.8-13.94,4.86-2.43,1.81-4.21,4.37-3.57,7.64s3.62,3.77,6.24,4.46c8.76,2.28,17.12,1.09,25.22-2.8,1.61-.77,3-3.33,5.3-1.18Z"/><path class="cls-1" d="M176.55,146.51c15.35.05,22.22,5.52,21.6,15.84-.52,8.71-7.05,14.67-15.23,13.92-10.1-.93-15.34-9.43-13.35-22.29,1.46,3.94,2.4,7.66,4.15,10.94,3.21,6,8.93,7.72,13.63,4.62s5.43-11,1.28-15.69a24.09,24.09,0,0,0-5.27-4.25C181.71,148.55,179.77,147.94,176.55,146.51Z"/><path class="cls-1" d="M118.7,226.18c7.51-2.52,15-5.21,23.17.37-15.39-.81-29.34.78-27.7,20.72.88,10.74,8.28,13.83,29,14.32-7.05,4.86-18.34,4.38-25.64-1.07-6.47-4.83-9.13-13.68-6.58-22.1.71-2.35,1.61-4.65,2.43-7l-.22-.12a8.11,8.11,0,0,0,5.37-5.36Z"/><path class="cls-1" d="M228,320.89c-6.56-5-6.37-11-4.55-16.95,2.19-7.2,10-11.71,19.07-11.8,7.65-.07,16.86,3.06,19.79,14.89-7.13-8.55-15.07-13.34-25.16-9.14C227.31,302,227.92,311.35,228,320.89Z"/><path class="cls-1" d="M194.72,367c-5.43-7.26-9.72-8.92-23.09-10.15,17.26-6.22,31.77,2.75,31.26,19.71-5.29-1.12-9.07-4.91-13.59-7.2s-8.63-4.73-13.94-7.67C182.51,361.18,187.51,364.51,194.72,367Zm.25-.56-.49-.9c-.15.16-.44.34-.42.45a4.22,4.22,0,0,0,.42.92Z"/><path class="cls-1" d="M297.33,180.27c-17.56-20.33-20.38-21-49.68-11,5-9.57,19.6-13.3,33.7-8.6C291.85,164.19,298.64,172.51,297.33,180.27Z"/><path class="cls-4" d="M274,75.86c9.09-.11,15.71,3.88,15.83,9.54.12,6.08-6.16,11.5-13.53,11.67-9.54.23-15.4-4.16-15.37-11.55C260.91,79.36,265.5,76,274,75.86Zm1.57,3c-5.9.12-10.85.52-10.95,7.17-.07,5,4.48,8.16,11.24,8.2,5.53,0,10.87-4,10.87-8.1S281.52,78.84,275.53,78.85Z"/><path class="cls-4" d="M285.42,213c-10.62,6.25-21.5,6-32.17.4-8.86-4.61-12.07-11.94-11.13-25.57,2.52,11.12,6.5,19.35,15.78,23.3C266.8,214.92,276.09,214.42,285.42,213Z"/><path class="cls-1" d="M179,316.14c-.27,7.54-4.13,11.56-10.73,11.19a11.4,11.4,0,0,1-11-11.63c.27-5.92,5.66-10.13,12.51-9.79C176,306.21,179.19,309.83,179,316.14Zm-2.74,1c-.45-4.88-2.89-7.74-7.81-7.76-4.71,0-7.91,2.26-8.21,7.18-.26,4.24,4.66,9.08,8.77,8.77C174,324.94,175.85,321.57,176.23,317.12Z"/><path class="cls-1" d="M93,171.5c3.9,3.06,7.46,7.49,12.6,3,3.82-3.34,5.41-8.22,3.4-13-2.79-6.59-7.9-2.13-12.86-1.2,3.31-5,6.75-8,12.21-6s5.3,6.91,4.76,11.48c-.69,5.95-3,11-9.6,12.51C97.8,179.66,94.91,176.34,93,171.5Z"/><path class="cls-4" d="M148.64,151.31c7.14,5.67,8.65,17.92,3.43,27.06-4.76,8.34-13.75,10.84-24.73,6.88C152.14,181.42,153.07,179.91,148.64,151.31Z"/><path class="cls-1" d="M144.73,268.47c-12.43,11.13-33.49,5-37.56-11.21,10,12,22.08,15.79,36.67,10.24A10.23,10.23,0,0,0,144.73,268.47Z"/><path class="cls-4" d="M226.32,243.07c5.85,0,12.61,5.85,12.48,11.34s-3.18,8.33-8.6,8.49c-6.84.21-12-4.61-12-11.07C218.12,246.36,221.15,243.11,226.32,243.07ZM230,260.16c3.92-.25,6.16-2.17,6.07-6-.08-3.64-6.59-9.4-10-8.91-3.78.54-5.46,3.29-5.16,6.83C221.3,257.6,225.08,259.7,230,260.16Z"/><path class="cls-4" d="M278.68,193.24c4.5-2.12,7.63-3.3,7.23-7.36a5.25,5.25,0,0,0-4.81-5c-5.62-.66-8,3.71-10.58,8.36-.45-8,2.51-11.54,9.12-11.87,5.88-.29,10,3.28,9.91,8.67C289.51,190.81,286.58,193.12,278.68,193.24Z"/><path class="cls-4" d="M113.39,231.45l-5,1c3-13.71,17.83-20.6,28.8-12.36-5.94.09-11.35-.86-16.21,1.8-2.33,1.27-2.4,1.34-2.28,4.3l-.16-.21c-4.17-.8-5.94,1-5.37,5.36Z"/><path class="cls-4" d="M266.37,379.16c-15.29,7.14-29.61,2.25-32.21-10.6C242.13,380.07,253.12,380.27,266.37,379.16Z"/><path class="cls-4" d="M325.57,155.05c-3.45,0-5.09-2.2-5.2-5.09-.12-3.25,1.67-5.75,5.3-5.65s5.36,2.33,5.16,5.79C330.65,153.22,328.8,155,325.57,155.05Z"/><path class="cls-1" d="M349.26,214.29c-11.88-.14-16.95-7.77-13.33-19.66C335.46,204.56,339,211.73,349.26,214.29Z"/><path class="cls-1" d="M385.86,175.43c-9.22-2.89-9.93-2-9,9.4-4.07-4-6-8.3-1.8-12.36C378.61,169,382.52,170.59,385.86,175.43Z"/><path class="cls-1" d="M285.18,364.56c-.72,0-1.15-.25-.94-1,0-.12.3-.17.45-.25.07.42.15.84.26,1.27Z"/><path class="cls-1" d="M143.84,267.5c.65-.5,1.33-1.11,2-.11.05.07-.73.71-1.12,1.08A10.23,10.23,0,0,1,143.84,267.5Z"/><path class="cls-1" d="M179.94,81.89c-7.88,11.57-16.29,19.8-28.72,22.75a22.47,22.47,0,0,1-8.08.49c-4.37-.59-5.59-3.42-3.88-7.43a11.84,11.84,0,0,1,4.26-5.19C154.06,85.2,165.78,82,179.94,81.89Z"/><path class="cls-2" d="M321.93,308.9c-15.46-.09-27.42-6.18-36.13-19.38-14.55-22.06,2.27-44.1,21.58-47.11a48.63,48.63,0,0,1,18.35.39c25,5.66,35.5,27.29,23.13,52.19C343.51,305.76,333.39,309.05,321.93,308.9Zm24.16-25.09c6.4-9.69,3.44-23.25-6.43-31.16-11.56-9.26-29.72-8.09-40,2.57-8.48,8.83-8.87,23.92-.75,33.45,2.34-2.79,4.32-5.89,7.44-7.92A63.64,63.64,0,0,0,323.28,265c2.76-3.75,6-7.31,11.26-6.25s8.2,5.28,10.2,10.13S345.8,278.54,346.09,283.81Z"/><path class="cls-3" d="M113.17,231.33c-.57-4.4,1.2-6.16,5.37-5.36A8.11,8.11,0,0,1,113.17,231.33Z"/><path class="cls-3" d="M195,366.4l-.49.47a4.22,4.22,0,0,1-.42-.92c0-.11.27-.29.42-.45Z"/><path class="cls-2" d="M275.53,78.85c6,0,11.15,3.1,11.16,7.27s-5.34,8.13-10.87,8.1c-6.76,0-11.31-3.17-11.24-8.2C264.68,79.37,269.63,79,275.53,78.85Z"/><path class="cls-3" d="M176.23,317.12c-.38,4.45-2.26,7.82-7.25,8.19-4.11.31-9-4.53-8.77-8.77.3-4.92,3.5-7.21,8.21-7.18C173.34,309.38,175.78,312.24,176.23,317.12Zm-3,.29c0-3.2-1.79-4.89-4.54-4.88a4.38,4.38,0,0,0-4.66,4.66,4.26,4.26,0,0,0,4.28,4.3C171.17,321.69,172.89,320.19,173.2,317.41Z"/><path class="cls-2" d="M230,260.16c-4.89-.46-8.67-2.56-9.14-8.06-.3-3.54,1.38-6.29,5.16-6.83,3.46-.49,10,5.27,10,8.91C236.13,258,233.89,259.91,230,260.16Z"/><path class="cls-1" d="M346.09,283.81c-.29-5.27.59-10.25-1.35-15s-4.75-9-10.2-10.13-8.5,2.5-11.26,6.25a63.64,63.64,0,0,1-16.9,15.78c-3.12,2-5.1,5.13-7.44,7.92-8.12-9.53-7.73-24.62.75-33.45,10.25-10.66,28.41-11.83,40-2.57C349.53,260.56,352.49,274.12,346.09,283.81Z"/><path class="cls-1" d="M173.2,317.41c-.31,2.78-2,4.28-4.92,4.08a4.26,4.26,0,0,1-4.28-4.3,4.38,4.38,0,0,1,4.66-4.66C171.41,312.52,173.2,314.21,173.2,317.41Z"/></svg>